<svg id="Group_149543" data-name="Group 149543" xmlns="http://www.w3.org/2000/svg" xmlns:xlink="http://www.w3.org/1999/xlink" width="32.891" height="36.55" viewBox="0 0 32.891 36.55">
  <defs>
    <clipPath id="clip-path">
      <rect id="Rectangle_65887" data-name="Rectangle 65887" width="32.891" height="36.55" fill="#9d8672"/>
    </clipPath>
  </defs>
  <g id="Group_149542" data-name="Group 149542" transform="translate(0 0)" clip-path="url(#clip-path)">
    <path id="Path_5443" data-name="Path 5443" d="M16.437,31.259h14.47c.14,0,.14,0,.14-.142,0-1.293,0-2.587,0-3.881a2.6,2.6,0,0,0-.376-1.373,5.184,5.184,0,0,0-1.341-1.43,12.975,12.975,0,0,0-2.748-1.572,25.461,25.461,0,0,0-3.728-1.268.389.389,0,0,0-.311.041,7.269,7.269,0,0,0-1.168.846c-.568.485-1.1,1-1.622,1.543-.341.355-.683.712-1.012,1.08-.736.819-1.512,1.6-2.28,2.385-.047.048-.079.047-.122,0-.119-.134-.241-.263-.361-.395-.4-.444-.813-.884-1.213-1.332-.611-.686-1.222-1.373-1.865-2.028a18.929,18.929,0,0,0-1.476-1.371,6.029,6.029,0,0,0-1.1-.756.3.3,0,0,0-.23-.025,25.725,25.725,0,0,0-3.534,1.173A14.332,14.332,0,0,0,3.905,24.18a6.261,6.261,0,0,0-1.483,1.377,2.767,2.767,0,0,0-.581,1.723c.015,1.267,0,2.534,0,3.8,0,.2-.022.179.175.179ZM0,33.1c0-.039,0-.078,0-.115Q0,30.039,0,27.1a4.166,4.166,0,0,1,.568-2.065,6.644,6.644,0,0,1,1.6-1.849,13.933,13.933,0,0,1,3.291-1.965,26.535,26.535,0,0,1,4.474-1.5,1.366,1.366,0,0,1,.72.04,4.361,4.361,0,0,1,1.268.659A17.219,17.219,0,0,1,14.273,22.5c.735.745,1.426,1.531,2.12,2.314.043.048.067.047.11,0,.472-.515.944-1.029,1.422-1.54.608-.648,1.229-1.283,1.892-1.878a10.316,10.316,0,0,1,1.746-1.321,2.713,2.713,0,0,1,.961-.368,1.122,1.122,0,0,1,.424.012A27.768,27.768,0,0,1,26.7,20.907a17.218,17.218,0,0,1,3.023,1.541,10.11,10.11,0,0,1,1.431,1.119,6.076,6.076,0,0,1,1.267,1.644,4.143,4.143,0,0,1,.437,1.4c.011.071.02.141.031.21q0,3.1,0,6.191c0,.072-.009.093-.09.093q-16.4,0-32.8,0" transform="translate(0 3.449)" fill="#9d8672"/>
    <path id="Path_5444" data-name="Path 5444" d="M15.24,1.845c-.242.012-.536.018-.829.042a16.743,16.743,0,0,0-1.693.228,30.19,30.19,0,0,0-3.7.945.717.717,0,0,0-.27.152.834.834,0,0,0-.208.94q.5,1.419,1,2.84.4,1.132.8,2.262c.019.055.034.093.11.069a16.407,16.407,0,0,1,3.1-.657q.709-.079,1.421-.1c.413-.012.825,0,1.238.028q.672.037,1.337.134a16.476,16.476,0,0,1,2.56.585c.078.025.107.011.134-.067q.9-2.556,1.8-5.112a.823.823,0,0,0-.537-1.1,28.8,28.8,0,0,0-4.479-1.054,15.719,15.719,0,0,0-1.782-.139m.041,19.162A5.756,5.756,0,0,0,16.5,20.9a6.314,6.314,0,0,0,3.311-1.763,6.351,6.351,0,0,0,1.85-4.111,6.375,6.375,0,0,0-.063-1.387,6.482,6.482,0,0,0-.736-2.128.114.114,0,0,0-.107-.065,1.249,1.249,0,0,1-.363-.08,15.926,15.926,0,0,0-1.806-.552,14.556,14.556,0,0,0-2.97-.4c-.389-.013-.778.007-1.167.028a13.24,13.24,0,0,0-1.38.152,14.967,14.967,0,0,0-2.737.718,1.562,1.562,0,0,1-.5.13.122.122,0,0,0-.118.074,6.27,6.27,0,0,0-.794,2.705A6.206,6.206,0,0,0,9,15.776a6.385,6.385,0,0,0,6.277,5.231M15.322,0a16.9,16.9,0,0,1,1.825.138,29.7,29.7,0,0,1,4.788,1.1,2.923,2.923,0,0,1,1.057.537,2.589,2.589,0,0,1,.926,1.706,2.791,2.791,0,0,1-.149,1.306C23.383,5.87,23,6.953,22.621,8.034l-.606,1.715a.16.16,0,0,0,.014.166,8.233,8.233,0,0,1-4.875,12.729,8.2,8.2,0,0,1-7.54-2.053,8.19,8.19,0,0,1-1.738-2.377,8,8,0,0,1-.724-2.332,8.693,8.693,0,0,1-.09-1.092,8.1,8.1,0,0,1,.769-3.646,7.735,7.735,0,0,1,.709-1.225.156.156,0,0,0,.022-.157Q7.8,7.6,7.032,5.432a8.358,8.358,0,0,1-.346-1.058A2.642,2.642,0,0,1,8.5,1.282C9.417.994,10.339.739,11.272.526A22.434,22.434,0,0,1,13.622.112c.416-.049.833-.088,1.252-.1.14,0,.28-.011.449-.014" transform="translate(1.161 0)" fill="#9d8672"/>
    <path id="Path_5445" data-name="Path 5445" d="M21.4,23.321h.8c.122,0,.122,0,.122.126,0,.521,0,1.041,0,1.562,0,.134,0,.134.14.134h1.561c.12,0,.121,0,.121.119,0,.538,0,1.076,0,1.615,0,.09-.028.116-.118.115-.532,0-1.065,0-1.6,0-.086,0-.11.026-.11.11,0,.532,0,1.065,0,1.6,0,.125,0,.127-.122.127q-.8,0-1.605,0c-.116,0-.119,0-.119-.121V27.113c0-.123,0-.123-.129-.125-.529,0-1.059,0-1.588,0-.09,0-.119-.026-.119-.116,0-.538,0-1.076,0-1.615,0-.114,0-.118.123-.118.531,0,1.064,0,1.6,0,.09,0,.116-.025.115-.115,0-.53,0-1.059,0-1.588,0-.119,0-.12.119-.12Z" transform="translate(3.267 4.086)" fill="#9d8672"/>
    <path id="Path_5446" data-name="Path 5446" d="M11.66,5.082v-.8c0-.12,0-.12.119-.121.529,0,1.059,0,1.588,0,.089,0,.116-.025.116-.115,0-.53,0-1.059,0-1.588,0-.12,0-.12.119-.12.538,0,1.076,0,1.615,0,.092,0,.116.028.116.118,0,.529,0,1.059,0,1.588,0,.118,0,.118.12.118h1.578c.122,0,.122,0,.123.126v1.6c0,.125,0,.125-.13.125h-1.57c-.12,0-.121,0-.121.125V7.718c0,.118,0,.121-.119.121-.538,0-1.076,0-1.615,0-.09,0-.116-.031-.115-.12,0-.532,0-1.064,0-1.6,0-.12,0-.12-.116-.12H11.812c-.152,0-.152,0-.152-.156Z" transform="translate(2.043 0.409)" fill="#9d8672"/>
  </g>
</svg>
