<svg id="Group_149545" data-name="Group 149545" xmlns="http://www.w3.org/2000/svg" xmlns:xlink="http://www.w3.org/1999/xlink" width="33.39" height="34.8" viewBox="0 0 33.39 34.8">
  <defs>
    <clipPath id="clip-path">
      <rect id="Rectangle_65888" data-name="Rectangle 65888" width="33.39" height="34.8" fill="#9d8672"/>
    </clipPath>
  </defs>
  <g id="Group_149544" data-name="Group 149544" transform="translate(0 0)" clip-path="url(#clip-path)">
    <path id="Path_5447" data-name="Path 5447" d="M4.8,20.715a.468.468,0,0,0-.057.034l-.591.384q-.9.585-1.8,1.17c-.077.05-.075.085-.027.155q.685,1.024,1.364,2.051.46.694.922,1.386l1.109,1.669q.509.765,1.014,1.53c.04.06.068.064.126.024.247-.172.5-.337.746-.505q.856-.578,1.71-1.156c.149-.1.147-.126.016-.253l-.006,0a1.056,1.056,0,0,1-.277-.382,1.025,1.025,0,0,0-.12-.205q-.328-.469-.655-.94L6.863,23.649,5.469,21.639l-.608-.87c-.016-.022-.027-.052-.063-.054M0,22.026a1.976,1.976,0,0,1,.237-.685,1.868,1.868,0,0,1,.578-.613q1.011-.663,2.028-1.322c.383-.248.758-.509,1.152-.736a1.755,1.755,0,0,1,1.475-.143,1.856,1.856,0,0,1,.848.569c.046.054.076.046.126.014q.7-.446,1.408-.888,1.352-.85,2.7-1.7a2.567,2.567,0,0,1,1.474-.412,3.655,3.655,0,0,1,.806.155q1.852.48,3.694,1.007c.675.193,1.351.379,2.025.575.916.266,1.831.537,2.738.831a9.339,9.339,0,0,1,.887.318,3.872,3.872,0,0,1,1.319.95,3.221,3.221,0,0,1,.758,1.4,2.7,2.7,0,0,1-.441,2.322,3.259,3.259,0,0,1-1.173,1.048,3.327,3.327,0,0,1-1.811.341,5.382,5.382,0,0,1-1.819-.483c-.453-.208-.916-.392-1.375-.586q-.937-.4-1.874-.8a1.082,1.082,0,1,1,.8-2.012q1.233.522,2.461,1.048c.408.175.813.361,1.228.52a2.343,2.343,0,0,0,1.008.161,1.016,1.016,0,0,0,.736-.406.66.66,0,0,0,.075-.858,1.469,1.469,0,0,0-.768-.666c-.477-.193-.973-.335-1.466-.487-1.058-.33-2.125-.636-3.192-.939Q14.727,19,12.808,18.49c-.257-.069-.516-.134-.772-.2a.375.375,0,0,0-.308.048L9.285,19.876c-.533.335-1.063.671-1.6,1-.07.044-.069.076-.027.137q.355.5.706,1.01.738,1.059,1.474,2.119c.168.242.338.482.5.725.036.052.065.057.117.025.338-.2.678-.389,1.015-.585a.176.176,0,0,1,.145-.022L14,24.944l2.292.628,1.49.407,2.26.619c.358.1.715.2,1.072.3a.247.247,0,0,0,.222-.036c.688-.454,1.376-.905,2.064-1.359q1-.662,2-1.33,1.32-.885,2.633-1.775,1-.68,2-1.365c.336-.231.665-.471,1-.7a.478.478,0,0,0,.068-.7,1.051,1.051,0,0,0-.736-.36.92.92,0,0,0-.46.1,15.361,15.361,0,0,0-1.344.862q-1.127.781-2.227,1.6a1.531,1.531,0,0,1-.52.282,1.08,1.08,0,0,1-1.326-.881A1.027,1.027,0,0,1,24.91,20.2c.451-.343.912-.671,1.37-1q.649-.473,1.313-.923a12.025,12.025,0,0,1,1.422-.877,2.854,2.854,0,0,1,1.2-.29,3.126,3.126,0,0,1,1.519.323,3.584,3.584,0,0,1,.855.622,2.46,2.46,0,0,1,.735,1.3,2.6,2.6,0,0,1-.668,2.44,4.137,4.137,0,0,1-.72.551c-.684.472-1.365.95-2.054,1.419q-1.358.924-2.724,1.839-1.242.832-2.487,1.657c-.775.512-1.553,1.02-2.328,1.53a1.836,1.836,0,0,1-1.1.33,2.89,2.89,0,0,1-.649-.123l-2.2-.6-4.11-1.127c-.768-.211-1.539-.418-2.307-.637-.156-.045-.245.047-.354.11-.034.021,0,.058,0,.086a1.826,1.826,0,0,1-.1,1.473,1.915,1.915,0,0,1-.667.732q-1.479,1-2.957,2a2.332,2.332,0,0,1-.8.381,1.857,1.857,0,0,1-1.918-.746c-.457-.675-.9-1.357-1.356-2.036-.383-.578-.768-1.155-1.152-1.733Q1.765,25.521.86,24.155C.692,23.9.524,23.65.354,23.4A2.1,2.1,0,0,1,0,22.536Z" transform="translate(0 3.356)" fill="#9d8672"/>
    <path id="Path_5448" data-name="Path 5448" d="M28.433,10.3A8.146,8.146,0,1,0,20.3,18.446,8.132,8.132,0,0,0,28.433,10.3M20.857,0l.506.045a9.223,9.223,0,0,1,1.164.187,10.3,10.3,0,0,1,1.729.547,10.189,10.189,0,0,1,2.838,1.775A10.56,10.56,0,0,1,28.438,3.98a10.2,10.2,0,0,1,1.391,2.412,10.576,10.576,0,0,1,.655,2.376,10.264,10.264,0,0,1,.106,1.972,10,10,0,0,1-.336,2.193,10.488,10.488,0,0,1-.766,2.02,10.089,10.089,0,0,1-1.56,2.267,10.363,10.363,0,0,1-6.27,3.3c-.325.045-.652.062-.98.08s-.628,0-.941-.008a9.482,9.482,0,0,1-1.6-.209,10.338,10.338,0,0,1-2.263-.764,10.081,10.081,0,0,1-2.268-1.467,10.342,10.342,0,0,1-3.342-5.425A10.078,10.078,0,0,1,10,10.968a9.408,9.408,0,0,1,.011-1.51,10.08,10.08,0,0,1,.932-3.516A10.118,10.118,0,0,1,12.15,3.968,10.316,10.316,0,0,1,14.9,1.507,10.453,10.453,0,0,1,17.311.427,10.28,10.28,0,0,1,19.119.051c.205-.023.411-.034.616-.051Z" transform="translate(2.078 0)" fill="#9d8672"/>
    <path id="Path_5449" data-name="Path 5449" d="M19.305,3.754c1.031,0,2.061,0,3.092,0a1.058,1.058,0,0,1,.979.579,1.074,1.074,0,0,1-.7,1.549,1.119,1.119,0,0,1-.277.033c-.274,0-.55,0-.824,0-.07,0-.092.016-.063.088a2.24,2.24,0,0,1,.123.414.094.094,0,0,0,.11.087c.232,0,.465,0,.7,0a1.054,1.054,0,0,1,.872.43,1.072,1.072,0,0,1-.446,1.645,1.044,1.044,0,0,1-.429.087c-.243,0-.487,0-.73,0a.1.1,0,0,0-.114.085,3.717,3.717,0,0,1-.872,1.565,3.905,3.905,0,0,1-1.017.772,4.663,4.663,0,0,1-1.009.394c-.1.025-.1.025-.033.1l1.727,1.862c.456.491.918.978,1.368,1.475a1.079,1.079,0,0,1-.775,1.815,1.071,1.071,0,0,1-.841-.378c-.274-.3-.55-.593-.825-.891q-.68-.736-1.361-1.471c-.285-.307-.573-.611-.858-.918-.506-.546-1.02-1.084-1.513-1.641a1.159,1.159,0,0,1-.11-1.364,1.232,1.232,0,0,1,1.22-.585,3.512,3.512,0,0,0,1.879-.245,1.658,1.658,0,0,0,.642-.489c.016-.019.045-.041.034-.064s-.05-.016-.076-.016h-2.9a1.078,1.078,0,0,1-.13-2.15,2.381,2.381,0,0,1,.245-.012h2.8a.632.632,0,0,0,.068,0c.024,0,.057.011.07-.017s-.018-.046-.033-.064a1.271,1.271,0,0,0-.648-.384,3.021,3.021,0,0,0-.813-.111q-.832,0-1.664-.012a1.08,1.08,0,0,1-.01-2.161c1.048,0,2.1,0,3.143,0" transform="translate(3.146 0.782)" fill="#9d8672"/>
  </g>
</svg>
