<svg id="Group_149551" data-name="Group 149551" xmlns="http://www.w3.org/2000/svg" xmlns:xlink="http://www.w3.org/1999/xlink" width="34.589" height="34.563" viewBox="0 0 34.589 34.563">
  <defs>
    <clipPath id="clip-path">
      <rect id="Rectangle_65891" data-name="Rectangle 65891" width="34.589" height="34.563" fill="#9d8672"/>
    </clipPath>
  </defs>
  <g id="Group_149550" data-name="Group 149550" transform="translate(0 0)" clip-path="url(#clip-path)">
    <path id="Path_5453" data-name="Path 5453" d="M14.876,22.654c-.355.076-.536.246-.372.631.217.5.422,1.014.637,1.519.1.233.227.4.523.26.278-.126.386-.3.258-.6-.217-.5-.426-1.012-.644-1.516-.074-.174-.172-.331-.4-.3m-2.849-.521a2.323,2.323,0,0,0,.829-.175c.528-.16.7-.4.4-.938-.307-.562-.508-1.18-.764-1.769-.408-.935-.473-.952-1.371-.4a1.86,1.86,0,0,0-.81,2.092,1.764,1.764,0,0,0,1.715,1.193m3.093-1c.044-.008.09-.016.134-.026q2.6-.664,5.208-1.325c.451-.114.358-.388.229-.688C20.1,17.72,19.5,16.354,18.94,14.973c-.166-.406-.325-.475-.7-.238Q16,16.154,13.73,17.532c-.263.161-.348.318-.217.612.38.86.74,1.731,1.112,2.595.092.216.2.427.494.392M1.435,19.6q0,5.688,0,11.377c0,.94.014.952.976.954q2.382.007,4.762,0,3.762,0,7.522,0c.416,0,.793,0,.788-.587-.013-1.4-.006-2.8,0-4.206,0-.268-.073-.424-.382-.448a1.215,1.215,0,0,1-1.039-.886c-.259-.64-.551-1.265-.8-1.909a.556.556,0,0,0-.738-.416,2.742,2.742,0,0,1-1.995-.319,1.039,1.039,0,0,0-.91-.064A1.31,1.31,0,0,1,7.81,22.35c-.456-1-.313-1.648.529-2.125A1.286,1.286,0,0,0,9,19.4a2.839,2.839,0,0,1,1.757-1.917,30.3,30.3,0,0,0,4.151-2.3,1.073,1.073,0,0,0,.586-1.062c-.023-1.746-.007-3.493-.008-5.24,0-1.783.12-1.558-1.614-1.572-.341,0-.667-.036-.882.365a2.413,2.413,0,0,1-2.339,1.292q-2.175-.02-4.348,0A2.41,2.41,0,0,1,3.952,7.7a.7.7,0,0,0-.732-.39c-.3.013-.6,0-.9,0-.846.008-.886.043-.886.912q0,5.688,0,11.377m19.447-3.558a7.789,7.789,0,0,1,2.6-1.241.588.588,0,0,1,.775.4.635.635,0,0,1-.37.856c-.688.318-1.395.6-2.1.883-.137.056-.414.006-.371.2a3.168,3.168,0,0,0,.4,1.014c.145.229.252-.073.365-.142a.963.963,0,0,1,.593-.144q1.062.1,2.124.215c.448.049.848.208.8.743-.048.584-.509.642-.974.612q-1-.065-1.99-.164c-.293-.029-.394.006-.355.359.09.828-.119,1.1-.949,1.323-1.444.383-2.89.758-4.343,1.1-.505.118-.581.318-.37.763.275.581.5,1.183.745,1.78a1.006,1.006,0,0,1-.266,1.252.97.97,0,0,0-.313.862q0,2.274,0,4.548c0,1.41-.665,2.1-2.053,2.1q-6.347.013-12.693,0C.666,33.356.006,32.684,0,31.194Q0,19.613,0,8.033c0-1.443.63-2.055,2.063-2.056q6.416,0,12.833,0c1.36,0,1.992.624,2,1.972.007,1.746.016,3.492-.006,5.238-.008.623.191.685.655.346.148-.108.314-.191.472-.286.959-.57,1.288-.5,1.969.484L21.5,11.877c.3-.362.643-.683,1.1-.311.427.348.29.769-.018,1.153-.4.5-.8,1.006-1.206,1.507-.071.089-.139.223-.233.247-1.259.328-.394.977-.262,1.565" transform="translate(0 1.196)" fill="#9d8672"/>
    <path id="Path_5454" data-name="Path 5454" d="M23.471,11.389h3.108a7.365,7.365,0,0,0-1.419-1.261.371.371,0,0,0-.548.061l-1.141,1.2m-.862-1.33c.533-.488,1.01-.908,1.469-1.349a.91.91,0,0,1,1.347-.139c.455.4.737.257,1.067-.145.317-.384.665-.875,1.242-.69.648.208.613-.137.6-.556-.01-.206-.006-.413,0-.619a.747.747,0,0,0-.848-.845c-1.331,0-2.661-.007-3.992,0a.791.791,0,0,0-.871.854c-.016,1.142,0,2.286,0,3.485m2.867,2.705c-.736,0-1.471.012-2.207,0A1.987,1.987,0,0,1,21.281,10.8q-.036-2.238,0-4.478A1.875,1.875,0,0,1,22.931,4.4a22.243,22.243,0,0,1,4.95-.035,1.94,1.94,0,0,1,1.84,2.056c.048,1.422.052,2.848,0,4.27a2.012,2.012,0,0,1-2.177,2.07c-.69,0-1.379,0-2.069,0" transform="translate(4.255 0.85)" fill="#9d8672"/>
    <path id="Path_5455" data-name="Path 5455" d="M25.349,24h.007v-1.72c0-.046,0-.091,0-.137-.019-.779-.246-1.02-1.039-1.028-1.217-.014-2.433-.006-3.649,0-.606,0-.953.274-.953.91q0,1.995,0,3.989a.714.714,0,0,0,.8.808c1.354,0,2.707,0,4.062,0a.678.678,0,0,0,.769-.757c0-.688,0-1.375,0-2.064M22.6,19.773c.713,0,1.427-.018,2.14,0a2.011,2.011,0,0,1,2.033,2.013c.036,1.446.035,2.9,0,4.343a2.041,2.041,0,0,1-2.055,2.083c-1.447.05-2.9.048-4.347,0A2.05,2.05,0,0,1,18.3,26.084q-.034-2.068,0-4.137a2.055,2.055,0,0,1,2.227-2.176c.69-.007,1.38,0,2.07,0Z" transform="translate(3.659 3.955)" fill="#9d8672"/>
    <path id="Path_5456" data-name="Path 5456" d="M28.782,16.311h0c0-.689.013-1.377,0-2.064a.768.768,0,0,0-.86-.846c-1.308,0-2.615,0-3.923,0a.813.813,0,0,0-.917.882q-.018,1.96,0,3.921a.806.806,0,0,0,.894.9c1.308,0,2.616,0,3.923.006.593,0,.9-.274.894-.876,0-.642,0-1.284,0-1.925m-2.8-4.242c.69,0,1.38-.006,2.07,0a1.99,1.99,0,0,1,2.141,1.966c.068,1.468.067,2.944.006,4.412a2.054,2.054,0,0,1-2.157,2.065c-1.378.06-2.761.065-4.139,0a2.063,2.063,0,0,1-2.166-2.319c0-1.309-.007-2.62,0-3.929a2,2,0,0,1,2.173-2.195c.69,0,1.38,0,2.07,0" transform="translate(4.348 2.414)" fill="#9d8672"/>
    <path id="Path_5457" data-name="Path 5457" d="M18.024,1.459c-.689,0-1.377,0-2.065,0a.74.74,0,0,0-.824.808c-.017,1.353-.012,2.705,0,4.058a.762.762,0,0,0,.814.834c1.353.022,2.707.019,4.061,0a.763.763,0,0,0,.822-.826q.018-2.029,0-4.058c0-.568-.32-.824-.878-.818-.642.006-1.285,0-1.927,0m4.145,2.862c0,.734.011,1.47,0,2.2A1.939,1.939,0,0,1,20.2,8.5q-2.241.032-4.482,0a1.937,1.937,0,0,1-1.926-1.938c-.017-1.447-.008-2.895,0-4.342A1.957,1.957,0,0,1,15.725.059a44.27,44.27,0,0,1,4.48,0,1.988,1.988,0,0,1,1.965,2.2c0,.69,0,1.379,0,2.068" transform="translate(2.758 0)" fill="#9d8672"/>
    <path id="Path_5458" data-name="Path 5458" d="M7.485,27.053c-.643,0-1.286.01-1.929,0-.466-.01-.833-.2-.823-.72.008-.49.378-.664.8-.668q1.964-.023,3.927,0c.454,0,.832.187.821.722-.011.5-.377.654-.8.666-.666.018-1.332,0-2,0" transform="translate(0.947 5.132)" fill="#9d8672"/>
    <path id="Path_5459" data-name="Path 5459" d="M23.593,5.817a.8.8,0,0,1,.787.822.8.8,0,0,1-.845.871.823.823,0,0,1-.853-.816.859.859,0,0,1,.911-.877" transform="translate(4.538 1.164)" fill="#9d8672"/>
    <path id="Path_5460" data-name="Path 5460" d="M22.192,21.161c.322,0,.643-.014.964,0a.636.636,0,0,1,.661.656.617.617,0,0,1-.653.654c-.3.019-.6,0-.9.014-.176.007-.414-.026-.406.244.008.214.215.2.373.21s.323,0,.48.025a.62.62,0,0,1,.594.706.558.558,0,0,1-.631.583c-.772-.086-.955.276-.9.958.041.473-.114.917-.676.931-.619.016-.72-.462-.724-.956q-.009-1.343,0-2.685c.006-1.1.25-1.347,1.327-1.351h.482Z" transform="translate(4.078 4.233)" fill="#9d8672"/>
    <path id="Path_5461" data-name="Path 5461" d="M23.587,15.9a10.049,10.049,0,0,1,.067-1.235.917.917,0,0,1,1.395-.718,17.406,17.406,0,0,1,2.019,1.183A.934.934,0,0,1,27,16.773c-.6.379-1.222.733-1.852,1.064A.96.96,0,0,1,23.624,17a10.2,10.2,0,0,1-.007-1.1h-.03" transform="translate(4.72 2.764)" fill="#9d8672"/>
    <path id="Path_5462" data-name="Path 5462" d="M18.832,2.672A2.117,2.117,0,0,1,19.218,4.1a1.678,1.678,0,1,1-3.3-.62,1.7,1.7,0,0,1,2.134-1.235,5.859,5.859,0,0,1,.575.23l.2.2" transform="translate(3.177 0.436)" fill="#9d8672"/>
    <path id="Path_5463" data-name="Path 5463" d="M18.393,2.853l-.2-.2a2.017,2.017,0,0,1-.122-.527.848.848,0,1,1,1.7.024.815.815,0,0,1-.908.81,2.214,2.214,0,0,1-.462-.112" transform="translate(3.615 0.255)" fill="#9d8672"/>
  </g>
</svg>
