<svg xmlns="http://www.w3.org/2000/svg" xmlns:xlink="http://www.w3.org/1999/xlink" width="29.281" height="38.938" viewBox="0 0 29.281 38.938">
  <defs>
    <clipPath id="clip-path">
      <rect id="Rectangle_65889" data-name="Rectangle 65889" width="29.281" height="38.938" fill="#9d8672"/>
    </clipPath>
  </defs>
  <g id="Group_149547" data-name="Group 149547" transform="translate(0 0)">
    <g id="Group_149546" data-name="Group 149546" transform="translate(0 0)" clip-path="url(#clip-path)">
      <path id="Path_5450" data-name="Path 5450" d="M14.691,21.119a8.968,8.968,0,0,0,2.6-.717,1.026,1.026,0,0,0,.473-1.254c-.169-.639-.651-.289-.986-.185a7.64,7.64,0,0,1-4.4.011c-.327-.089-.809-.509-.993.131a.979.979,0,0,0,.459,1.247,8.879,8.879,0,0,0,2.846.767m-.065,2.889c1.164,0,2.329.006,3.492,0,.39,0,.916.083.985-.443a2.878,2.878,0,0,0-.136-2.1c-.312-.435-.811-.014-1.2.153a7.589,7.589,0,0,1-6.19.037c-.39-.163-.865-.611-1.2-.219-.507.585-.246,1.386-.181,2.082.058.617.641.486,1.06.492,1.124.014,2.248,0,3.373,0M7.859,7.756c1.8-1.995,3.915-2.193,6.21-1.741a2.952,2.952,0,0,0,3.112-.743c.558-.688,1.052-.563,1.667-.231A8.858,8.858,0,0,1,21.5,7.416a3.305,3.305,0,0,0-2.357-3.5,4.462,4.462,0,0,1-2.229-1.3,4.386,4.386,0,0,0-4.534-1.191A10.813,10.813,0,0,0,7.49,4.6a.9.9,0,0,0-.232.985c.2.645.363,1.3.6,2.172M1.346,31.246c0,.241,0,.483,0,.724-.012,1.867.155,2.013,1.759,1.124a10.4,10.4,0,0,0,5.75-10.206c-.061-1.465-.207-1.627-1.53-1.044-4.077,1.8-5.73,5.154-5.979,9.4m26.576.33a10.1,10.1,0,0,0-.524-3.751,9.47,9.47,0,0,0-5.748-6.109c-.6-.219-1.064-.336-1.176.57A10.686,10.686,0,0,0,25.529,32.77c.653.381,1.428,1.042,2.072.728.766-.375.19-1.4.321-1.922M14.573,17.984A6.409,6.409,0,0,0,18.9,16.407a6.132,6.132,0,0,0,.287-9.58c-.334-.271-.7-.709-1.163-.388-1.767,1.232-3.672.863-5.6.615a4.485,4.485,0,0,0-4.71,4.293,7.016,7.016,0,0,0,6.851,6.636m.061,19.8q5.981,0,11.961,0c.576,0,1.331.167,1.327-.773,0-.823.369-1.771-.877-2.2a11.446,11.446,0,0,1-7.616-8.518,1.121,1.121,0,0,0-1.251-1c-2.336.014-4.672.018-7.007,0a1.138,1.138,0,0,0-1.274.986,11.592,11.592,0,0,1-7.728,8.575c-1.239.424-.79,1.435-.777,2.246.013.853.751.679,1.283.68,3.987.01,7.973,0,11.96.006m0,1.131c-4.349,0-8.7-.03-13.047.022C.435,38.95-.012,38.59.054,37.419c.16-2.849-.372-5.745.283-8.548C1.422,24.231,4.063,21,9,20.092A1.41,1.41,0,0,0,9.636,17.6c-2.616-2.314-3.431-5.219-3.221-8.584a5.823,5.823,0,0,0-.576-3.525.89.89,0,0,1,.092-.914c1.3-2.617,6.031-5.2,8.781-4.451a18.575,18.575,0,0,1,7.018,4.143c1.54,1.322,1.308,3.462,1.183,5.361-.177,2.688-.647,5.288-2.7,7.29-.533.519-1.2.892-1.158,1.846.036.775.223,1.219,1.042,1.29,4.388.386,8.342,4.315,9,9.558a69.912,69.912,0,0,1,.12,8.445c0,.9-.68.85-1.292.851H14.63" transform="translate(0 0)" fill="#9d8672"/>
      <path id="Path_5451" data-name="Path 5451" d="M12.9,26.782c-.8,0-1.608.042-2.407-.011-.92-.06-1.128.443-1.023,1.19.1.728-.472,1.851.978,1.864,1.645.016,3.291.007,4.935,0,.361,0,.715-.028.909-.437a1.689,1.689,0,0,0-1.586-2.607q-.9,0-1.805,0m.049-1.256c1.165,0,2.33-.007,3.494,0,.807.007,1.283.335,1.242,1.238-.04.881.013,1.767-.018,2.649a1.555,1.555,0,0,1-1.644,1.693c-2.048.036-4.1.023-6.144,0a1.6,1.6,0,0,1-1.615-1.356,2,2,0,0,1-.085-.472c-.058-4.134-.394-3.751,3.325-3.776.482,0,.964,0,1.446,0v.017" transform="translate(1.637 5.126)" fill="#9d8672"/>
    </g>
  </g>
</svg>
