<svg id="Group_149549" data-name="Group 149549" xmlns="http://www.w3.org/2000/svg" xmlns:xlink="http://www.w3.org/1999/xlink" width="33.336" height="38.071" viewBox="0 0 33.336 38.071">
  <defs>
    <clipPath id="clip-path">
      <rect id="Rectangle_65890" data-name="Rectangle 65890" width="33.336" height="38.071" fill="#9d8672"/>
    </clipPath>
  </defs>
  <g id="Group_149548" data-name="Group 149548" transform="translate(0 0)" clip-path="url(#clip-path)">
    <path id="Path_5452" data-name="Path 5452" d="M16.654,23.827h0c.283,0,.566,0,.85,0,.227,0,.385-.09.386-.344a.321.321,0,0,0-.354-.342q-.886-.014-1.773,0a.317.317,0,0,0-.349.345.313.313,0,0,0,.353.337c.3.005.591,0,.887,0m3.931,5.266a.477.477,0,0,0-.149.038c-.319.188-.635.381-.949.576-.126.079-.081.194-.038.3.132.333.275.661.4,1,.081.214.174.206.308.048.287-.34.583-.672.865-1.015.176-.214.555-.448.463-.65-.111-.245-.546-.184-.835-.275-.012,0-.025-.005-.065-.015m-7.861-.007c-.275.066-.55.132-.826.2-.173.042-.145.134-.054.238l1.327,1.548c.141.165.219.1.283-.07.079-.208.167-.412.25-.619.239-.588.242-.594-.305-.915a2.281,2.281,0,0,0-.674-.383m3.9,1.327c-.346-.135-.461.077-.566.35q-.428,1.106-.888,2.2a.454.454,0,0,0,.075.541c.4.452.8.908,1.187,1.379.181.221.291.186.455-.016.367-.451.746-.894,1.138-1.323a.526.526,0,0,0,.093-.637c-.291-.682-.571-1.371-.834-2.063-.122-.321-.246-.584-.66-.432m9.555-12.706c0,1.089,0,2.177,0,3.266,0,.278.089.411.386.4.432-.015.866.008,1.3-.007a1.458,1.458,0,0,0,1.478-1.49q.016-2.171,0-4.342a1.44,1.44,0,0,0-1.491-1.466c-.407-.007-.817.016-1.224-.007-.345-.019-.455.118-.449.453.015,1.064.005,2.127.005,3.191m-18.986.045h0c0-1.077-.009-2.155.007-3.232,0-.333-.093-.479-.443-.457-.4.022-.793,0-1.188.005a1.442,1.442,0,0,0-1.541,1.5q-.034,2.153,0,4.308a1.461,1.461,0,0,0,1.552,1.5c.4.007.793-.013,1.188.007.321.016.438-.1.434-.43-.015-1.064-.005-2.13-.005-3.194m18.415-7.364a8.845,8.845,0,0,0-8.956-8.107A8.75,8.75,0,0,0,7.888,9.938c1.75-3.619,4.612-5.762,8.726-5.769,4.335-.005,7.253,2.282,8.994,6.22M8.235,35.785q2.748,0,5.494,0c.094,0,.218.045.272-.058s-.065-.173-.124-.243q-2.256-2.637-4.514-5.27c-.124-.145-.237-.27-.468-.209-1.243.327-2.509.576-3.719,1.013a3.788,3.788,0,0,0-2.805,3.136,8.986,8.986,0,0,0-.03,1.149c0,.473.009.485.476.485q2.709,0,5.418,0m16.836,0h4.862c1.034,0,1.019,0,1.035-1.043a3.564,3.564,0,0,0-1.8-3.239,5.175,5.175,0,0,0-1.281-.578c-1.1-.336-2.221-.592-3.33-.89a.543.543,0,0,0-.64.2c-1.481,1.745-2.974,3.479-4.461,5.219-.067.078-.213.144-.145.268s.2.057.309.057q2.726.006,5.455,0M23.666,13.338l.122-.066A7.145,7.145,0,0,0,12.525,7.791a6.826,6.826,0,0,0-2.943,5.3c.6-.525,1.169-1.076,1.716-1.643a1.5,1.5,0,0,1,1.155-.481q4.049.018,8.1,0a1.64,1.64,0,0,1,1.282.538c.6.625,1.22,1.228,1.831,1.839M11.2,24.2l-.052.082c.1.134.2.271.313.4A16.338,16.338,0,0,0,14.075,27.1a3.908,3.908,0,0,0,5.147,0c.518-.4,1.026-.821,1.508-1.264a8.7,8.7,0,0,0,2.851-4.551,21.156,21.156,0,0,0,.19-4.366.535.535,0,0,0-.208-.381q-1.511-1.509-3.021-3.021a.706.706,0,0,0-.529-.225q-3.492,0-6.984,0a.66.66,0,0,0-.5.2q-1.386,1.4-2.78,2.788a.812.812,0,0,0-.237.636c.012,1,.017,2.005.021,3.009A8.093,8.093,0,0,0,9.7,21.214a.484.484,0,0,0,.456.447c.94.149,1.881.3,2.816.476a.508.508,0,0,0,.595-.221,2.492,2.492,0,0,1,1.869-1.075,12.464,12.464,0,0,1,2.483.008,2.67,2.67,0,0,1,.214,5.259,12.4,12.4,0,0,1-2.259.067,2.639,2.639,0,0,1-2.492-1.387.5.5,0,0,0-.365-.282c-.607-.1-1.214-.206-1.82-.309M15.463,0H17.99a17.734,17.734,0,0,1,1.849.386,11.186,11.186,0,0,1,8.124,10.845c0,.37.106.522.489.568a3.771,3.771,0,0,1,3.224,3.551q.052,2.358,0,4.718a3.792,3.792,0,0,1-3.47,3.6c-.867.067-1.733.025-2.6.046-.2,0-.4,0-.5.223a11.284,11.284,0,0,1-2.218,3.05c-.168.168-.116.238.094.282.291.059.579.134.866.206,1.689.432,3.408.767,5.052,1.35a6.083,6.083,0,0,1,4.234,4.45,12.507,12.507,0,0,1,.116,3.808c-.05.67-.527.993-1.29.993H1.384c-.927,0-1.358-.42-1.375-1.36q-.018-1.021,0-2.042a5.9,5.9,0,0,1,.6-2.656A6.534,6.534,0,0,1,4.65,28.735c1.83-.575,3.7-.987,5.565-1.446.391-.1.394-.108.122-.386a11.105,11.105,0,0,1-2.085-2.874.52.52,0,0,0-.522-.324c-.866-.012-1.732.025-2.6-.042a3.794,3.794,0,0,1-3.44-3.656c-.008-1.536,0-3.071,0-4.607a2.652,2.652,0,0,1,.04-.48,3.771,3.771,0,0,1,3.274-3.137.442.442,0,0,0,.442-.476c.037-.53.017-1.061.1-1.592a11.085,11.085,0,0,1,5.869-8.451A11.43,11.43,0,0,1,15.463,0" transform="translate(0 0)" fill="#9d8672"/>
  </g>
</svg>
