<?xml version="1.0" encoding="utf-8"?>
<!-- Generator: Adobe Illustrator 28.2.0, SVG Export Plug-In . SVG Version: 6.00 Build 0)  -->
<svg version="1.1" id="Layer_1" xmlns="http://www.w3.org/2000/svg" xmlns:xlink="http://www.w3.org/1999/xlink" x="0px" y="0px"
	 viewBox="0 0 22 22" style="enable-background:new 0 0 22 22;" xml:space="preserve">
<style type="text/css">
	.st0{fill:#FFE900;}
	.st1{fill:#191717;}
</style>
<g>
	<path id="Path_9" class="st0" d="M10,0.7c5.6-0.5,10.5,3.6,10.9,9.2c0,0,0,0,0,0.1c0.6,5.6-3.3,10.6-8.9,11.4
		c-5.6,0.5-10.5-3.6-10.9-9.2c0,0,0,0,0-0.1C0.4,6.5,4.4,1.4,10,0.7"/>
	<path id="Path_10" class="st1" d="M10.7,17.1c-1.9,0-3.8-0.8-5.2-2.1l0.4-0.4c1.8,1.8,4.4,2.4,6.8,1.6c2.2-0.8,3.6-2.8,4-5.5
		l0.5,0.1c-0.4,2.9-2,5-4.4,5.9C12.2,17,11.4,17.1,10.7,17.1"/>
	<path id="Path_11" class="st1" d="M5.4,13.4c0.4,0,0.8,0.3,0.8,0.8s-0.3,0.8-0.8,0.8c-0.4,0-0.8-0.3-0.8-0.8c0,0,0,0,0,0
		C4.6,13.7,5,13.4,5.4,13.4"/>
	<path id="Path_12" class="st1" d="M5.4,13.4c-0.4,0-0.7,0.4-0.7,0.8c0,0.4,0.3,0.7,0.7,0.7h0c0.4,0,0.7-0.4,0.7-0.8
		C6.1,13.7,5.8,13.4,5.4,13.4L5.4,13.4z M5.4,15L5.4,15c-0.5,0-0.8-0.4-0.8-0.8c0-0.4,0.4-0.8,0.8-0.8h0c0.4,0,0.8,0.4,0.8,0.8
		C6.2,14.6,5.8,14.9,5.4,15"/>
	<path id="Path_13" class="st1" d="M16.9,9.6c0.4,0,0.8,0.3,0.8,0.8c0,0.4-0.3,0.8-0.8,0.8c-0.4,0-0.8-0.3-0.8-0.8c0,0,0,0,0,0
		C16.1,10,16.4,9.6,16.9,9.6"/>
	<path id="Path_14" class="st1" d="M16.9,9.7c-0.4,0-0.7,0.4-0.7,0.8c0,0.4,0.3,0.7,0.7,0.7h0c0.4,0,0.7-0.4,0.7-0.8
		C17.6,10,17.3,9.7,16.9,9.7L16.9,9.7z M16.9,11.2L16.9,11.2c-0.5,0-0.8-0.4-0.8-0.8c0-0.4,0.4-0.7,0.8-0.8h0c0.4,0,0.8,0.4,0.8,0.8
		C17.6,10.9,17.3,11.2,16.9,11.2"/>
</g>
</svg>
