<?xml version="1.0" encoding="utf-8"?>
<!-- Generator: Adobe Illustrator 28.2.0, SVG Export Plug-In . SVG Version: 6.00 Build 0)  -->
<svg version="1.1" id="Layer_1" xmlns="http://www.w3.org/2000/svg" xmlns:xlink="http://www.w3.org/1999/xlink" x="0px" y="0px"
	 viewBox="0 0 100 100" style="enable-background:new 0 0 100 100;" xml:space="preserve">
<style type="text/css">
	.st0{clip-path:url(#SVGID_00000113336818474606323000000009730082882607039627_);}
	.st1{fill:#FCBF11;}
</style>
<g>
	<defs>
		<rect id="SVGID_1_" x="1" y="14" width="97.9" height="72"/>
	</defs>
	<clipPath id="SVGID_00000129177547066993144940000007775012694025997744_">
		<use xlink:href="#SVGID_1_"  style="overflow:visible;"/>
	</clipPath>
	
		<g id="Group_149492" transform="translate(0 0)" style="clip-path:url(#SVGID_00000129177547066993144940000007775012694025997744_);">
		<path id="Path_5336" class="st1" d="M50,81.8h9.6c2.5,0,2.4,0,2-2.5c-0.2-1.4-0.8-1.8-2.2-1.8c-6,0.1-12,0-18,0
			c-2.9,0-2.6-0.4-3.2,2.7c-0.2,1.2,0.2,1.5,1.3,1.5C43,81.8,46.5,81.8,50,81.8 M50,76h40.5c1.7,0,1.7,0,1-1.5
			c-1.1-2.1-2.2-4.2-3.2-6.4c-0.4-1.1-1.4-1.7-2.5-1.6c-6.4,0-12.9,0-19.3,0c-5.6,0-11.2,0.1-16.7,0c-7-0.1-14,0-21,0
			c-5.1,0-10.1,0-15.2,0c-0.6,0-1.1,0-1.4,0.6c-1.3,2.7-2.7,5.3-4,8c-0.3,0.6,0,0.8,0.5,0.8c0.4,0,0.8,0,1.1,0L50,76 M49.9,86H5.4
			c-0.5,0-0.9,0-1.4,0c-2.6-0.1-3.6-1.7-2.5-4c0.9-1.9,1.9-3.7,2.8-5.6c1.8-3.6,3.6-7.2,5.4-10.9c0.3-0.8,1.1-1.3,2-1.3
			c25.6,0,51.1,0,76.7,0c0.9-0.1,1.7,0.4,2,1.2c2.7,5.4,5.4,10.7,8,16.1c1.4,2.9,0.4,4.4-2.8,4.4C80.4,86,65.2,86,49.9,86"/>
		<path id="Path_5337" class="st1" d="M50,17.4c-11.6,0-23.2,0-34.8,0c-1.2,0-1.6,0.4-1.6,1.6c0,13,0,26,0,39.1
			c0,1.6,0.1,1.6,1.7,1.6c23.1,0,46.2,0,69.3,0c1.7,0,1.7,0,1.7-1.7c0-12.9,0-25.9,0-38.8c0-1.7,0-1.7-1.8-1.7L50,17.4z M50,63.1
			H12.2c-1.9,0-1.9,0-1.9-1.9V18.4c0-3.4,1-4.4,4.4-4.4c7,0,14.1,0,21.1,0h48.8c0.7,0,1.4,0,2,0.1c1.7,0,3.1,1.4,3.1,3.1
			c0,0.1,0,0.2,0,0.3c0,14.7,0,29.5,0,44.2c0,1.3-0.6,1.4-1.7,1.4c-10.7,0-21.5,0-32.2,0L50,63.1"/>
		<path id="Path_5338" class="st1" d="M49.9,75.6c-3.3,0-6.5,0-9.8,0c-0.7,0-1.8,0.5-1.7-0.9c0-1.5,0.2-1.7,1.9-1.7
			c5.7,0,11.3,0,17,0c1.1,0,2.1,0,3.2,0c1.3,0,1.1,1,1.2,1.8c0.1,1-0.6,0.8-1.2,0.8C56.9,75.6,53.4,75.6,49.9,75.6"/>
		<path id="Path_5339" class="st1" d="M47.2,69.6c-0.5,0-0.9,0-1.4,0c-1.5-0.1-1.7-0.4-1.5-1.9c0.1-0.5,0.3-0.8,0.8-0.8
			c1.3,0,2.6,0,3.9,0.1c1,0,0.7,0.9,0.8,1.4c0,0.6,0,1.1-0.8,1.1C48.4,69.6,47.8,69.6,47.2,69.6L47.2,69.6z"/>
		<path id="Path_5340" class="st1" d="M53.1,66.9c0.4,0,0.8,0,1.1,0c0.9,0,1.5,0.1,1.5,1.3c0,1.2-0.5,1.5-1.5,1.5
			c-1.1,0-2.1-0.1-3.2-0.1c-0.9,0-0.9-0.6-0.9-1.2c0-0.6-0.2-1.3,0.8-1.4C51.7,66.9,52.4,66.9,53.1,66.9L53.1,66.9z"/>
		<path id="Path_5341" class="st1" d="M11.4,75.6c-0.3,0-0.7,0-1,0c-0.5-0.1-1.2,0.4-1.5-0.4c-0.2-0.5,0.9-2.1,1.5-2.1
			c1.3-0.1,2.6,0,3.9,0c0.5,0,0.7,0.3,0.6,0.8c-0.3,1.2-0.9,2-2.3,1.8C12.1,75.6,11.8,75.6,11.4,75.6"/>
		<path id="Path_5342" class="st1" d="M88.5,75.6c-0.4,0-0.8,0-1.3,0c-1.1,0-2.1-0.8-2.1-2c0,0,0,0,0-0.1c0-0.6,0.4-0.6,0.8-0.6
			c1.2,0,2.4,0,3.5,0c0.9,0.4,1.6,1.2,1.8,2.2c-0.1,0.4-0.4,0.4-0.7,0.4C89.8,75.6,89.2,75.6,88.5,75.6L88.5,75.6z"/>
		<path id="Path_5343" class="st1" d="M47,72.6c-0.4,0-0.8,0-1.3,0c-1,0.1-1.5-0.2-1.5-1.3c0-1.1,0.5-1.4,1.5-1.3c1,0,1.9,0,2.8,0
			c1,0,1.3,0.4,1.3,1.4c0,0.9-0.3,1.3-1.3,1.2C48,72.5,47.5,72.6,47,72.6"/>
		<path id="Path_5344" class="st1" d="M53,72.6c-0.4,0-0.8,0-1.3,0c-0.9,0.1-1.5-0.1-1.5-1.3c0-1.2,0.6-1.4,1.6-1.4c1,0,1.9,0,2.9,0
			c1,0,1.1,0.6,1.1,1.3c0,0.8-0.1,1.3-1.1,1.3C54.1,72.5,53.5,72.6,53,72.6"/>
		<path id="Path_5345" class="st1" d="M64.9,75.6c-0.5,0-0.9,0-1.4,0c-1.1,0.1-1.5-0.5-1.5-1.5c0-1.2,0.8-1.1,1.5-1.1
			c0.8,0,1.5,0,2.3,0c1.3,0,1.8,0.6,1.7,1.9c0,0.5-0.2,0.7-0.7,0.7L64.9,75.6L64.9,75.6z"/>
		<path id="Path_5346" class="st1" d="M35.2,75.6c-0.4,0-0.8,0-1.1,0c-0.6-0.1-1.5,0.4-1.5-0.8c0-1.3,0.4-1.8,1.5-1.8c1,0,2,0,3.1,0
			c0.7,0,1,0.4,0.9,1.1s0.1,1.5-0.9,1.5C36.5,75.6,35.8,75.6,35.2,75.6L35.2,75.6z"/>
		<path id="Path_5347" class="st1" d="M23.3,75.6c-0.3,0-0.7,0-1,0c-0.5-0.1-1.4,0.4-1.5-0.6c-0.1-1,0.6-1.9,1.5-2
			c0.1,0,0.1,0,0.2,0c0.9,0,1.9,0,2.8,0c0.5,0,1.2-0.1,1.1,0.6c-0.1,0.7,0,1.8-1,1.9C24.7,75.6,24,75.6,23.3,75.6L23.3,75.6z"/>
		<path id="Path_5348" class="st1" d="M29.2,75.6c-0.4,0-0.8,0-1.1,0c-0.5-0.1-1.4,0.5-1.4-0.7c0-1.2,0.5-1.9,1.5-1.9c1,0,2,0,3,0
			c0.5,0,1.1,0,1,0.8c-0.1,0.7,0.2,1.7-0.9,1.8C30.6,75.6,29.9,75.6,29.2,75.6L29.2,75.6z"/>
		<path id="Path_5349" class="st1" d="M70.9,75.6c-0.6,0-1.2,0-1.8,0c-0.6,0.1-1.1-0.3-1.2-0.8c0,0,0-0.1,0-0.1
			c-0.3-1.4-0.1-1.6,1.4-1.6c0.9,0,1.8,0,2.7,0c0.6-0.1,1.1,0.3,1.2,0.9c0.5,1.5,0.4,1.8-1.2,1.8L70.9,75.6L70.9,75.6z"/>
		<path id="Path_5350" class="st1" d="M76.7,75.6c-0.4,0-0.8,0-1.1,0c-1.3,0.2-1.7-0.5-1.9-1.6c-0.1-0.7,0.1-1,0.7-1
			c1.2,0,2.4,0,3.6,0c0.7,0,1.6,1.7,1.3,2.3c-0.1,0.3-0.4,0.3-0.6,0.3C78,75.6,77.3,75.6,76.7,75.6L76.7,75.6z"/>
		<path id="Path_5351" class="st1" d="M82.6,75.6c-0.4,0-0.8,0-1.3,0c-1,0.1-1.9-0.7-1.9-1.7c0-0.1,0-0.2,0-0.3
			c0-0.5,0.3-0.7,0.7-0.7c1.2,0,2.4,0,3.6,0c0.7,0,1.7,1.5,1.5,2.2c-0.1,0.4-0.4,0.4-0.7,0.4C83.8,75.6,83.2,75.6,82.6,75.6
			L82.6,75.6z"/>
		<path id="Path_5352" class="st1" d="M17.4,75.6c-0.4,0-0.8,0-1.1,0c-0.5-0.1-1.4,0.4-1.4-0.5c0-0.8,0.2-1.9,1.4-2
			c1.2-0.1,2.5-0.1,3.7,0c0.4,0,0.8,0.2,0.7,0.7c-0.2,0.7-0.1,1.7-1.2,1.9C18.8,75.6,18.1,75.6,17.4,75.6L17.4,75.6z"/>
		<path id="Path_5353" class="st1" d="M85.9,69.6c-2.6,0-2.7-0.1-3.2-1.7c-0.2-0.7,0-1,0.7-1c0.8,0,1.5,0,2.3,0
			c1.2-0.1,2.3,0.8,2.5,2c0.1,0.5-0.1,0.7-0.6,0.7C87,69.6,86.5,69.6,85.9,69.6"/>
		<path id="Path_5354" class="st1" d="M14,69.6c-0.1,0-0.3,0-0.4,0c-0.6-0.2-1.6,0.5-1.8-0.6c-0.1-0.9,1.1-2.1,1.9-2.1
			c0.7-0.1,1.4-0.1,2,0c0.6,0.1,1.6-0.4,1.5,0.6c0,0.8-0.2,1.9-1.5,2.1C15.3,69.6,14.6,69.6,14,69.6L14,69.6"/>
		<path id="Path_5355" class="st1" d="M64,66.9c0.4,0,0.8,0,1.1,0c1.4-0.1,1.2,1,1.3,1.8c0.1,1.1-0.7,0.9-1.3,0.9
			c-0.8,0-1.7,0-2.5,0c-0.6,0.1-1.1-0.4-1.1-0.9c0,0,0,0,0,0c-0.3-1.4,0-1.8,1.4-1.8C63.3,66.9,63.6,66.9,64,66.9L64,66.9z"/>
		<path id="Path_5356" class="st1" d="M35.8,69.7c-0.3,0-0.5,0-0.8,0c-0.6-0.1-1.6,0.3-1.5-0.9c0.1-0.9,0.1-1.9,1.5-1.8
			c0.8,0.1,1.7,0,2.5,0c0.6,0,1,0.1,0.9,0.9c-0.1,0.7,0.2,1.6-0.8,1.8C37.1,69.7,36.4,69.7,35.8,69.7L35.8,69.7"/>
		<path id="Path_5357" class="st1" d="M58.5,69.6c-0.3,0-0.6,0-0.9,0c-1,0.1-1.5-0.2-1.5-1.3s0.4-1.4,1.4-1.3c0.8,0.1,1.7,0,2.5,0
			c0.5-0.1,0.9,0.3,1,0.8c0,0,0,0.1,0,0.1c0.2,1.6,0.1,1.8-1.6,1.8C59.2,69.6,58.8,69.6,58.5,69.6L58.5,69.6z"/>
		<path id="Path_5358" class="st1" d="M20.4,66.9c0.3,0,0.5,0,0.7,0c0.5,0.2,1.5-0.6,1.6,0.6c0.1,1-0.6,1.9-1.6,2c0,0-0.1,0-0.1,0
			c-0.7,0-1.4,0-2.2,0c-0.5,0-1.4,0.2-1.3-0.5c0.1-0.8,0.2-1.9,1.3-2.1C19.2,66.9,19.8,66.9,20.4,66.9"/>
		<path id="Path_5359" class="st1" d="M25.5,69.6c-0.3,0-0.7,0-1,0C23.9,69.5,23,70,22.8,69c-0.1-1,0.6-1.9,1.6-2.1
			c0.1,0,0.2,0,0.2,0c0.7,0,1.5,0,2.2,0c0.5,0,1.2-0.1,1.1,0.6s0.1,1.8-1.1,2C26.4,69.6,25.9,69.6,25.5,69.6"/>
		<path id="Path_5360" class="st1" d="M41.4,69.6c-0.4,0-0.8,0-1.1,0c-0.7-0.1-1.5,0.1-1.4-1.1c0.1-1,0.2-1.7,1.4-1.6
			c0.9,0,1.9,0.1,2.8,0.1c0.8,0,0.8,0.6,0.8,1.1c0,0.6,0.2,1.4-0.8,1.5C42.5,69.6,42,69.6,41.4,69.6L41.4,69.6z"/>
		<path id="Path_5361" class="st1" d="M87.1,72.6c-0.5,0-0.9,0-1.4,0c-1.1-0.1-1.9-1-1.9-2.1c0-0.5,0.4-0.5,0.7-0.5
			c1.1,0,2.3,0,3.4,0c0.7,0,1.7,1.5,1.7,2.1c0,0.4-0.3,0.4-0.6,0.4C88.4,72.6,87.8,72.6,87.1,72.6L87.1,72.6z"/>
		<path id="Path_5362" class="st1" d="M12.8,72.6c-0.3,0-0.5,0-0.8,0c-0.6-0.2-1.5,0.5-1.7-0.5c-0.2-0.8,1-2.1,1.9-2.1
			c0.8,0,1.6,0,2.4,0c0.5,0,1.3-0.3,1.4,0.6c0,0.9-0.6,1.8-1.5,2C14,72.6,13.4,72.5,12.8,72.6L12.8,72.6z"/>
		<path id="Path_5363" class="st1" d="M79.5,66.9c2.2-0.1,2.5,0.1,3,1.6c0.2,0.7,0.1,1.1-0.7,1.1c-0.8,0-1.6,0-2.4,0
			c-1.4,0-2-0.6-2.1-2c0-0.5,0.2-0.7,0.6-0.7C78.5,66.9,79,66.9,79.5,66.9"/>
		<path id="Path_5364" class="st1" d="M74.8,69.6c-2.3,0-2.6-0.2-2.8-1.8c-0.1-0.6,0.1-0.9,0.7-0.9c0.9,0,1.9,0,2.8,0
			c1,0.1,1.7,1,1.6,2c0,0,0,0.1,0,0.1c-0.1,1.1-1,0.6-1.6,0.7C75.4,69.7,75.1,69.7,74.8,69.6"/>
		<path id="Path_5365" class="st1" d="M41.1,72.6c-0.3,0-0.6,0-0.9,0c-0.6-0.1-1.5,0.4-1.5-0.9c0-1.1,0.2-1.8,1.5-1.8
			c0.8,0.1,1.7,0,2.5,0c1,0,1.2,0.6,1.2,1.4c0,0.8-0.2,1.3-1.2,1.2C42.2,72.5,41.6,72.6,41.1,72.6"/>
		<path id="Path_5366" class="st1" d="M58.8,72.6c-0.4,0-0.8,0-1.3,0c-0.9,0.1-1.4-0.2-1.4-1.2c0-1.1,0.4-1.5,1.4-1.4
			c0.9,0,1.8,0,2.7,0c0.5-0.1,1,0.3,1.1,0.8c0,0,0,0.1,0,0.1c0.2,1.5,0.1,1.6-1.3,1.7C59.6,72.6,59.2,72.6,58.8,72.6"/>
		<path id="Path_5367" class="st1" d="M35.4,72.6c-0.3,0-0.6,0-0.9,0C34,72.5,33.1,73,33,71.8c0-1.3,0.3-1.8,1.5-1.8
			c0.8,0,1.7,0,2.5,0c0.8,0,1.3,0.2,1.2,1.2c-0.1,0.8-0.1,1.6-1.2,1.5C36.5,72.6,36,72.6,35.4,72.6"/>
		<path id="Path_5368" class="st1" d="M64.4,72.6c-0.4,0-0.8,0-1.1,0c-1.2,0.2-1.5-0.5-1.5-1.6c0-1.2,0.8-1.1,1.6-1.1
			c0.7,0,1.4,0,2,0c1.3,0,1.9,0.7,1.7,2c0,0.3-0.3,0.6-0.6,0.6c0,0-0.1,0-0.1,0C65.7,72.5,65,72.5,64.4,72.6L64.4,72.6z"/>
		<path id="Path_5369" class="st1" d="M30.6,66.9c0.4,0,0.8,0,1.2,0.1c0.5,0.2,1.5-0.4,1.4,0.7c-0.1,0.9,0,1.9-1.4,1.9
			c-0.8,0.1-1.7,0-2.5,0c-0.4-0.1-1.2,0.2-1.1-0.6c0.1-0.7,0-1.7,1-2C29.7,66.9,30.1,66.9,30.6,66.9"/>
		<path id="Path_5370" class="st1" d="M70,72.6c-0.4,0-0.8,0-1.1,0c-0.9,0.1-1.6-0.5-1.7-1.4c0-0.2,0-0.5,0.1-0.7
			c0-0.3,0.3-0.5,0.6-0.5c1.2,0,2.4,0,3.7,0c0.3,0,0.6,0.2,0.7,0.5c0.8,1.4,0.4,2.1-1.2,2.1H70z"/>
		<path id="Path_5371" class="st1" d="M75.8,72.6c-0.5,0-0.9,0-1.4,0c-1-0.1-1.7-0.9-1.6-1.9c0-0.1,0-0.1,0-0.2
			c0.1-0.5,0.5-0.5,0.9-0.5c1,0,2,0,2.9,0c1,0.2,1.7,1.1,1.6,2.2c-0.1,0.4-0.4,0.4-0.7,0.4C77,72.6,76.4,72.6,75.8,72.6L75.8,72.6z"
			/>
		<path id="Path_5372" class="st1" d="M69.4,69.7c-0.4,0-0.8,0-1.3-0.1c-0.9-0.2-1.6-1.1-1.4-2c0-0.1,0-0.1,0-0.2
			c0.1-0.3,0.3-0.3,0.6-0.3c1.1-0.1,2.1-0.1,3.2-0.1c1.3,0.1,1.2,1.2,1.3,2c0.1,1-0.8,0.6-1.3,0.7C70.2,69.7,69.8,69.7,69.4,69.7"/>
		<path id="Path_5373" class="st1" d="M24.2,72.6c-0.3,0-0.6,0-0.9,0c-0.5-0.1-1.4,0.5-1.5-0.6c-0.1-1,0.6-1.9,1.5-2
			c0,0,0.1,0,0.1,0c0.8,0,1.7,0,2.5,0c0.5,0,1.3-0.2,1.2,0.7c-0.1,0.8,0,1.8-1.2,1.9C25.3,72.6,24.8,72.5,24.2,72.6L24.2,72.6z"/>
		<path id="Path_5374" class="st1" d="M29.9,72.6c-0.3,0-0.6,0-0.9,0c-0.6-0.1-1.5,0.5-1.6-0.7c-0.2-0.9,0.3-1.7,1.2-1.9
			c0.2,0,0.4-0.1,0.5,0c0.8,0,1.5,0,2.3,0c0.6,0,1.4-0.1,1.3,0.9c-0.1,0.8,0,1.8-1.3,1.7C30.9,72.5,30.4,72.6,29.9,72.6"/>
		<path id="Path_5375" class="st1" d="M81.3,72.6c-0.5,0-0.9,0-1.4,0c-1-0.2-1.7-1.1-1.6-2.1c0.1-0.5,0.5-0.5,0.8-0.5c1,0,2,0,3,0
			c1,0.2,1.7,1.1,1.7,2.1c0,0.4-0.3,0.5-0.6,0.5C82.6,72.6,82,72.6,81.3,72.6L81.3,72.6z"/>
		<path id="Path_5376" class="st1" d="M18.5,72.6c-0.3,0-0.5,0-0.8,0c-0.5-0.1-1.4,0.4-1.6-0.5c0-1,0.7-1.9,1.7-2.1
			c0.8,0,1.7,0,2.5,0c0.5,0,1.3-0.2,1.2,0.6c-0.1,0.8-0.1,1.8-1.2,2C19.8,72.6,19.1,72.6,18.5,72.6L18.5,72.6z"/>
	</g>
</g>
</svg>
