<?xml version="1.0" encoding="utf-8"?>
<!-- Generator: Adobe Illustrator 28.2.0, SVG Export Plug-In . SVG Version: 6.00 Build 0)  -->
<svg version="1.1" id="Layer_1" xmlns="http://www.w3.org/2000/svg" xmlns:xlink="http://www.w3.org/1999/xlink" x="0px" y="0px"
	 viewBox="0 0 100 100" style="enable-background:new 0 0 100 100;" xml:space="preserve">
<style type="text/css">
	.st0{clip-path:url(#SVGID_00000083050475185151536710000008627165592673895041_);}
	.st1{fill:#FCBF11;}
</style>
<g>
	<defs>
		<rect id="SVGID_1_" y="5.1" width="100" height="89.8"/>
	</defs>
	<clipPath id="SVGID_00000124868378614921347360000009541631263105475487_">
		<use xlink:href="#SVGID_1_"  style="overflow:visible;"/>
	</clipPath>
	
		<g id="Group_149496" transform="translate(0 0)" style="clip-path:url(#SVGID_00000124868378614921347360000009541631263105475487_);">
		<path id="Path_5379" class="st1" d="M86.7,48.4V51c-0.2,0.2-0.4,0.4-0.7,0.7c-2-4-5.4-3.4-8.7-3.4c-1.2,0-2.5,0.5-2.4-1.7
			c0.1-1.9,0.3-3.4,2.6-3.5c1.4,0,2.8,0,4.3,0c0.9,0.1,1.6-0.5,1.7-1.3c0-0.1,0-0.1,0-0.2c0.8-3.2,1.3-6.5,1.5-9.8
			c-0.6-6.9,0.8-14.2-2.9-20.7c0.2-0.2,0.3-0.3,0.4-0.3c4.2-0.1,4.2-0.1,4.2,4L86.7,48.4z M84.2,73.8V70
			C86.7,73.2,86.7,73.2,84.2,73.8 M79.3,84.6c-0.9,0.2-1.9,0.4-3.2,0.7c0.6-0.8,1.8-1,1.4-1.5c-0.7-0.8-1.8-1.3-1.3-2.7
			c-1.4-0.2-0.7-0.5-0.3-1.3c0.6-1.1-1-0.8-1.4-1.4c2.2-0.6,4.5-1.1,6.7-1.7c1-0.3,1.6-0.1,1.9,1.1C84.4,82.2,83.6,83.6,79.3,84.6
			 M79.6,88.8c-3,1-6.1,1.8-9.1,2.8c-1.2,0.4-1.6,0.1-2-1.1c-1.4-4.8-2.9-9.6-4.5-14.4c-0.4-1.2-0.1-1.8,1.1-2.1
			c3-0.9,5.9-1.7,8.8-2.8c1.4-0.5,1.9-0.1,2.2,1.2c0.1,0.6,0.3,1.2,0.6,1.8c0.9,1.6,0,2.1-1.4,2.3c-0.8,0.1-1.6,0.3-2.3,0.6
			c-1.4,0.4-3.3,0.1-3.9,2.1c-0.8,2.4,0.1,5,2.1,6.4c1,0.7,1.3,2.5,2.7,2.1c1.9-0.5,3.5-0.8,5-1.2c0.9-0.3,1.4-0.1,1.8,0.8
			C81.2,88.5,80.2,88.6,79.6,88.8 M65.9,93.1c-0.8,0.4-1.1-0.3-1.3-0.9c-1.6-5.1-3.2-10.2-4.8-15.3c-0.2-0.7-0.4-1.2,0.6-1.3
			c0.6-0.1,1.4-0.9,1.7,0.3c1.7,5.3,3.3,10.6,4.9,15.8C67.4,92.7,66.5,92.8,65.9,93.1 M54.1,34c-0.7-0.2-1.2-0.7-1.5-1.3
			c-0.6-0.8-0.7-1.9-0.2-2.7c0.1-0.2,0.5-0.4,0.6-0.3c0.9,0.6,0.7,1.6,0.8,2.4C53.9,32.6,54,33.2,54.1,34 M58.5,48.3
			c-3.1,0-6.5-0.5-8.8,2.5c-0.5,0.7-1.5,0.3-2.3,0.3c-4.4,0-8.9-0.1-13.3,0c-1.6,0.2-3.1-0.4-4.1-1.7c-1-1.1-2.1-2.1-3.4-3
			c-2-1.1-4.4-1.5-6.6-1.2c-2.1-0.1-3.7,2.1-3.9,4.5c-0.1,1-0.4,1.3-1.4,1.3c-3.5-0.1-7.1-0.1-10.6,0c-1.1,0-1.5-0.3-1.5-1.5
			c0-12.5,0-25,0-37.5c0-1.1,0.2-1.6,1.4-1.6c16.7,0,33.3,0,50.2,0c-2.4,5.5-2.4,11.1-3.1,16.7c-0.6,4.9,1.4,9.3,1.3,14.1
			c0,1.2,0.7,1.7,1.9,1.7c1.2-0.1,2.5,0,3.7,0c1.9,0,2.9,0.7,2.9,2.8C60.8,47.7,60.4,48.4,58.5,48.3 M41.2,58.8
			c-0.8,0.7-1.3,0.1-1.8-0.3c-1.9-1.5-3.9-3-6.4-5h13.9C44.7,55.6,42.9,57.2,41.2,58.8 M28.4,56.6c-2.8,3.3-4.1,3.1-8.5-1.3
			c1.5-0.7,1.8-2.3,2.5-3.6c0.3-0.4,0.8-0.2,1.1-0.5c0.3-1.3,3.1-0.8,1.9-3.2C30.8,52.1,31.2,53.3,28.4,56.6 M69.9,49.5
			c-2,0.2-4.1,0.1-6.1-0.4c-0.7-0.2-1.3-0.4-1.3-1.3c0-1.5-0.3-3,2.2-2.1c2.7,0.8,5.7,0.6,8.3-0.5C73.7,49.1,73.5,49.3,69.9,49.5
			 M56.8,25.6c4.7-0.5,9.1-2.3,12.9-5c2.5-2,3.5-2,4.9,0.8c0.8,1.5,2,2.7,3.5,3.6c2.3,1.1,3.3,3.8,2.3,6.1
			c-1.2,5.5-2.6,10.7-8.9,12.7c-1.2,0.3-2.5,0.5-3.7,0.6c-4.5,0.1-8.6-2.6-10.5-6.7c-1.4-3.4-2.2-6.9-2.5-10.5
			C54.7,25.6,55.9,25.7,56.8,25.6 M82.3,30.5c0.1-0.4,0.1-1,0.7-0.9c0.5,0.1,0.6,0.5,0.7,1c0.2,1.5-0.6,2.8-2,3.5
			C81.9,32.7,82,31.6,82.3,30.5 M98.4,72.3C95,66.6,91.5,60.8,88.1,55c-0.3-0.5-1.5-1.1-0.3-1.9c1.2-0.8,1-1.9,1-3.1
			c0-12.7,0-25.4,0-38.1c0-3.1-0.3-3.3-3.6-3.5c-2.1-0.1-4.3,0.8-6.2-0.7c-2.3-1.7-5.1-2.7-7.9-2.6c-4.6,0.1-9.5-0.8-13.6,2.1
			c-1.2,0.9-2.7,1.3-4.2,1.2c-16.7,0-33.4,0-50-0.1C1,8.4,0,9.3,0,11.7c0,12.9,0,25.7,0,38.6c0,2.3,1,3.2,3.2,3.2
			c3.5-0.1,6.9,0,10.4,0c0.7,0,1.5-0.3,2,0.4c3.7,4.7,9.6,6.4,14,10.1c2.5,2,5,4,7.5,5.9c2,2,5.2,2.1,7.2,0.1
			c0.1-0.1,0.3-0.3,0.4-0.4c2.2-2,4.4-4,6.9-6.4v19c0,7.3,0,7.4,7.3,7.3c2.3-0.1,3.6,0.4,3.9,2.9c0.3,2.5,1.9,3,4.2,2.2
			c4.3-1.5,8.8-2.8,13.1-4.1c1.5-0.5,3.2-1.4,3.3-2.8c0.3-3.1,2.6-3.2,4.7-3.7c2.1-0.6,4.2-1.3,6.3-1.9
			C100.2,80.5,101.4,77.4,98.4,72.3"/>
		<path id="Path_5380" class="st1" d="M23.4,51.2c-0.2,0.5-0.7,0.4-1.1,0.5c-0.4-0.3-1-0.4-1-1.2L23.4,51.2"/>
		<path id="Path_5381" class="st1" d="M66.5,41c-1.1,0.1-2.1-0.1-3.1-0.5c-0.6-0.4-1-0.8-0.7-1.5c0.4-0.9,0.9-0.5,1.5-0.2
			c1.4,0.8,3.1,0.8,4.6,0c0.5-0.3,1.1-0.9,1.5,0.1c0.3,0.7,0,1.2-0.6,1.5C68.7,40.9,67.6,41.1,66.5,41"/>
		<path id="Path_5382" class="st1" d="M66.5,35.8c-0.8,0-1.6-0.2-1.8-1.2c-0.4-1-0.3-2.1,0.3-3.1c0.1-0.2,0.9-0.2,0.9-0.1
			c0.5,1.4,1.4,2.6,2.4,3.7c0.2,0.3-0.5,0.6-0.9,0.7C67.1,35.8,66.8,35.8,66.5,35.8"/>
		<path id="Path_5383" class="st1" d="M59.1,27.6c1.2,0,1.7,0.7,1.7,1.5c0.1,0.8-0.5,1.6-1.3,1.7c-0.1,0-0.2,0-0.3,0
			c-0.8,0-1.5-0.7-1.5-1.5c0-0.1,0-0.2,0-0.3C57.7,28.3,58.4,27.6,59.1,27.6"/>
		<path id="Path_5384" class="st1" d="M75.3,29.3c-0.2,1-0.7,1.7-1.8,1.5c-0.9-0.1-1.5-0.9-1.4-1.8c0.1-0.9,0.9-1.5,1.8-1.4
			C74.9,27.8,75.2,28.5,75.3,29.3"/>
	</g>
</g>
</svg>
