<?xml version="1.0" encoding="utf-8"?>
<!-- Generator: Adobe Illustrator 28.2.0, SVG Export Plug-In . SVG Version: 6.00 Build 0)  -->
<svg version="1.1" id="Layer_1" xmlns="http://www.w3.org/2000/svg" xmlns:xlink="http://www.w3.org/1999/xlink" x="0px" y="0px"
	 viewBox="0 0 100 100" style="enable-background:new 0 0 100 100;" xml:space="preserve">
<style type="text/css">
	.st0{clip-path:url(#SVGID_00000160170841472683148240000006588670221361258899_);}
	.st1{fill:#FCBF11;}
</style>
<g id="Group_149491" transform="translate(0 0)">
	<g>
		<defs>
			<rect id="SVGID_1_" x="1" y="1" width="98" height="98"/>
		</defs>
		<clipPath id="SVGID_00000137823284869335652420000010125867053185729439_">
			<use xlink:href="#SVGID_1_"  style="overflow:visible;"/>
		</clipPath>
		
			<g id="Group_149490" transform="translate(0 0)" style="clip-path:url(#SVGID_00000137823284869335652420000010125867053185729439_);">
			<path id="Path_5326" class="st1" d="M26.8,1c1.9,0.3,3.7,0.8,5.5,1.5c7.6,2.9,13,9.7,14.3,17.8c0.2,1.1-0.3,1.9-1.2,2
				c-0.9,0.1-1.6-0.4-1.8-1.5c-0.9-5.7-4.2-10.7-9-13.7C25.3,1.2,13,3.9,7.1,13.2s-3.1,21.6,6.1,27.5c2.3,1.4,4.8,2.4,7.4,2.8
				c1,0.2,2,0.3,2.9,0.3c0.9-0.1,1.7,0.5,1.8,1.3c0.1,0.9-0.5,1.7-1.3,1.8c-0.2,0-0.4,0-0.5,0c-5.6-0.1-11-2.3-15.2-6.1
				c-4-3.6-6.6-8.5-7.2-13.8c0-0.1-0.1-0.2-0.1-0.4v-5.5c0-0.2,0.1-0.3,0.1-0.5C2.1,13.9,6,7.9,11.7,4.4c2.8-1.8,6-2.9,9.3-3.4H26.8
				z"/>
			<path id="Path_5327" class="st1" d="M78.8,1c3.6,0.5,7,1.8,10,3.8c7.1,4.6,11,12.9,10.1,21.3c-1,10.7-9.3,19.3-19.9,20.6
				c-0.9,0.1-1.7,0.2-2.6,0.2c-1.2,0-1.9-0.6-1.9-1.5c0-0.9,0.7-1.6,1.9-1.6c4.7,0,9.2-1.8,12.7-4.9c4-3.4,6.5-8.3,6.8-13.5
				C96.7,14.4,88.5,4.9,77.5,4c-10-0.8-19,6-21,15.9c-0.1,0.3-0.1,0.7-0.2,1c-0.1,0.9-0.8,1.5-1.7,1.4c0,0-0.1,0-0.1,0
				c-0.8-0.1-1.4-0.9-1.3-1.7c0-0.1,0-0.1,0.1-0.2c1.2-8.3,7-15.3,14.9-18.1c1.6-0.5,3.2-1,4.9-1.3H78.8z"/>
			<path id="Path_5328" class="st1" d="M1,73.3c0.5-3.5,1.7-6.8,3.6-9.8c3.6-5.6,9.5-9.4,16.2-10.3c0.9-0.1,1.8-0.2,2.7-0.2
				c1.2,0,2,0.6,2,1.6c0,1-0.7,1.5-1.9,1.6c-5.3,0-10.4,2.3-14,6.2C6.3,65.7,4.4,70,4.1,74.6C3.4,84.4,10,93.3,19.7,95.5
				c10.8,2.3,21.4-4.6,23.7-15.4c0,0,0-0.1,0-0.1c0.1-0.4,0.1-0.8,0.2-1.2c0.2-0.8,1-1.3,1.8-1.2c0.8,0.1,1.4,0.9,1.2,1.7
				c0,0,0,0,0,0c-0.6,4.4-2.6,8.6-5.6,11.9c-3.8,4.4-9.1,7.1-14.9,7.6c-11.8,1.2-22.5-6.8-24.9-18.4c-0.1-0.6-0.2-1.1-0.3-1.7V73.3z
				"/>
			<path id="Path_5329" class="st1" d="M32.9,62.5c2.6-0.1,5.2-0.6,7.7-1.5c0.6-0.1,1-0.6,0.9-1.2c0,0,0-0.1,0-0.1
				c-0.2-1.3-0.3-2.6-0.4-3.9c0-0.4-0.3-0.7-0.6-0.9c-1.1-0.8-2.2-1.5-3.2-2.3c-0.5-0.4-0.8-0.3-1.2,0.1c-1.4,1.2-2.7,2.6-3.9,4
				c-0.9,1-1.6,2.2-2.1,3.5c-0.4,1.3-0.1,1.9,1.3,2.2C31.8,62.5,32.4,62.5,32.9,62.5 M70.1,39.5c0-1.1-0.5-1.6-1.8-1.7
				c-3.2-0.1-6.4,0.4-9.3,1.6c-0.4,0.1-0.5,0.4-0.4,0.8c0.2,1.4,0.3,2.8,0.4,4.3c0,0.4,0.2,0.7,0.5,0.9c1.2,0.8,2.3,1.7,3.5,2.5
				c0.3,0.2,0.5,0.3,0.8,0c2.2-1.9,4.2-4.1,5.7-6.6C69.8,40.7,70,40.1,70.1,39.5 M66.9,62.5c0.4,0,0.8,0,1.2,0
				c1.9-0.1,2.4-1,1.7-2.7c-0.2-0.4-0.4-0.8-0.6-1.2c-1.5-2.3-3.3-4.3-5.4-6.1c-0.4-0.4-0.7-0.2-1,0.1c-1.1,0.8-2.2,1.6-3.2,2.3
				c-0.4,0.2-0.6,0.7-0.6,1.1c-0.1,1.4-0.2,2.7-0.4,4.1c-0.1,0.5,0.1,0.7,0.5,0.8C61.5,61.8,64.2,62.4,66.9,62.5 M54.9,37
				c-0.5-2.9-1.4-5.6-2.8-8.2c-1.5-2.4-2.7-2.4-4.1,0c-1.4,2.5-2.3,5.3-2.8,8.1c-0.1,0.5,0.1,0.7,0.5,0.9c1.3,0.5,2.5,1.1,3.7,1.7
				c0.3,0.2,0.7,0.2,1.1,0c1.3-0.6,2.5-1.2,3.8-1.7C54.7,37.7,54.9,37.4,54.9,37 M33.2,37.7c-0.8,0-1.5,0-2.3,0.2
				c-0.7,0.1-1.2,0.8-1,1.5c0,0,0,0,0,0.1c0.1,0.8,0.5,1.7,1,2.4c1.5,2.2,3.3,4.2,5.3,5.9c0.4,0.3,0.6,0.3,1,0
				c1.1-0.8,2.3-1.6,3.4-2.5c0.2-0.2,0.5-0.3,0.5-0.7c0.1-1.5,0.3-3,0.4-4.5c0.1-0.4-0.2-0.8-0.6-0.8C38.4,38.4,35.8,37.9,33.2,37.7
				 M50.1,73.2c0.7-0.1,1.2-0.5,1.5-1.1c1.7-2.7,2.8-5.7,3.2-8.8c0.1-0.4-0.1-0.8-0.5-0.9c0,0,0,0,0,0c-1.3-0.6-2.6-1.1-3.8-1.7
				c-0.3-0.2-0.7-0.1-1,0c-1.2,0.6-2.5,1.2-3.7,1.7c-0.5,0.2-0.7,0.5-0.5,1c0.3,1.3,0.6,2.5,1,3.8c0.5,1.8,1.3,3.5,2.4,5.1
				C48.9,72.8,49.4,73.2,50.1,73.2 M56,50.2L56,50.2c0-0.9,0-1.8,0-2.8c0.1-0.5-0.2-0.9-0.6-1.1c-1.6-0.9-3.2-1.8-4.8-2.8
				c-0.3-0.2-0.8-0.2-1.2,0c-1.6,0.9-3.2,1.9-4.8,2.8c-0.4,0.2-0.6,0.6-0.6,1.1c0,1.8,0,3.6,0,5.4c0,0.5,0.2,0.9,0.7,1.2
				c1.6,0.9,3.2,1.8,4.7,2.7c0.4,0.2,0.9,0.2,1.2,0c1.4-0.8,2.8-1.7,4.2-2.4c0.8-0.3,1.3-1.2,1.1-2.1C56,51.5,56,50.9,56,50.2
				 M33.1,34.6c2.6,0.1,5.3,0.6,7.8,1.5c1.3,0.4,1.3,0.4,1.6-0.9c0.5-2.8,1.5-5.4,2.9-7.9c0.5-0.9,1.2-1.7,2-2.3
				c1.7-1.5,4.2-1.4,5.8,0.2c1.4,1.4,2.4,3,3.1,4.9c0.7,1.7,1.2,3.4,1.5,5.2c0.2,1.1,0.3,1.2,1.4,0.8c2.8-1,5.7-1.5,8.7-1.5
				c0.9,0,1.8,0.2,2.6,0.5c2.3,0.7,3.5,3.2,2.8,5.5c0,0.1-0.1,0.3-0.2,0.4c-0.8,2.2-2.1,4.2-3.8,5.8c-0.8,0.9-1.7,1.8-2.7,2.6
				c-0.6,0.5-0.7,0.8,0,1.4c2,1.7,3.7,3.7,5.2,5.8c0.7,1,1.2,2.2,1.5,3.4c0.6,2.3-0.8,4.6-3,5.2c-0.1,0-0.1,0-0.2,0
				c-2.3,0.5-4.6,0.5-6.9-0.1c-1.4-0.3-2.8-0.6-4.1-1.1c-0.8-0.3-1.1,0-1.2,0.7c-0.4,2-1,4-1.8,5.9c-0.6,1.6-1.5,3-2.7,4.2
				c-1.6,1.7-4.3,1.8-6,0.2c-0.1-0.1-0.2-0.2-0.2-0.2c-1.4-1.5-2.5-3.2-3.1-5.2c-0.6-1.6-1.1-3.2-1.4-4.9c-0.2-1.1-0.3-1.2-1.4-0.8
				c-2.7,1-5.6,1.5-8.4,1.5c-1.1,0-2.2-0.2-3.2-0.6c-2-0.8-3.1-3-2.5-5.1c0.7-2.4,2-4.6,3.8-6.3c0.9-1,1.8-1.9,2.8-2.8
				c0.6-0.5,0.7-0.8,0-1.5c-2-1.7-3.7-3.6-5.1-5.8c-0.9-1.3-1.5-2.8-1.6-4.3c-0.1-1.8,1-3.5,2.8-4.1C30.7,34.7,31.9,34.5,33.1,34.6"
				/>
			<path id="Path_5330" class="st1" d="M98.9,76C98.9,88.7,88.7,99,76,99c-11.3,0-21-8.3-22.7-19.5c-0.2-1.1,0.3-1.8,1.2-2
				c0.8-0.2,1.7,0.4,1.8,1.2c0,0.1,0,0.2,0,0.2c1,7.1,5.9,13.1,12.7,15.6c10.3,3.8,21.7-1.5,25.5-11.8c3.8-10.3-1.5-21.7-11.8-25.5
				c-1.2-0.4-2.4-0.8-3.6-1c-0.9-0.2-1.9-0.3-2.8-0.3c-1.2,0-1.9-0.6-1.9-1.5c0-1,0.8-1.6,2-1.6c11.6,0.3,21.2,9.1,22.4,20.7
				C99,74.4,99,75.2,98.9,76"/>
			<path id="Path_5331" class="st1" d="M81,75.2l-2.3,8c-0.1,0.5-0.3,1-0.4,1.5c-0.2,0.8-1,1.4-1.8,1.4c-0.9,0-1.7-0.6-1.9-1.5
				l-2.1-7.1c-0.2-0.8-0.5-1.6-0.8-2.6c-0.4,2.4-0.8,4.5-1.2,6.6c-0.2,1-0.4,2.1-0.6,3.1c-0.1,0.9-0.8,1.5-1.6,1.4
				c-0.9-0.1-1.5-0.8-1.4-1.6c0-0.1,0-0.2,0.1-0.3c0.8-4.8,1.7-9.6,2.6-14.5c0.2-1.2,0.8-1.8,1.8-1.8c1-0.1,1.7,0.4,2,1.6
				c0.9,3,1.8,6.1,2.7,9.1c0.1,0.3,0.2,0.7,0.3,1.1c0.3-0.2,0.3-0.4,0.4-0.6c0.9-3.1,1.8-6.2,2.7-9.4c0.4-1.3,1-1.9,2.1-1.8
				c1,0.1,1.6,0.7,1.8,2c0.9,4.6,1.8,9.1,2.6,13.7c0.1,0.3,0.1,0.6,0.1,0.9c0.1,0.8-0.5,1.6-1.3,1.7c-0.8,0.1-1.5-0.4-1.7-1.2
				c-0.4-2-0.8-4-1.2-6c-0.2-1.2-0.5-2.4-0.7-3.5L81,75.2"/>
			<path id="Path_5332" class="st1" d="M24.3,33.3c-2.3,0-4.5-1-6.2-2.6c-0.7-0.5-0.9-1.5-0.3-2.3c0,0,0.1-0.1,0.1-0.1
				c0.6-0.7,1.5-0.7,2.3,0.1c1.2,1.1,2.7,1.7,4.4,1.7c0.7,0,1.4-0.2,2-0.7c0.9-0.5,1.2-1.7,0.7-2.6c-0.2-0.3-0.4-0.6-0.7-0.7
				c-0.4-0.3-0.9-0.5-1.4-0.7c-1.3-0.6-2.7-1.1-4-1.6c-2.4-0.9-3.5-3.6-2.6-6c0.3-0.9,0.9-1.6,1.7-2.1c1.8-1.3,4.2-1.6,6.3-0.8
				c0.9,0.3,1.8,0.7,2.6,1.3c0.8,0.4,1.1,1.4,0.7,2.2c0,0,0,0.1-0.1,0.1c-0.5,0.7-1.5,0.9-2.2,0.4c-0.1,0-0.1-0.1-0.2-0.1
				c-1.3-1-2.9-1.4-4.5-1c-0.4,0.1-0.8,0.3-1.1,0.7c-0.6,0.5-0.7,1.5-0.1,2.1c0.2,0.2,0.4,0.3,0.6,0.4c1.4,0.6,2.8,1.1,4.2,1.7
				c0.7,0.3,1.3,0.6,1.9,1.1c2.3,1.5,2.8,4.6,1.3,6.9c-0.3,0.4-0.7,0.8-1.1,1.2C27.3,32.8,25.8,33.3,24.3,33.3"/>
			<path id="Path_5333" class="st1" d="M18.9,76.8c0-2.4,0-4.8,0-7.3c0-1.3,0.5-1.8,1.8-1.8c1.9,0,3.9,0,5.8,0
				c0.9-0.1,1.7,0.5,1.8,1.4c0,0,0,0.1,0,0.1c0,0.9-0.8,1.6-1.7,1.6c0,0-0.1,0-0.1,0c-1.2,0-2.5,0-3.7,0c-0.6,0-0.9,0.2-0.9,0.9
				c0,0.9,0,1.8,0,2.8c0,0.7,0.3,0.9,0.9,0.9c1.1,0,2.2,0,3.3,0c0.8-0.1,1.6,0.5,1.7,1.3c0,0,0,0,0,0c0.1,0.8-0.4,1.5-1.2,1.7
				c-0.1,0-0.2,0-0.2,0c-1.2,0.1-2.4,0.1-3.5,0.1c-0.7,0-1,0.2-1,0.9c0,0.9,0,1.7,0,2.6c0,0.7,0.3,0.9,0.9,0.9c1.1,0,2.1,0,3.2,0
				c0.4,0,0.8,0,1.2,0.1c0.7,0.1,1.2,0.8,1.1,1.5c0,0.8-0.6,1.4-1.3,1.4c-2.3,0.1-4.5,0.1-6.8,0c-0.9,0-1.3-0.6-1.3-1.7
				C18.9,81.7,18.9,79.3,18.9,76.8"/>
			<path id="Path_5334" class="st1" d="M74.6,24.8v-6c0-1.3,0-1.3-1.3-1.3c-0.4,0-0.8,0-1.2,0c-1.1,0-1.7-0.6-1.7-1.5
				c0-0.8,0.6-1.5,1.4-1.6c0.1,0,0.2,0,0.2,0c1.5,0,2.9,0,4.4,0c1.2,0,2.5,0,3.7,0c1.2,0,1.8,0.6,1.8,1.6c0,1-0.7,1.5-1.8,1.5
				c-2.4,0.1-2.4,0.1-2.4,2.4c0,3.5,0,7.1,0,10.6c0,0.3,0,0.6,0,0.9c0,0.9-0.7,1.7-1.6,1.7c-0.9-0.1-1.6-0.8-1.5-1.7c0,0,0,0,0,0
				C74.6,29.2,74.6,27,74.6,24.8L74.6,24.8z"/>
			<path id="Path_5335" class="st1" d="M51.5,49.9c0,0.8-0.7,1.5-1.5,1.6c-0.9,0-1.6-0.7-1.6-1.6c0-0.9,0.7-1.5,1.6-1.5
				C50.8,48.4,51.5,49.1,51.5,49.9L51.5,49.9"/>
		</g>
	</g>
</g>
</svg>
