<?xml version="1.0" encoding="utf-8"?>
<!-- Generator: Adobe Illustrator 28.2.0, SVG Export Plug-In . SVG Version: 6.00 Build 0)  -->
<svg version="1.1" id="Layer_1" xmlns="http://www.w3.org/2000/svg" xmlns:xlink="http://www.w3.org/1999/xlink" x="0px" y="0px"
	 viewBox="0 0 100 100" style="enable-background:new 0 0 100 100;" xml:space="preserve">
<style type="text/css">
	.st0{clip-path:url(#SVGID_00000039103833209990521300000006036056964554943144_);}
	.st1{fill:#FCBF11;}
</style>
<g>
	<defs>
		<rect id="SVGID_1_" x="1" y="0.8" width="98" height="98.5"/>
	</defs>
	<clipPath id="SVGID_00000174569026685649151580000010875545047274596751_">
		<use xlink:href="#SVGID_1_"  style="overflow:visible;"/>
	</clipPath>
	
		<g id="Group_149498" transform="translate(0 0)" style="clip-path:url(#SVGID_00000174569026685649151580000010875545047274596751_);">
		<path id="Path_5385" class="st1" d="M66.2,41.9c2.2,0.1,4-1.6,4-3.7c0,0,0,0,0-0.1c-0.1-2.1-1.7-3.7-3.8-3.9
			c-2-0.1-3.8,1.4-3.9,3.4c0,0.1,0,0.3,0,0.4c-0.2,2,1.3,3.7,3.3,3.8C65.9,41.9,66,41.9,66.2,41.9 M33.7,34.1
			c-2.1,0.1-3.7,1.7-3.9,3.8c0,2.2,1.7,3.9,3.8,3.9c0,0,0.1,0,0.1,0c2,0.1,3.7-1.4,3.8-3.4c0-0.2,0-0.4,0-0.6c0-2-1.5-3.7-3.6-3.7
			C33.8,34.1,33.8,34.1,33.7,34.1 M50,42.9c3.1,0.2,5.7-2.2,5.9-5.3c0-0.2,0-0.4,0-0.6c0-3.2-2.6-5.9-5.8-5.9
			c-3.2,0-5.9,2.6-5.9,5.8c-0.2,3.1,2,5.8,5.1,6C49.5,42.9,49.7,42.9,50,42.9 M73.2,54.7c0.1-1.7-0.1-3.5-0.5-5.1
			c-1-3.5-4.6-5.6-8.1-4.7c-1.1,0.3-2.2,0.9-3,1.8c-0.9,0.7-1.2,1.9-0.5,2.9c1.2,2.2,1.7,4.7,1.6,7.2c-0.1,3.6,0.8,4.3,4.4,4
			c0.5,0,1-0.2,1.5-0.3C73.2,59.8,73.2,59.8,73.2,54.7 M26.8,54.9c0,1.1,0,2.2,0,3.3c-0.1,0.9,0.5,1.7,1.4,1.8
			c2.2,0.6,4.4,0.8,6.6,0.7c1.9-0.2,2.8-1,2.6-3c-0.4-2.8,0.2-5.7,1.6-8.2c0.7-1.2,0.2-2-0.7-2.9c-2.6-2.6-6.8-2.5-9.4,0.1
			c-0.8,0.8-1.3,1.7-1.6,2.8C26.8,51.2,26.6,53.1,26.8,54.9 M40.1,60L40.1,60c0,1.8,0.1,3.5,0,5.2c-0.2,1.3,0.7,2.4,1.9,2.6
			c0,0,0.1,0,0.1,0c5.2,1.3,10.6,1.3,15.7,0c1.3-0.2,2.3-1.4,2.1-2.7c0,0,0-0.1,0-0.1c-0.1-3,0-6,0-9c0.3-5.5-4-10.1-9.4-10.4
			c-5.5-0.3-10.1,4-10.4,9.4c0,0.3,0,0.5,0,0.8C40.1,57.3,40.1,58.6,40.1,60 M24.4,55c-0.3-4.3,0-8.4,3.8-11.3c1.3-1,0-2-0.4-2.8
			c-1.6-3.3-0.2-7.3,3.1-8.9c0.2-0.1,0.3-0.2,0.5-0.2c3.3-1.2,7.1,0.5,8.3,3.8c0.1,0.2,0.1,0.4,0.2,0.5c0.6,1.9,0.3,3.9-0.8,5.5
			c-1.7,2.4,1,2.7,1.9,3.7c1.2,1.2,2.3-0.3,3.1-1c0.7-0.7-0.5-1.2-0.9-1.8c-3-3.8-2.4-9.3,1.4-12.3c0.8-0.6,1.7-1.1,2.6-1.4
			c3.6-1.2,7.5,0.2,9.7,3.3c2.2,3.1,2.1,7.3-0.2,10.3c-0.4,0.6-2.1,1.2-0.6,2.3c1.1,0.8,2,1.6,3.4,0.2c1.2-1.3,2.2-2,0.9-4
			c-1.5-2.7-0.9-6,1.5-7.9c2.7-2.3,6.8-2,9.1,0.7c1.6,1.9,2,4.5,1,6.8c-1.1,1.4-0.8,3.3,0.6,4.4C72.9,44.9,73,45,73,45
			c1.7,1.5,2.7,3.7,2.6,6c0,2.8-0.1,5.5,0,8.3c0.2,1.5-0.8,2.8-2.3,3c0,0,0,0,0,0c-2.6,0.8-5.4,1-8.1,0.8c-1.9-0.1-2.9,0.4-2.6,2.5
			c0.5,3-1,4.1-3.7,4.7c-6.1,1.6-12.4,1.5-18.4-0.2c-2.3-0.6-3.5-1.7-3.1-4.2c0.4-2.3-0.6-3.1-2.9-2.9c-2.5,0.2-5-0.1-7.4-0.7
			c-1.9-0.4-2.9-1.4-2.7-3.5C24.5,57.7,24.4,56.4,24.4,55"/>
		<path id="Path_5386" class="st1" d="M23.4,80.3c0-2-1.6-3.6-3.6-3.7c-0.1,0-0.2,0-0.3,0c-1.9,0-3.5,1.7-3.4,3.6c0,0.1,0,0.1,0,0.2
			c-0.1,1.8,1.3,3.4,3.2,3.5c0.2,0,0.3,0,0.5,0c1.9,0,3.5-1.5,3.6-3.4C23.4,80.5,23.4,80.4,23.4,80.3 M19.7,73.9
			c3.5,0.1,6.3,2.8,6.4,6.3c0,3.5-2.7,6.4-6.2,6.5c-3.4,0.2-6.3-2.5-6.5-5.9c0-0.2,0-0.3,0-0.5C13.5,76.8,16.3,74,19.7,73.9"/>
		<path id="Path_5387" class="st1" d="M80.3,84c1.8,0.1,3.4-1.3,3.5-3.2c0-0.2,0-0.3,0-0.5c0.1-1.9-1.4-3.5-3.3-3.6
			c-0.1,0-0.2,0-0.2,0c-2,0-3.6,1.5-3.7,3.5c0,0.1,0,0.2,0,0.3c0,1.9,1.6,3.5,3.5,3.5C80.2,84,80.2,84,80.3,84 M86.5,80.4
			c0,3.4-2.7,6.2-6.1,6.3c-0.1,0-0.2,0-0.2,0c-3.5,0-6.3-2.8-6.4-6.3c0-3.6,3-6.5,6.5-6.5C83.8,74,86.6,76.9,86.5,80.4"/>
		<path id="Path_5388" class="st1" d="M53.8,92.9c0-2.1-1.7-3.8-3.8-3.8c-2.1,0-3.8,1.7-3.8,3.8c0,0.1,0,0.1,0,0.2
			c0.2,2.1,2.1,3.6,4.2,3.4C52.2,96.3,53.7,94.8,53.8,92.9 M50,99.2c-3.5,0-6.4-2.8-6.4-6.3c-0.1-3.5,2.7-6.5,6.3-6.6
			c3.5-0.1,6.5,2.7,6.6,6.3c0,0.1,0,0.2,0,0.2C56.4,96.5,53.5,99.3,50,99.2"/>
		<path id="Path_5389" class="st1" d="M19.7,16c-1.8-0.1-3.4,1.3-3.5,3.1c0,0.2,0,0.3,0,0.5c-0.1,1.9,1.4,3.5,3.4,3.6
			c0.1,0,0.1,0,0.2,0c2,0,3.6-1.6,3.7-3.6c0-0.1,0-0.2,0-0.3c0-1.9-1.6-3.5-3.5-3.4C19.8,16,19.7,16,19.7,16 M13.5,19.6
			c-0.1-3.4,2.7-6.2,6.1-6.3c0.1,0,0.2,0,0.3,0c3.5,0,6.3,2.8,6.4,6.3c-0.1,3.6-3,6.4-6.5,6.5C16.2,25.9,13.4,23,13.5,19.6"/>
		<path id="Path_5390" class="st1" d="M80.3,16c-1.9-0.2-3.6,1.3-3.8,3.2c0,0.1,0,0.2,0,0.2c-0.1,2,1.4,3.7,3.4,3.8
			c0.1,0,0.2,0,0.3,0c1.9,0.1,3.5-1.5,3.6-3.4c0-0.1,0-0.1,0-0.2c0.2-1.8-1.1-3.5-3-3.7C80.7,16,80.5,16,80.3,16 M80.2,13.3
			c3.4-0.1,6.3,2.6,6.3,6c0,0.1,0,0.2,0,0.3c0.1,3.6-2.8,6.5-6.3,6.5c0,0-0.1,0-0.1,0c-3.5-0.2-6.2-3-6.3-6.5
			C73.9,16.1,76.7,13.3,80.2,13.3"/>
		<path id="Path_5391" class="st1" d="M53.8,6.9c-0.2-2.1-2-3.6-4.1-3.4c-1.9,0.2-3.3,1.7-3.4,3.5c0,2.1,1.7,3.8,3.8,3.7
			C52.1,10.7,53.8,9,53.8,6.9L53.8,6.9 M50.1,0.8c3.5,0,6.4,2.8,6.4,6.3c0,0,0,0,0,0c-0.1,3.5-2.9,6.3-6.4,6.5
			c-3.6-0.1-6.4-3-6.5-6.6C43.7,3.5,46.6,0.7,50.1,0.8"/>
		<path id="Path_5392" class="st1" d="M96.3,50.1c0.1-2-1.4-3.7-3.4-3.9c-2.1,0-3.8,1.7-3.8,3.7c0,2.1,1.6,3.8,3.7,3.8
			C94.7,53.7,96.3,52.1,96.3,50.1 M99,49.9c0.1,3.5-2.6,6.4-6.1,6.5c0,0,0,0,0,0c-3.6,0-6.5-2.9-6.6-6.5c0.1-3.5,2.9-6.3,6.4-6.4
			C96.2,43.5,99,46.4,99,49.9C99,49.9,99,49.9,99,49.9"/>
		<path id="Path_5393" class="st1" d="M7.4,46.2c-2.1,0.2-3.7,2-3.5,4.1c0.1,1.8,1.6,3.3,3.4,3.5c2.1,0,3.8-1.7,3.8-3.8
			C11,47.9,9.4,46.3,7.4,46.2 M1,50.1c-0.1-3.5,2.6-6.4,6.1-6.6c0,0,0,0,0,0c3.6,0,6.5,2.9,6.6,6.5c-0.1,3.5-2.9,6.3-6.4,6.4
			C3.8,56.4,1,53.6,1,50.1C1,50.1,1,50.1,1,50.1"/>
		<path id="Path_5394" class="st1" d="M93,40.3c0,1.2-0.1,2-1,2.1c-0.8,0.1-1.2-0.5-1.4-1.1c-1.2-5.1-3.3-10-6-14.4
			c-0.4-0.5-0.3-1.3,0.2-1.7c0,0,0,0,0.1,0c0.5-0.4,1.3-0.3,1.7,0.2c0,0,0,0.1,0.1,0.1C89.7,29.9,91.9,35,93,40.3"/>
		<path id="Path_5395" class="st1" d="M8.2,57.5c1,0.2,1.3,0.9,1.4,1.6c1.1,4.8,3,9.3,5.6,13.5c0.5,0.7,0.9,1.6,0,2.2
			c-1,0.7-1.7-0.1-2.2-0.9c-2.8-4.3-4.8-9.1-5.9-14.2C6.9,58.9,6.8,57.7,8.2,57.5"/>
		<path id="Path_5396" class="st1" d="M40.4,6.8c1.1,0,1.9,0.1,2,1c0.2,1-0.6,1.4-1.3,1.5c-4.9,1.2-9.6,3.1-13.9,5.8
			c-0.7,0.4-1.5,0.6-2-0.1c-0.4-0.6-0.3-1.4,0.3-1.8c0.1,0,0.1-0.1,0.2-0.1C30.2,10.1,35.2,7.9,40.4,6.8"/>
		<path id="Path_5397" class="st1" d="M59.7,6.8C64.9,8,69.8,10.1,74.2,13c0.7,0.5,1.1,1.1,0.6,1.9c-0.6,0.9-1.4,0.6-2.2,0.2
			c-2.3-1.5-4.7-2.7-7.3-3.7c-2.1-0.7-4.3-1.3-6.4-2c-0.8-0.3-1.7-0.6-1.4-1.7C57.8,6.8,58.6,6.8,59.7,6.8"/>
		<path id="Path_5398" class="st1" d="M7,40.1c0.4-1.3,0.9-3.3,1.6-5.1c1.1-3.2,2.6-6.3,4.5-9.1c0.5-0.7,1.1-1.4,2-0.8
			c0.9,0.6,0.6,1.4,0.1,2.2c-2.7,4.2-4.6,8.9-5.7,13.7c-0.2,0.7-0.5,1.5-1.5,1.4C7.1,42.4,7,41.6,7,40.1"/>
		<path id="Path_5399" class="st1" d="M93,59.6c-1.1,5.3-3.3,10.3-6.3,14.7c-0.5,0.7-1.2,1-1.9,0.5c-0.7-0.5-0.6-1.3-0.1-2
			c2.7-4.3,4.7-9,5.8-14c0.2-0.7,0.6-1.4,1.5-1.3C92.7,57.6,93,58.2,93,59.6"/>
		<path id="Path_5400" class="st1" d="M40.4,93.2c-5.3-1.1-10.2-3.3-14.7-6.3c-0.6-0.3-0.9-1.1-0.6-1.7c0-0.1,0.1-0.1,0.1-0.2
			c0.4-0.6,1.2-0.7,1.7-0.3c0,0,0,0,0.1,0c4.4,2.8,9.3,4.8,14.3,6.1c0.7,0.1,1.2,0.7,1.1,1.3c0,0,0,0.1,0,0.1
			C42.3,93.1,41.5,93.2,40.4,93.2"/>
		<path id="Path_5401" class="st1" d="M59.6,93.2c-1.1,0-1.9,0-2.1-0.9c-0.2-0.9,0.5-1.4,1.2-1.6c5-1.2,9.8-3.2,14.1-5.9
			c0.7-0.4,1.5-0.5,1.9,0.3c0.3,0.6,0.1,1.4-0.5,1.7c0,0,0,0,0,0C69.9,89.9,64.9,92,59.6,93.2"/>
		<path id="Path_5402" class="st1" d="M44.8,56.5c0.5,2.8,2.2,5.2,4.7,6.4c0.3,0.1,0.6,0.1,1,0c2.5-1.2,4.2-3.6,4.7-6.3
			c0-0.9-0.5-1.8-1.4-2.2c-0.8-0.4-1.7-0.2-2.3,0.5c-1.1,1.2-2.1,1.1-3.1,0c-0.6-0.7-1.5-0.8-2.3-0.4C45.4,54.9,44.9,55.7,44.8,56.5
			 M57.7,56.8c-0.4,4.1-3.2,7.7-7,9.2c-0.4,0.1-0.8,0.1-1.2,0c-4.1-1.6-6.8-5.3-7.1-9.7c-0.1-2.5,1.9-4.7,4.5-4.7
			c0.7,0,1.3,0.1,1.9,0.4c0.8,0.3,1.8,0.3,2.6,0c2.3-1,5,0,6,2.3C57.7,55.1,57.8,55.9,57.7,56.8"/>
	</g>
</g>
</svg>
