<?xml version="1.0" encoding="utf-8"?>
<!-- Generator: Adobe Illustrator 28.2.0, SVG Export Plug-In . SVG Version: 6.00 Build 0)  -->
<svg version="1.1" id="Layer_1" xmlns="http://www.w3.org/2000/svg" xmlns:xlink="http://www.w3.org/1999/xlink" x="0px" y="0px"
	 viewBox="0 0 100 100" style="enable-background:new 0 0 100 100;" xml:space="preserve">
<style type="text/css">
	.st0{clip-path:url(#SVGID_00000092433561117541265960000016652938658782880646_);}
	.st1{fill:#FCBF11;}
</style>
<g>
	<defs>
		<rect id="SVGID_1_" x="0.9" y="1" width="98.2" height="98"/>
	</defs>
	<clipPath id="SVGID_00000072282617336626474970000017240009741392189372_">
		<use xlink:href="#SVGID_1_"  style="overflow:visible;"/>
	</clipPath>
	<g id="Group_149494" style="clip-path:url(#SVGID_00000072282617336626474970000017240009741392189372_);">
		<path id="Path_5377" class="st1" d="M52.1,58.9c-0.2-2.1,1.4-3.9,3.5-4c0,0,0,0,0,0c1.9,0.3,3.3,2.1,3.2,4.1
			c0.2,2-1.2,3.9-3.3,4.1c0,0-0.1,0-0.1,0C53.3,62.9,51.9,61.1,52.1,58.9C52.1,59,52.1,59,52.1,58.9 M79.1,59.2
			c-0.3-2.1,1.1-4,3.2-4.3c2,0.1,3.5,1.8,3.5,3.8c0.4,2.1-1,4-3,4.4c-0.1,0-0.2,0-0.2,0C80.4,63,78.9,61.2,79.1,59.2 M59.3,80.1
			c0,2.4-1.3,4.1-3.3,4.1c-2-0.2-3.5-2-3.3-4c0,0,0,0,0-0.1c-0.2-1.9,1.2-3.7,3.1-3.9c0,0,0.1,0,0.1,0C57.9,76,59.3,77.6,59.3,80.1
			 M85.7,80.1c0,2.4-1.4,4.1-3.3,4.1s-3.3-1.6-3.3-4.1c0-2.3,1.3-3.9,3.2-3.9C84.3,76,85.7,77.6,85.7,80.1 M12.6,69.8
			c0-2.5,1.3-4.1,3.3-4.1c2,0,3.3,1.5,3.3,3.8c0.1,2.5-1.2,4.1-3.2,4.2S12.6,72.2,12.6,69.8 M25.6,59.1c-0.2-2.1,1.3-3.9,3.4-4.1
			c2.1,0.3,3.5,2.2,3.4,4.3c0,2-1.4,3.7-3.3,4C27,63,25.4,61.2,25.6,59.1C25.6,59.1,25.6,59.1,25.6,59.1 M26.2,80
			c-0.2-2,1.3-3.8,3.4-3.9c0.1,0,0.1,0,0.2,0c2.2,0.4,3.7,2.5,3.3,4.7c-0.3,1.7-1.7,3.1-3.4,3.3c-2-0.2-3.6-1.9-3.4-4
			C26.2,80.1,26.2,80.1,26.2,80 M69.1,73.8c-2.1-0.2-3.6-2.1-3.4-4.2c-0.1-2,1.4-3.8,3.5-3.9c0.1,0,0.1,0,0.2,0c2,0.3,3.4,2.1,3.2,4
			C72.7,71.8,71.2,73.6,69.1,73.8C69.1,73.8,69.1,73.8,69.1,73.8 M42.4,65.7c2,0,3.6,1.6,3.6,3.6c0.3,2.1-1.1,4.1-3.2,4.4
			c0,0-0.1,0-0.1,0c-2-0.1-3.6-1.7-3.5-3.7C39,68,40.4,66.1,42.4,65.7 M48.9,73.4c0.6-1.1,0.9-2.4,0.8-3.6c-0.4-2.9,1.5-3.3,3.4-3.2
			c1.7,0.1,3.4,0,5.1-0.2c2.5-0.4,3.8,0.9,3.9,3.4c0.1,1,0.3,2,0.5,3.1c0.1,0.6,0.5,1.2-0.2,1.6c-0.5,0.4-1.2,0.3-1.7-0.1
			c-2.7-2.6-7-2.6-9.6,0C50.2,75.1,49.2,74.8,48.9,73.4 M31.6,66.4c2-0.2,3.8,1.2,4.1,3.2c0,0.1,0,0.3,0,0.4
			c0.1,0.9,0.3,1.9,0.5,2.8c0.1,0.6,0.4,1.2-0.3,1.6c-0.5,0.3-1.2,0.3-1.7-0.1c-0.8-0.7-1.7-1.2-2.7-1.6c-2.3-0.7-4.8-0.1-6.5,1.5
			c-0.7,0.6-1.7,0.7-2.4,0.1c-0.8-0.6-0.2-1.2-0.1-1.9c0.3-0.9,0.4-1.9,0.4-2.8c-0.2-2.6,1.6-3.2,3.4-3.1
			C28.1,66.8,29.9,66.8,31.6,66.4 M35.8,84c0.5-1.1,0.7-2.3,0.8-3.5c0.1-2.6,1.1-3.6,3.7-3.3c1.6,0.1,3.2,0.1,4.9,0
			c1.4-0.1,3.5-0.2,3.6,1.9c0.1,1.8,1.3,3.7,0.9,5.2c-0.4,1.8-3.1,1.7-4.6,2.8c-0.2,0.2-0.4,0.3-0.7,0.4c-0.7,0.4-1.4,1.5-2.2,0.7
			c-1.9-1.7-4.5-2.1-6.4-3.8C35.7,84.4,35.8,84.2,35.8,84 M71.7,77.1c1.2,0.1,2.9,0.1,3.3,1.4c0.6,2.1,1,4.3,1.2,6.5
			c0,0.1-0.5,0.4-0.8,0.5c-5.8,3.2-5.8,3.2-11.8,0c-1.1-0.6-1.6-1.3-0.9-2.4c1-1.6-0.4-4,1.4-5.3c1.7-1.2,3.7-0.4,5.5-0.4
			C70.3,77.4,71,77.3,71.7,77.1 M92.8,32.5c0.6-11.7-9.3-23.6-22.2-22.3c-0.8,0.1-1.7,0.2-1.8-1c-0.1-1,0.7-1.3,1.5-1.5
			c2.3-0.4,4.7-0.3,6.9,0.4c9,2,15.9,9.3,17.4,18.4c2.2,9.1-0.6,18.6-7.5,24.9c-0.5,0.7-1.5,0.8-2.2,0.2c0,0-0.1-0.1-0.1-0.1
			c-1.1-0.9,0.1-1.4,0.5-1.8C90.2,45.4,92.9,39.1,92.8,32.5 M21.9,61.4c-3.6-3.9-7.1-7.6-10.5-11.3c-9-9.8-9.2-24.8-0.4-34.8
			c4.4-5.2,11-8,17.8-7.6c1,0,2.6,0.1,2.3,1.7c-0.2,1.4-1.5,0.8-2.4,0.8c-4.7-0.3-9.4,1.1-13.1,4.1C5.5,22.5,4,37.3,12.2,47.3
			c0.2,0.3,0.5,0.6,0.8,0.9c2.1,2.4,4.3,4.8,6.6,7C21.3,56.8,22.2,59.1,21.9,61.4 M35,20.1c0-4.3,0.1-8.7,0-13
			c0-1.8,0.4-2.4,2.3-2.4c8.4,0.1,16.8,0.1,25.2,0c1.8,0,2.4,0.4,2.4,2.3c-0.1,8.6-0.1,17.1,0,25.7c0.2,2.7-1.5,5.1-4,6
			c-11.1,5.1-11.1,5.1-22.1-0.1c-2.4-0.9-4-3.3-3.8-5.9C35.1,28.5,35,24.3,35,20.1 M31.2,24.7L31.2,24.7c0,2.6,0,5.2,0,7.8
			c-0.2,4.3,2.4,8.3,6.5,9.7c3.5,1.4,6.9,2.9,10.3,4.4c1.2,0.6,2.7,0.6,4,0c3.1-1.4,6.1-2.8,9.3-4c4.9-1.4,8-6.1,7.4-11.2
			c-0.1-4.9,0-9.9,0-14.8c0-2,0.8-2.8,2.8-2.8c4.3-0.2,8.5,1.3,11.6,4.2c7.7,7.1,8.4,19,1.7,27c-3.3,4-7,7.6-10.5,11.5
			c-2.3,3.1-5.5,5.5-9.1,6.9c-0.8,0.4-1.8,0.5-2.7,0.1c-1.1-0.7-0.3-1.5-0.1-2.3c0.8-3.2-0.3-6.6-2.9-8.6c-2.3-1.7-5.5-1.7-7.8,0
			c-2.7,2.1-3.8,5.5-2.9,8.8c0.2,0.7,1.1,1.7,0,2.3c-0.9,0.5-1.6-0.2-2.4-0.6c-2.1-1.5-4.9-1.5-7.1-0.1c-1,0.6-1.9,1.7-3.3,0.8
			c-1.4-0.9-0.2-2,0-3c0.6-3.1-0.6-6.4-3.2-8.3c-2.5-1.7-5.9-1.5-8.1,0.5c-1,0.7-1.6,0.8-2.4-0.1c-2.2-2.5-4.6-4.9-6.8-7.5
			c-4.3-4.9-5.9-11.7-4.2-18c1.7-8.1,8.9-13.9,17.2-13.7c1.9,0.1,2.9,0.8,2.8,2.9C31.2,19.3,31.2,22,31.2,24.7 M17,61.6
			c-2.5,0.1-4.9,1.2-6.5,3.1c-1.7,2-2.2,4.7-1.4,7.1c0.7,2,0.1,2.8-1.8,3.4c-1.4,0.5-2.7,1.2-3.9,2c-1.6,1-2.5,2.7-2.5,4.6
			c-0.1,3.1,0,6.2,0,9.4c0,1.1,0.2,2.1,1.7,2.1c1.6,0,1.8-1,1.8-2.2c0-2.5,0-5,0-7.5c0-1.9,1.1-3.7,2.9-4.5c3.8-2.2,8-1.7,12.1-1.8
			c1.9,0,2.7,1,3.3,3.3c1.1,3.9-0.5,5.1-3.6,6.5c-3.9,2-5.8,6.4-4.5,10.6c0.2,0.9,1,1.5,1.9,1.4c1,0,1.7-0.4,1.7-1.5
			c0-0.4,0-0.9,0.1-1.3c0.4-5.1,4.8-8.9,9.9-8.5c0,0,0.1,0,0.1,0c3.2-0.1,6.3,0.6,9.2,1.9c2.3,0.9,3.8,3.3,3.5,5.8
			c-0.1,0.8,0,1.6,0.1,2.3c0.1,1.1,1,1.3,1.9,1.3c0.8,0.1,1.5-0.4,1.7-1.1c0,0,0-0.1,0-0.1c0.1-0.3,0.1-0.5,0.1-0.8
			c0-2.9-0.4-5.8,3.2-7.2c2.5-1.2,5.1-1.9,7.8-2.1c3,0,6,0.8,8.6,2.2c2.1,0.8,3.4,3,3.1,5.2c-0.1,0.8,0,1.6,0,2.3
			c0,1.3,0.9,1.5,1.9,1.6c1.1,0,1.8-0.5,1.6-1.6c-1.3-6.1,3-8,7.5-9.2c5.3-1.6,11-0.5,15.4,2.8c0.9,0.7,1.4,1.8,1.3,3
			c0,1.1,0.1,2.2,0.1,3.4c0,0.9,0.6,1.6,1.5,1.7c0.1,0,0.2,0,0.4,0c1.2,0,1.6-0.6,1.8-1.7c0.8-5.9-1.1-9.1-7.1-11.4
			c-2.4-0.9-3.4-1.7-2.6-4.6c0.8-3.1-0.6-6.3-3.3-7.8c-2.4-1.7-5.6-1.5-7.7,0.4c-0.7,0.5-1.4,1.1-2.3,0.5c-1.1-0.7-0.2-1.5-0.1-2.3
			c0.1-0.4,0.2-0.8,0.2-1.3c0.4-3.4,1.3-3.9,4.7-4.1c3.9-0.6,7.9,0,11.5,1.7c1.8,0.7,3,2.5,2.9,4.4c-0.1,2.3,0,4.7,0,7
			c0,1.4-0.2,3,2,2.9c2,0,1.7-1.5,1.7-2.8c0-2.4-0.1-4.9,0-7.3c0.3-3.1-1.6-6.1-4.5-7.2c-0.5-0.3-1.1-0.5-1.7-0.8
			c-2.7-0.7-5-1.7-3.3-5.2c0.1-0.2,0.1-0.3,0-0.5c-1.7-3.5,0.9-5.5,2.8-7.8c13.9-16.5,5.1-42.8-15.7-46.7c-1.5-0.2-2.9-0.3-4.4-0.3
			c-1.7,0-3.6,0.4-3.9-2.2c-0.1-1-1.1-0.9-1.9-0.9c-11,0-22,0-33,0c-0.9,0-1.9,0-2,1.1c-0.2,2.1-1.7,2-3.2,2
			C13.4,4.1,1.3,15.9,0.9,30.6c-0.5,8.1,2.3,16,7.8,21.9C11.3,55.4,14,58.3,17,61.6"/>
		<path id="Path_5378" class="st1" d="M42.8,22.6c0.3-1.3,1.5-1.2,2.5-1.1c2.7,0.3,3.7-0.9,3.3-3.4c0-0.3,0-0.7,0-1
			c0-0.7,0.1-1.5,1-1.6c1.1-0.1,1.3,0.6,1.4,1.5C51,17.6,51,18.3,51,19c0,1.7,0.8,2.6,2.5,2.5c0.6,0,1.2,0,1.8,0
			c0.8,0,1.6,0.2,1.6,1.2s-0.9,1.1-1.7,1.1c-3.9,0.4-3.9,0.4-4.3,4c-0.1,0.9-0.2,1.9-1.4,1.9c-1.3,0-1-1.2-1-2
			c0-3.6,0.3-4.1-3.8-3.9C43.9,23.9,43,24,42.8,22.6 M38.9,22.6c0,0.7,0,1.4,0,2.1c-0.2,2,0.6,3,2.7,2.7c2.6-0.4,4,0.5,3.5,3.4
			c-0.3,2.1,0.6,3.1,2.8,2.9c0.6,0,1.2,0,1.8,0c4.6,0,4.7,0,5.1-4.4c0.2-1.8,1.3-1.7,2.5-1.8c3.7-0.1,3.7-0.1,3.7-3.8
			c0-0.5,0-1,0-1.6c0-3.5,0.6-4.6-4-4.3c-1.7,0.1-2.2-0.7-2.2-2.3c-0.1-3.8-0.1-3.8-3.9-3.8h-1.3c-4.1,0-4.2,0-4.4,4.1
			c-0.1,1.4-0.6,2-2,2C38.9,18,38.9,18.1,38.9,22.6"/>
	</g>
</g>
</svg>
