<?xml version="1.0" encoding="utf-8"?>
<!-- Generator: Adobe Illustrator 28.2.0, SVG Export Plug-In . SVG Version: 6.00 Build 0)  -->
<svg version="1.1" id="Layer_1" xmlns="http://www.w3.org/2000/svg" xmlns:xlink="http://www.w3.org/1999/xlink" x="0px" y="0px"
	 viewBox="0 0 100 100" style="enable-background:new 0 0 100 100;" xml:space="preserve">
<style type="text/css">
	.st0{clip-path:url(#SVGID_00000039815149092605217520000001987489594661762709_);}
	.st1{fill:#FCBF11;}
</style>
<g>
	<defs>
		<rect id="SVGID_1_" y="14.3" width="100" height="71.4"/>
	</defs>
	<clipPath id="SVGID_00000116230436976536318320000005163054764344804002_">
		<use xlink:href="#SVGID_1_"  style="overflow:visible;"/>
	</clipPath>
	
		<g id="Group_149482" transform="translate(0 0)" style="clip-path:url(#SVGID_00000116230436976536318320000005163054764344804002_);">
		<path id="Path_5325" class="st1" d="M65.8,75.4c0.3,0,0.5,0,0.8,0c8.1-1.1,16.3-1.2,24.4-0.2c1.5,0.2,1.8-0.2,1.8-1.6
			c-0.1-8.7,0-17.5,0-26.2c0-7.3,0-14.6,0-21.9c0-0.5,0.2-1.3-0.3-1.6c-0.9-0.5-2-0.6-3-0.4c-0.9,0.3-0.5,1.3-0.5,1.9
			c0,14.9,0,29.7,0,44.6c0,0.5,0,1,0,1.5c0,1-0.7,1.9-1.8,1.9c-0.1,0-0.2,0-0.4,0c-1.1-0.1-2.1-0.2-3.2-0.2
			C77.5,72.8,71.5,73.5,65.8,75.4 M34.2,75.4c-3.8-1.3-7.7-2.1-11.7-2.2c-3-0.1-6.1,0-9.1,0.3c-1.6,0.1-2.3-0.6-2.4-2.1
			c0-0.5,0-1,0-1.5c0-14.9,0-29.7,0-44.5c0-0.9,0.2-1.9-1.3-1.8c-2,0.1-2.5,0.3-2.5,1.8c0,16.2,0,32.5,0,48.7c0,1.2,0.4,1.4,1.6,1.3
			c3.9-0.4,7.9-0.7,11.8-0.7C25.1,74.6,29.7,74.8,34.2,75.4 M52.4,78.4c0.1,0,0.1,0,0.2,0c0.2-0.1,0.4-0.2,0.5-0.3
			c8.9-6.5,20-9.5,31-8.4c1.1,0.1,1.3-0.2,1.3-1.2c0-16.3,0-32.6,0-48.9c0-1.2-0.5-1.5-1.6-1.6c-10.8-1-21.6,2.2-30.2,8.9
			c-1,0.7-1.5,1.8-1.4,3c0,15.7,0,31.5,0,47.2C52.2,77.5,52.2,78,52.4,78.4 M47.7,78.6c0-0.5,0.1-0.7,0.1-0.9c0-16.1,0-32.2,0-48.3
			c0-1-0.5-2-1.4-2.5C37.8,20.2,27,17,16.2,18c-1.1,0.1-1.6,0.5-1.6,1.7c0,16.2,0,32.5,0,48.7c0,1.1,0.3,1.3,1.4,1.3
			c6.2-0.5,12.5,0.2,18.4,2C39.2,73.3,43.6,75.7,47.7,78.6 M0,55.5c0-8,0-16,0-24.1c0-2.6,0.1-2.8,2.7-3.2c0.8-0.1,0.9-0.6,0.9-1.2
			c0-1.4,0-2.8,0-4.2c0-1.7,0.6-2.3,2.2-2.6c1.2-0.2,2.4-0.3,3.7-0.4c1.1-0.1,1.5-0.5,1.5-1.6c0.1-3.2,0.2-3.3,3.2-3.6
			c12.2-1.7,24.6,1.7,34.2,9.5c0.7,0.8,1.9,0.9,2.7,0.3c0.1-0.1,0.2-0.1,0.2-0.2c7.5-6.2,16.9-9.6,26.7-9.8c2.7-0.1,5.4,0,8.2,0.3
			c2,0.3,2.6,0.8,2.6,2.8c0,2.2,0,2.2,2.3,2.5c1.1,0.1,2.1,0.3,3.2,0.4c1.1,0.1,2,1,2,2.2c0,0.1,0,0.1,0,0.2c0,1.4,0,2.9,0,4.3
			c0,0.7,0.1,1.1,1,1.2c2.4,0.3,2.7,0.6,2.7,3.1c0,15.1,0,30.2,0,45.3c0,1.1,0,2.3,0,3.4c-0.1,2.1-0.6,2.7-2.7,2.7
			c-12.4,0-24.9,0-37.3,0c-1,0-1.8,0-2,1.4c-0.3,1-1.2,1.7-2.2,1.6c-3.8,0-7.6,0.1-11.4,0c-1.1,0.1-2.1-0.7-2.3-1.9
			c-0.2-1-0.8-1-1.5-1c-3.6,0-7.2,0-10.8,0c-8.9,0-17.8,0-26.7,0c-2.4,0-2.9-0.5-2.9-2.9C0,71.7,0,63.6,0,55.5"/>
	</g>
</g>
</svg>
