<svg id="Group_149519" data-name="Group 149519" xmlns="http://www.w3.org/2000/svg" xmlns:xlink="http://www.w3.org/1999/xlink" width="45.014" height="37.217" viewBox="0 0 45.014 37.217">
  <defs>
    <clipPath id="clip-path">
      <rect id="Rectangle_65878" data-name="Rectangle 65878" width="45.014" height="37.217" fill="#2ba175"/>
    </clipPath>
  </defs>
  <g id="Group_149518" data-name="Group 149518" transform="translate(0 0)" clip-path="url(#clip-path)">
    <path id="Path_5403" data-name="Path 5403" d="M0,19.174a2.353,2.353,0,0,1,1.032-1.792q6.755-5.632,13.5-11.273C16.618,4.367,18.7,2.616,20.789.883,22.2-.281,22.8-.295,24.171.846Q34.1,9.121,44.005,17.416c.688.573,1.239,1.22.913,2.212-.459,1.4-1.914,1.7-3.206.641-2.318-1.909-4.611-3.85-6.915-5.775C30.9,11.237,27,8,23.123,4.715c-.573-.487-.883-.287-1.346.1Q12.7,12.432,3.592,20.016a4.852,4.852,0,0,1-1.148.771A1.806,1.806,0,0,1,0,19.174" transform="translate(0 0)" fill="#2ba175"/>
    <path id="Path_5404" data-name="Path 5404" d="M4.2,25.8c0-2.467.02-4.934-.013-7.4a2.283,2.283,0,0,1,.91-1.938Q11.988,10.752,18.85,5c1.117-.932,1.452-.943,2.592,0,4.616,3.841,9.216,7.7,13.837,11.536a2.553,2.553,0,0,1,.97,2.144q-.028,7.347,0,14.692c.006.951-.279,1.324-1.288,1.316-.985-.006-1.2-.4-1.19-1.284.031-4.611,0-9.223.027-13.836a2.039,2.039,0,0,0-.8-1.75c-3.936-3.26-7.874-6.521-11.752-9.848a1.407,1.407,0,0,0-2.226.017c-3.86,3.3-7.768,6.535-11.684,9.763a1.932,1.932,0,0,0-.689,1.689c.016,4.611.009,9.223,0,13.834,0,1.277-.807,1.8-2.016,1.338-.551-.211-.437-.688-.439-1.092C4.19,30.95,4.2,28.376,4.2,25.8" transform="translate(2.37 2.434)" fill="#2ba175"/>
    <path id="Path_5405" data-name="Path 5405" d="M14.3,16.748a1.941,1.941,0,0,0-1.136,1.764c.047,1.225-.88.954-1.588,1-.731.044-1.079-.216-1.115-1.04a3.448,3.448,0,0,1,1.128-2.96c1-.912,1.886-1.956,2.805-2.956a1.869,1.869,0,0,1,1.748-.572,4.925,4.925,0,0,1,4.3,2.7,33.676,33.676,0,0,0,2.282,3.5c.836,1.267.86,1.983.088,2.531-.793.562-1.482.244-2.365-1.085a10.593,10.593,0,0,0-1.183-1.551,4.334,4.334,0,0,0,.044,3.255c1.111,2.243,2.185,4.5,3.277,6.757a1.431,1.431,0,0,1-.262,1.938,1.285,1.285,0,0,1-2-.462C19.069,27.2,17.512,25,16.676,22.419A1.73,1.73,0,0,0,15.03,21.1c-.9-.013-1.037-.352-.9-1.187a27.668,27.668,0,0,0,.172-3.161" transform="translate(5.924 6.771)" fill="#2ba175"/>
    <path id="Path_5406" data-name="Path 5406" d="M12.993,25.051c.857,0,1.712-.011,2.569,0,.634.013.908-.29.905-.908q-.009-2.035,0-4.068c0-.612-.257-.927-.893-.924-1.75.008-3.5,0-5.246,0a.743.743,0,0,0-.846.854c0,1.391.008,2.783,0,4.174,0,.65.337.88.943.871.855-.014,1.712,0,2.569,0M12.96,18c.927,0,1.856-.028,2.783.006a1.683,1.683,0,0,1,1.872,1.853c.027,1.5.031,3,0,4.5a1.654,1.654,0,0,1-1.8,1.826q-2.782.068-5.565,0a1.715,1.715,0,0,1-1.892-1.87c-.052-1.5-.049-3,0-4.5a1.677,1.677,0,0,1,1.822-1.808C11.1,17.968,12.032,18,12.96,18" transform="translate(4.712 10.187)" fill="#2ba175"/>
    <path id="Path_5407" data-name="Path 5407" d="M15.807,8.531a2.686,2.686,0,0,1,2.639,2.58,2.644,2.644,0,1,1-2.639-2.58" transform="translate(7.453 4.831)" fill="#2ba175"/>
    <path id="Path_5408" data-name="Path 5408" d="M12.1,19.223c.539-.05.91.114.957.724a.533.533,0,0,0,.553.537c.57.023.7.387.706.866,0,.5-.052.945-.7.987a.545.545,0,0,0-.561.534c-.049.608-.428.739-.959.742s-.908-.125-1-.714a.6.6,0,0,0-.553-.564c-.586-.069-.612-.492-.616-.943s.058-.86.644-.913a.583.583,0,0,0,.523-.586c.078-.616.487-.722,1-.67" transform="translate(5.624 10.881)" fill="#2ba175"/>
  </g>
</svg>
