<svg xmlns="http://www.w3.org/2000/svg" xmlns:xlink="http://www.w3.org/1999/xlink" width="32.341" height="38.892" viewBox="0 0 32.341 38.892">
  <defs>
    <clipPath id="clip-path">
      <rect width="32.341" height="38.892" fill="none"/>
    </clipPath>
    <clipPath id="clip-path-2">
      <rect id="Rectangle_65883" data-name="Rectangle 65883" width="32.341" height="38.892" fill="#2ba175"/>
    </clipPath>
  </defs>
  <g id="Repeat_Grid_1" data-name="Repeat Grid 1" clip-path="url(#clip-path)">
    <g id="Group_149528" data-name="Group 149528" transform="translate(0)">
      <g id="Group_149527" data-name="Group 149527" transform="translate(0 0)" clip-path="url(#clip-path-2)">
        <path id="Path_5421" data-name="Path 5421" d="M23.293,4.966a4.015,4.015,0,0,0-.116-.983c-.233-.808-.41-.858-1.066-.354-.257.2-.2.391-.12.629A2.2,2.2,0,0,1,21.4,6.587c-.164.173-.35.325-.53.483-1.62,1.417-3.232,2.844-4.864,4.246-.366.314-.188.519.039.763s.378.508.753.174c1.8-1.6,3.628-3.174,5.428-4.776a3.163,3.163,0,0,0,1.063-2.511M9.543.056a4.783,4.783,0,0,1,3.681,1.472c.379.375.768.744,1.13,1.135.228.245.4.256.631.007.429-.456.866-.908,1.332-1.323a4.93,4.93,0,0,1,5.41-.924,4.669,4.669,0,0,1,3.067,4.461,4.47,4.47,0,0,1-1.477,3.569c-1.729,1.574-3.5,3.1-5.257,4.646-1,.876-2,1.737-2.989,2.624a.5.5,0,0,1-.792.005c-2.651-2.338-5.34-4.636-7.969-7a4.864,4.864,0,0,1-.1-7.439A4.544,4.544,0,0,1,9.543.056" transform="translate(1.498 0)" fill="#2ba175"/>
        <path id="Path_5422" data-name="Path 5422" d="M25.607,34.991c0,.534,0,1.069,0,1.6,0,.1.017.249-.124.267-.072.011-.165-.06-.232-.116-.112-.094-.212-.2-.315-.31Q13.321,24.693,1.706,12.951a5.116,5.116,0,0,1-.928-6.5c.265-.422.442-.415.781-.085Q9.047,13.641,16.552,20.9q5.795,5.607,11.6,11.209c.106.1.217.2.314.311.129.148.4.267.33.468-.089.252-.383.133-.588.138-.625.013-1.255.037-1.878-.005-.544-.036-.788.12-.727.7a11.875,11.875,0,0,1,.009,1.27Z" transform="translate(0 2.026)" fill="#2ba175"/>
        <path id="Path_5423" data-name="Path 5423" d="M28.067,9.116a5.178,5.178,0,0,1-1.526,3.646q-4.992,5.01-10,10.013c-.281.282-.483.306-.772.012q-1.3-1.319-2.638-2.6c-.307-.293-.261-.494.021-.769q4.97-4.835,9.927-9.687c1.146-1.121,2.3-2.234,3.428-3.371.349-.353.531-.31.781.1a5.551,5.551,0,0,1,.775,2.655" transform="translate(4.275 2.025)" fill="#2ba175"/>
        <path id="Path_5424" data-name="Path 5424" d="M4.217,28.33c-.4,0-.809.005-1.215,0-.12,0-.279.041-.335-.116s.077-.234.168-.319q1.1-1.048,2.2-2.092c1.832-1.731,3.676-3.451,5.489-5.2.385-.371.613-.362.974.02.833.882,1.7,1.731,2.574,2.576.258.252.326.429.04.721q-3.892,3.99-7.768,8c-.106.109-.2.323-.391.23-.169-.084-.093-.3-.094-.456-.005-.938-.017-1.876,0-2.815.008-.4-.126-.575-.54-.547-.366.024-.735.005-1.1.005Z" transform="translate(0.878 6.723)" fill="#2ba175"/>
        <path id="Path_5425" data-name="Path 5425" d="M5.627,8.735a1.828,1.828,0,0,1-1.8-.789c-.633-.689-1.321-1.331-2-1.978-.281-.266-.33-.446.059-.653A5.257,5.257,0,0,1,3.955,4.61a.45.45,0,0,1,.559.378,6.319,6.319,0,0,0,2.075,3.25c.113.1.326.185.232.383-.071.148-.259.109-.4.113-.221.007-.442,0-.79,0" transform="translate(0.531 1.523)" fill="#2ba175"/>
        <path id="Path_5426" data-name="Path 5426" d="M19.991,8.732c-.383,0-.66,0-.936,0-.11,0-.244-.011-.287-.124s.067-.2.144-.274c.337-.339.695-.661,1.006-1.022a5.679,5.679,0,0,0,1.166-2.3.471.471,0,0,1,.591-.406,4.887,4.887,0,0,1,2.108.767c.249.156.271.318.059.526-.894.876-1.779,1.762-2.684,2.628-.362.346-.844.162-1.166.2" transform="translate(6.204 1.522)" fill="#2ba175"/>
      </g>
    </g>
  </g>
</svg>
