<svg xmlns="http://www.w3.org/2000/svg" xmlns:xlink="http://www.w3.org/1999/xlink" width="34.647" height="34.564" viewBox="0 0 34.647 34.564">
  <defs>
    <clipPath id="clip-path">
      <rect id="Rectangle_65881" data-name="Rectangle 65881" width="34.648" height="34.564" fill="#2ba175"/>
    </clipPath>
  </defs>
  <g id="Group_149524" data-name="Group 149524" clip-path="url(#clip-path)">
    <path id="Path_5417" data-name="Path 5417" d="M18.063,20.438a1.324,1.324,0,0,1,1.229-1.418,1.349,1.349,0,0,1,1.115,1.436,1.309,1.309,0,0,1-1.185,1.458,1.312,1.312,0,0,1-1.16-1.477m9.519.106A1.356,1.356,0,0,1,28.7,19.02a1.313,1.313,0,0,1,1.224,1.331,1.334,1.334,0,0,1-1.163,1.563,1.286,1.286,0,0,1-1.177-1.371M20.6,27.887c.009.863-.461,1.443-1.168,1.439a1.307,1.307,0,0,1-1.178-1.452,1.251,1.251,0,0,1,1.142-1.381c.721-.03,1.2.518,1.2,1.394m9.326-.005c.007.85-.478,1.445-1.176,1.445s-1.177-.572-1.168-1.443c.007-.829.441-1.363,1.126-1.389.729-.027,1.212.522,1.218,1.386M4.123,24.27c-.016-.868.444-1.439,1.163-1.445.691-.005,1.153.517,1.181,1.338.03.868-.412,1.462-1.114,1.5S4.138,25.12,4.123,24.27m4.594-3.79a1.342,1.342,0,0,1,1.2-1.46,1.42,1.42,0,0,1,1.187,1.5,1.4,1.4,0,0,1-1.178,1.414,1.331,1.331,0,0,1-1.21-1.453m.2,7.4a1.284,1.284,0,0,1,1.257-1.388,1.436,1.436,0,0,1-.055,2.833,1.312,1.312,0,0,1-1.2-1.445m15.132-2.219a1.354,1.354,0,0,1-1.186-1.474,1.293,1.293,0,0,1,1.287-1.363A1.35,1.35,0,0,1,25.3,24.247a1.326,1.326,0,0,1-1.244,1.414m-9.39-2.834a1.281,1.281,0,0,1,1.286,1.27,1.362,1.362,0,0,1-1.178,1.565,1.312,1.312,0,0,1-1.248-1.32,1.369,1.369,0,0,1,1.14-1.515m2.29,2.714a2.335,2.335,0,0,0,.268-1.29c-.156-1.023.532-1.147,1.211-1.113a8.7,8.7,0,0,0,1.808-.081c.871-.135,1.324.317,1.364,1.185a7.615,7.615,0,0,0,.175,1.076c.039.2.186.407-.079.562a.475.475,0,0,1-.593-.024,2.414,2.414,0,0,0-3.395,0c-.33.259-.685.16-.761-.317m-6.114-2.484a1.3,1.3,0,0,1,1.444,1.288,8.246,8.246,0,0,0,.173.985c.041.2.153.412-.114.556a.484.484,0,0,1-.592-.052,2.922,2.922,0,0,0-.935-.559,2.341,2.341,0,0,0-2.3.525.641.641,0,0,1-.838.041c-.284-.2-.073-.44-.037-.662a4.2,4.2,0,0,0,.153-.986c-.077-.919.549-1.146,1.2-1.1a4.754,4.754,0,0,0,1.839-.035m1.472,6.216a3.935,3.935,0,0,0,.289-1.235c.027-.9.394-1.253,1.3-1.163a12.132,12.132,0,0,0,1.718,0c.511-.02,1.228-.058,1.279.673.045.652.458,1.3.326,1.845-.157.644-1.109.592-1.629,1a1.407,1.407,0,0,1-.232.145c-.253.131-.488.52-.792.255-.673-.587-1.6-.724-2.243-1.342-.031-.03-.012-.115-.017-.175M24.958,26.85c.44.025,1.019.022,1.174.483a13.436,13.436,0,0,1,.422,2.279c.007.047-.187.131-.292.189-2.062,1.123-2.058,1.114-4.174.007-.4-.211-.581-.454-.333-.854.359-.576-.137-1.4.505-1.858.6-.433,1.3-.134,1.955-.135a4.9,4.9,0,0,0,.742-.111m7.451-15.738c.208-4.106-3.28-8.318-7.837-7.855-.281.029-.585.056-.619-.339-.03-.363.255-.443.53-.512a4.912,4.912,0,0,1,2.447.153,8,8,0,0,1,6.126,6.479,9,9,0,0,1-2.645,8.791.554.554,0,0,1-.814.048c-.376-.31.038-.482.191-.638a8.114,8.114,0,0,0,2.621-6.129M7.4,21.295c-1.265-1.359-2.5-2.663-3.705-3.987A9.205,9.205,0,0,1,3.54,5.025,7.641,7.641,0,0,1,9.8,2.357c.356.012.907.02.82.609-.072.486-.521.295-.83.278A6.663,6.663,0,0,0,5.182,4.684,8.287,8.287,0,0,0,4.269,16.66c.751.842,1.5,1.692,2.313,2.472A2.432,2.432,0,0,1,7.4,21.295M12.03,6.725c0-1.528.024-3.056-.01-4.582-.014-.619.152-.847.817-.839q4.446.053,8.894,0c.628-.007.852.154.846.812q-.045,4.535-.005,9.072a2.133,2.133,0,0,1-1.4,2.133c-3.911,1.807-3.9,1.805-7.8-.03a2.067,2.067,0,0,1-1.339-2.075c.022-1.5.005-2.994,0-4.491M10.7,8.361H10.7c0,.916-.009,1.832,0,2.748a3.413,3.413,0,0,0,2.283,3.413q1.826.734,3.617,1.557A1.539,1.539,0,0,0,18,16.072c1.083-.5,2.167-1,3.284-1.406A3.687,3.687,0,0,0,23.9,10.723c-.039-1.74.008-3.481-.012-5.223-.009-.7.3-.975.987-1a5.56,5.56,0,0,1,4.106,1.494,6.939,6.939,0,0,1,.592,9.53c-1.181,1.4-2.486,2.69-3.708,4.056a7.134,7.134,0,0,1-3.219,2.426,1.084,1.084,0,0,1-.951.024c-.4-.24-.109-.543-.047-.808A2.88,2.88,0,0,0,20.624,18.2a2.368,2.368,0,0,0-2.747-.005,2.9,2.9,0,0,0-1.02,3.1c.065.263.376.584-.007.817-.314.191-.576-.064-.833-.224a2.227,2.227,0,0,0-2.506-.03c-.357.219-.682.592-1.148.289-.5-.325-.08-.717-.014-1.063a2.914,2.914,0,0,0-1.115-2.914,2.308,2.308,0,0,0-2.872.191c-.347.259-.551.271-.837-.048-.793-.889-1.634-1.735-2.406-2.641A6.863,6.863,0,0,1,3.634,9.332,6.06,6.06,0,0,1,9.717,4.508c.666.048,1.009.3.987,1.013-.03.945-.007,1.893-.007,2.84m-5,13.014a3.123,3.123,0,0,0-2.3,1.1,2.587,2.587,0,0,0-.482,2.5c.262.706.021.979-.626,1.191a5.868,5.868,0,0,0-1.373.716A1.946,1.946,0,0,0,.02,28.507c-.029,1.1-.012,2.2-.013,3.3,0,.4.065.725.584.74.573.016.64-.338.639-.775,0-.886.01-1.771.005-2.658a1.7,1.7,0,0,1,1.023-1.58c1.354-.786,2.825-.611,4.263-.64.665-.013.952.365,1.173,1.157.385,1.381-.164,1.8-1.258,2.291a3.172,3.172,0,0,0-1.6,3.738.6.6,0,0,0,.672.478c.363,0,.583-.147.614-.522.013-.152.017-.305.021-.457a3.256,3.256,0,0,1,3.522-3.013,7.192,7.192,0,0,1,3.24.677,1.934,1.934,0,0,1,1.228,2.031,3.842,3.842,0,0,0,.027.822c.047.4.348.453.674.462a.5.5,0,0,0,.592-.439,1.735,1.735,0,0,0,.031-.272c0-1.005-.143-2.059,1.115-2.532a7.694,7.694,0,0,1,2.77-.733,6.5,6.5,0,0,1,3.032.766,1.77,1.77,0,0,1,1.1,1.836c-.018.272,0,.549.009.824.016.444.305.545.683.551s.63-.191.558-.547c-.441-2.165,1.058-2.811,2.638-3.248a6.077,6.077,0,0,1,5.423.985,1.259,1.259,0,0,1,.471,1.047c.016.4.02.793.047,1.189a.563.563,0,0,0,.66.583c.423-.008.573-.209.626-.613.268-2.075-.377-3.2-2.491-4.014-.838-.322-1.19-.6-.907-1.614a2.465,2.465,0,0,0-1.176-2.766,2.19,2.19,0,0,0-2.726.135c-.25.186-.484.4-.814.183-.388-.257-.058-.539-.017-.81.021-.151.06-.3.079-.45.141-1.194.453-1.375,1.652-1.456a7.166,7.166,0,0,1,4.07.6,1.571,1.571,0,0,1,1.016,1.562c-.033.822-.017,1.648,0,2.473.009.48-.054,1.046.7,1.033.707-.01.611-.543.617-.991.008-.855-.021-1.711.008-2.566a2.508,2.508,0,0,0-1.583-2.545,3.937,3.937,0,0,0-.583-.266c-.952-.261-1.76-.6-1.172-1.838a.237.237,0,0,0,.005-.179c-.588-1.249.309-1.943.988-2.747C37.165,11.882,34.045,2.6,26.712,1.2A9.113,9.113,0,0,0,25.163,1.1c-.6-.012-1.257.143-1.363-.779C23.76-.026,23.392,0,23.121,0Q17.3,0,11.478,0c-.31,0-.674,0-.72.4-.086.755-.6.7-1.139.7a9.633,9.633,0,0,0-9.61,9.348,10.445,10.445,0,0,0,2.743,7.73c.939,1.029,1.885,2.05,2.944,3.2" transform="translate(0 0)" fill="#2ba175"/>
    <path id="Path_5418" data-name="Path 5418" d="M11.622,6.725c.11-.457.525-.415.867-.38.936.094,1.3-.306,1.169-1.216a2.019,2.019,0,0,1,0-.367c.012-.25.025-.516.352-.547.371-.035.466.223.487.522a7.154,7.154,0,0,1,.02.731c-.016.617.275.9.892.867.212-.012.427,0,.64.009.289.014.581.064.575.436s-.318.374-.6.4c-1.363.128-1.367.13-1.517,1.424-.038.322-.085.659-.482.653-.462-.008-.369-.414-.367-.7.017-1.258.1-1.435-1.339-1.386-.3.009-.64.041-.7-.452m-1.377-.007c0,.244.017.49,0,.732-.058.7.221,1.055.947.957.919-.124,1.4.17,1.242,1.185-.115.733.206,1.093.974,1.008a5.8,5.8,0,0,1,.64,0c1.622,0,1.65,0,1.784-1.566.056-.645.449-.61.889-.621,1.294-.034,1.294-.038,1.3-1.338,0-.183,0-.365,0-.549C18,5.3,18.242,4.9,16.615,5.005c-.61.038-.776-.257-.786-.825-.025-1.338-.048-1.338-1.385-1.342h-.458c-1.458,0-1.477,0-1.554,1.449-.026.5-.2.69-.7.723-1.486.1-1.485.117-1.483,1.71" transform="translate(3.165 0.878)" fill="#2ba175"/>
  </g>
</svg>
