<svg id="Group_149521" data-name="Group 149521" xmlns="http://www.w3.org/2000/svg" xmlns:xlink="http://www.w3.org/1999/xlink" width="35.45" height="37.729" viewBox="0 0 35.45 37.729">
  <defs>
    <clipPath id="clip-path">
      <rect id="Rectangle_65879" data-name="Rectangle 65879" width="35.45" height="37.729" fill="#2ba175"/>
    </clipPath>
  </defs>
  <g id="Group_149520" data-name="Group 149520" transform="translate(0 0)" clip-path="url(#clip-path)">
    <path id="Path_5409" data-name="Path 5409" d="M26.2,6.973a1.279,1.279,0,0,0-.456-.769,1.131,1.131,0,0,0-1.78.705c-.767,2.31-1.516,4.626-2.28,6.938-.079.241-.113.408.191.5.275.083.419.076.518-.26.494-1.661,1.023-3.311,1.521-4.97a2.5,2.5,0,0,1,2.069-1.934c.113-.021.229-.024.218-.208M16.264,33.692c1.075,0,2.15,0,3.227,0,.241,0,.362-.06.359-.349q-.019-1.512,0-3.023c0-.283-.1-.357-.353-.357q-3.187.01-6.38,0c-.279,0-.362.1-.359.391.013.981.016,1.964,0,2.946-.006.321.108.4.389.4,1.038-.014,2.079-.006,3.117-.006m-2.907-8.419c0,1.11.016,2.015-.006,2.919-.008.353.081.48.435.475,1.547-.019,3.1-.008,4.643-.008.824,0,.861,0,.813-.875a3.71,3.71,0,0,1,1.285-3.149c1.224-1.1,2.41-2.255,3.619-3.382a2.094,2.094,0,0,0,.643-1.035q1.3-5.123,2.591-10.25a1.205,1.205,0,0,0-.54-1.307,1.122,1.122,0,0,0-1.669.735c-.608,1.926-1.188,3.862-1.786,5.793a.783.783,0,0,0,.049.562,2.606,2.606,0,0,1-.98,3.244c-.37.238-.748.464-1.123.692-.749.457-1.5.924-2.258,1.366a.589.589,0,0,1-.87-.229.7.7,0,0,1,.241-.921c.1-.075.213-.137.319-.2,1.007-.616,2.021-1.223,3.02-1.853a1.225,1.225,0,0,0,.446-1.663,1.1,1.1,0,0,0-1.58-.438c-1.82,1.118-3.647,2.226-5.437,3.4a4.086,4.086,0,0,0-1.8,3.073c-.132,1.085-.014,2.174-.06,3.055M16.286,35Q14.3,35,12.31,35c-.584,0-.784-.21-.784-.823,0-1.559,0-3.119-.006-4.68,0-.376.078-.68.433-.824.213-.086.162-.27.162-.43,0-1.836-.011-3.671.006-5.505a5.55,5.55,0,0,1,2.6-4.867c1.675-1.092,3.39-2.12,5.089-3.168a.936.936,0,0,0,.433-.548c.838-2.591,1.691-5.177,2.541-7.762a2.378,2.378,0,0,1,4.645.224,3.787,3.787,0,0,0,.7,1.474,2.556,2.556,0,0,1,.453,2.293c-.591,2.395-1.2,4.784-1.8,7.176-.243.962-.491,1.923-.727,2.885A3.461,3.461,0,0,1,25.038,22.2c-1.232,1.154-2.444,2.339-3.7,3.471a2.422,2.422,0,0,0-.854,2.066,4.225,4.225,0,0,1,0,.511.42.42,0,0,0,.26.492.6.6,0,0,1,.335.6c0,1.653,0,3.3,0,4.956a.631.631,0,0,1-.711.705c-1.364,0-2.725,0-4.086,0" transform="translate(6.772 2.722)" fill="#2ba175"/>
    <path id="Path_5410" data-name="Path 5410" d="M3.551,5.973a1.146,1.146,0,0,0-1.029.821c-.073.224-.071.346.211.4A2.483,2.483,0,0,1,4.757,9.077c.51,1.683,1.038,3.36,1.54,5.045.1.343.273.286.507.216s.3-.17.213-.422c-.78-2.361-1.543-4.727-2.323-7.088a1.255,1.255,0,0,0-1.143-.854m8.829,27.715c1.038,0,2.079-.011,3.115.008.318,0,.438-.083.43-.438-.022-.956-.017-1.912,0-2.868,0-.319-.084-.432-.4-.43q-3.154.019-6.306,0c-.322,0-.4.127-.391.438q.021,1.434,0,2.866c-.006.321.083.437.4.432,1.051-.017,2.1-.008,3.152-.008m-.04-5.034c.867,0,1.734-.011,2.6,0,.286,0,.392-.081.391-.4-.013-1.809.017-3.619-.014-5.427a4.405,4.405,0,0,0-2.1-3.874c-1.693-1.065-3.393-2.115-5.094-3.163a1.124,1.124,0,0,0-1.656.359,1.244,1.244,0,0,0,.5,1.737c.662.411,1.329.813,1.993,1.22.429.264.865.513,1.278.8a.673.673,0,0,1,.238.918.607.607,0,0,1-.878.219,1.648,1.648,0,0,1-.162-.094c-1.051-.643-2.106-1.277-3.149-1.931A2.591,2.591,0,0,1,5.266,15.7a.679.679,0,0,0,.037-.489C4.7,13.257,4.113,11.3,3.5,9.342a1.178,1.178,0,0,0-1.434-.8,1.245,1.245,0,0,0-.745,1.543c.837,3.3,1.682,6.6,2.509,9.907a2.624,2.624,0,0,0,.792,1.339c1.248,1.156,2.48,2.333,3.724,3.495A3.324,3.324,0,0,1,9.383,26.69a7.241,7.241,0,0,1,.04,1.529c-.01.354.108.449.427.441.83-.021,1.659-.006,2.49-.006M12.364,35q-1.986,0-3.975,0c-.588,0-.791-.21-.792-.815,0-1.574,0-3.147,0-4.719a.745.745,0,0,1,.427-.789.256.256,0,0,0,.17-.27c0-.4.019-.815-.014-1.218a1.993,1.993,0,0,0-.645-1.329c-1.307-1.224-2.6-2.463-3.908-3.689a3.387,3.387,0,0,1-.98-1.678C1.794,17.142.934,13.792.1,10.436A2.558,2.558,0,0,1,.967,7.667.62.62,0,0,0,1.21,7.14,2.5,2.5,0,0,1,3.122,4.672,2.467,2.467,0,0,1,5.9,6.386q1.281,3.9,2.547,7.8a.843.843,0,0,0,.386.492c1.723,1.062,3.457,2.1,5.153,3.211a5.529,5.529,0,0,1,2.576,4.8c.027,1.836.01,3.671,0,5.507,0,.256.029.441.291.554a.582.582,0,0,1,.308.583c0,1.664,0,3.328,0,4.994,0,.451-.257.67-.74.672q-2.025,0-4.049,0" transform="translate(0 2.726)" fill="#2ba175"/>
    <path id="Path_5411" data-name="Path 5411" d="M23.849,5.81A4.648,4.648,0,0,0,17.055,1.89a6.281,6.281,0,0,0-1.577,1.293c-.378.392-.678.383-1.065,0-.154-.152-.3-.316-.453-.467A4.317,4.317,0,0,0,10.209,1.4a4.553,4.553,0,0,0-3.9,3.3A4.933,4.933,0,0,0,7.392,9.861c2.415,2.615,4.878,5.178,7.316,7.77.181.192.289.2.476,0,2.426-2.584,4.867-5.151,7.292-7.738A5.429,5.429,0,0,0,23.849,5.81m1.3.484a6.588,6.588,0,0,1-1.731,4.492q-3.928,4.185-7.878,8.346c-.454.48-.735.476-1.2-.011-2.611-2.761-5.239-5.5-7.82-8.294A6.242,6.242,0,0,1,5.1,4.3,5.787,5.787,0,0,1,10.123.07a5.381,5.381,0,0,1,4.443,1.442c.3.273.472.245.767-.008A5.473,5.473,0,0,1,21.288.457,6.072,6.072,0,0,1,25.048,5.3a9.86,9.86,0,0,1,.1.994" transform="translate(2.782 0)" fill="#2ba175"/>
    <path id="Path_5412" data-name="Path 5412" d="M12.145,9.185h0c0,.091,0,.183,0,.275.021.919-.178.8.84.816.229,0,.3-.1.3-.33-.011-.47-.008-.942,0-1.413,0-.541.214-.767.716-.775.3,0,.592,0,.891,0,.87-.016.753.162.772-.848,0-.278-.094-.368-.348-.359-.408.014-.816,0-1.224,0-.611,0-.805-.2-.81-.837,0-.289,0-.576,0-.864-.017-.923.176-.805-.835-.819-.227,0-.306.1-.3.327q.012.748,0,1.493a.625.625,0,0,1-.643.7c-.308.013-.618,0-.929.006-.911.021-.791-.2-.805.889,0,.243.094.321.311.316q.705-.012,1.41,0a.618.618,0,0,1,.656.68c.008.248,0,.5,0,.746M16.9,7.15c0,.392,0,.786,0,1.178-.006.484-.229.727-.681.737s-.916.011-1.374,0c-.243-.006-.33.092-.326.346.011.47.006.943,0,1.415,0,.511-.224.753-.7.757q-1.117.012-2.228,0c-.464,0-.681-.237-.689-.722s-.011-.969,0-1.453c.008-.259-.089-.349-.329-.341-.443.011-.889.006-1.334,0-.491-.006-.711-.232-.715-.737q-.012-1.179,0-2.358c0-.489.224-.724.681-.732s.915-.011,1.37,0c.243.008.333-.089.326-.345-.011-.47,0-.943,0-1.413,0-.521.214-.756.692-.761.743-.006,1.483-.006,2.228,0,.476,0,.686.24.694.759,0,.472.008.943,0,1.415,0,.252.083.353.326.345.457-.011.913-.008,1.374,0s.672.243.681.732c0,.392,0,.786,0,1.178" transform="translate(5.012 1.597)" fill="#2ba175"/>
  </g>
</svg>
