<svg id="Group_149530" data-name="Group 149530" xmlns="http://www.w3.org/2000/svg" xmlns:xlink="http://www.w3.org/1999/xlink" width="36.36" height="34.634" viewBox="0 0 36.36 34.634">
  <defs>
    <clipPath id="clip-path">
      <rect id="Rectangle_65884" data-name="Rectangle 65884" width="36.36" height="34.634" fill="#2ba175"/>
    </clipPath>
  </defs>
  <g id="Group_149529" data-name="Group 149529" transform="translate(0 0)" clip-path="url(#clip-path)">
    <path id="Path_5427" data-name="Path 5427" d="M23.044,20.988a2.41,2.41,0,0,0-1.468-2.365,2.186,2.186,0,0,0-2.686.345c-.569.54-.957.473-1.493-.03a2.21,2.21,0,0,0-2.6-.333,2.48,2.48,0,0,0-1.522,2.291,4.155,4.155,0,0,0,1.345,3.21c3.678,3.62,3.4,3.6,7.061.035a4.171,4.171,0,0,0,1.365-3.152M11.426,27.119c.831-2.9-.824-5.569-2.875-8.238C5.772,15.268,3.2,11.493.753,7.645c-1.66-2.605-.462-5.5,2.482-6A3.609,3.609,0,0,1,7.029,3.483c1.789,2.761,3.549,5.539,5.344,8.3a6.559,6.559,0,0,0,4.289,3,6.729,6.729,0,0,0,7.278-3.006c1.824-2.781,3.586-5.6,5.41-8.385a3.635,3.635,0,0,1,3.842-1.742A3.825,3.825,0,0,1,36.308,4.79a4.113,4.113,0,0,1-.86,3.047c-2.732,4.2-5.571,8.332-8.6,12.318a8.377,8.377,0,0,0-1.995,6.155c.177,1.89.019,3.81.04,5.716a1.213,1.213,0,0,1-1,1.365A20.042,20.042,0,0,1,12.4,33.42a1.165,1.165,0,0,1-.982-1.278c.021-1.457.006-2.915.006-5.023" transform="translate(0 0.388)" fill="#2ba175"/>
    <path id="Path_5428" data-name="Path 5428" d="M15.943,13.276A6.573,6.573,0,0,1,9.255,6.629a6.64,6.64,0,0,1,13.28.017,6.574,6.574,0,0,1-6.592,6.629" transform="translate(2.261 0)" fill="#2ba175"/>
  </g>
</svg>
