<svg id="Group_149523" data-name="Group 149523" xmlns="http://www.w3.org/2000/svg" xmlns:xlink="http://www.w3.org/1999/xlink" width="35.932" height="32.26" viewBox="0 0 35.932 32.26">
  <defs>
    <clipPath id="clip-path">
      <rect id="Rectangle_65880" data-name="Rectangle 65880" width="35.932" height="32.26" fill="#2ba175"/>
    </clipPath>
  </defs>
  <g id="Group_149522" data-name="Group 149522" transform="translate(0 0)" clip-path="url(#clip-path)">
    <path id="Path_5413" data-name="Path 5413" d="M31.554,21.354v8.395c0,.342,0,.342-.331.342H29.967c-.276,0-.276,0-.276-.284q0-4.607,0-9.212a1.618,1.618,0,0,0-.031-.4.633.633,0,0,0-.861-.434.658.658,0,0,0-.4.672q.006,4.666,0,9.333c0,.322,0,.322-.331.322H26.9c-.352,0-.352,0-.352-.344V11.661c0-.562-.178-.762-.732-.854-.293-.049-.588-.109-.877-.179a12.975,12.975,0,0,1-5.762-3.069A10.965,10.965,0,0,1,17.211,5.21.86.86,0,0,1,17.2,4.2a.97.97,0,0,1,1.519-.136,21.754,21.754,0,0,0,2.467,2.11A18.708,18.708,0,0,0,25.522,8.6a1.354,1.354,0,0,0,.486.086q2.982,0,5.962,0a3.582,3.582,0,0,1,.694.058,2.477,2.477,0,0,1,2,2.451q.008,3.44,0,6.88c0,.039,0,.08,0,.119a.93.93,0,0,1-.874.877.9.9,0,0,1-.945-.79,2.234,2.234,0,0,1-.024-.357q0-2.523,0-5.045a.612.612,0,0,0-.543-.633.636.636,0,0,0-.7.441,1.08,1.08,0,0,0-.024.316Zm-20.877-.3q0-4.377-.005-8.755c0-.225.071-.305.285-.35a13.291,13.291,0,0,0,2.926-.971,14.21,14.21,0,0,0,3.88-2.623c.14-.134.227-.157.386-.007a14.2,14.2,0,0,0,6.844,3.6c.216.046.267.138.266.346q-.01,3.77,0,7.538,0,5.016,0,10.032c0,.182-.048.232-.234.229q-1.275-.014-2.553,0c-.152,0-.2-.035-.193-.186.007-.631,0-1.263,0-1.894,0-.551.005-1.1,0-1.655a.636.636,0,0,0-.827-.631.666.666,0,0,0-.46.713q0,1.725,0,3.45c0,.144-.022.205-.2.205q-2.813-.014-5.624,0c-.205,0-.24-.061-.239-.244.007-1.123,0-2.247,0-3.37,0-.486-.257-.79-.656-.787s-.634.308-.634.783c0,1.136,0,2.274,0,3.411,0,.166-.043.209-.213.206-.836-.011-1.675-.014-2.512,0-.206,0-.254-.05-.254-.251q.01-4.4.005-8.8m7.309,10.327H35.158a1.364,1.364,0,0,0,.316-.022.638.638,0,0,0-.045-1.234,1.743,1.743,0,0,0-.337-.027c-.679,0-1.356-.007-2.034,0-.178,0-.244-.049-.243-.238q.008-4.735,0-9.473c0-.224,0-.224.22-.149a2.186,2.186,0,0,0,2.889-2.064q0-3.529,0-7.059a3.724,3.724,0,0,0-3.7-3.693q-2.992,0-5.984,0a1.182,1.182,0,0,1-.463-.1,19.485,19.485,0,0,1-6.17-4.176,2.121,2.121,0,0,0-2.236-.568,2.18,2.18,0,0,0-1.586,1.754,2.018,2.018,0,0,0,.278,1.456,9.624,9.624,0,0,0,.9,1.268c.111.133.1.21-.023.326a13.083,13.083,0,0,1-6.872,3.431c-.5.084-.68.3-.68.838V29.741a1.576,1.576,0,0,0,0,.16c.016.143-.031.2-.187.194-.472-.011-.944-.012-1.416,0-.2.005-.262-.057-.261-.261q.008-4.686.005-9.374a.718.718,0,0,0-.182-.55.6.6,0,0,0-.619-.172.615.615,0,0,0-.46.475,1.617,1.617,0,0,0-.029.4V29.8c0,.286,0,.286-.292.286-.439,0-.877-.01-1.316,0-.2.005-.259-.064-.258-.263q.006-5.623,0-11.248,0-2.843,0-5.684a.615.615,0,0,0-.352-.6.606.606,0,0,0-.676.069.643.643,0,0,0-.239.562q0,2.5,0,5.006a1.886,1.886,0,0,1-.02.316.906.906,0,0,1-.968.809.928.928,0,0,1-.855-.935c-.007-.406,0-.811,0-1.217,0-1.9-.005-3.8,0-5.7a2.453,2.453,0,0,1,1.086-2.09A2.588,2.588,0,0,1,3.9,8.682q3,0,6,0a1.417,1.417,0,0,0,.525-.094A18.838,18.838,0,0,0,14.844,6.1a.624.624,0,0,0,.13-.9.631.631,0,0,0-.921-.1,19.686,19.686,0,0,1-2.9,1.779c-.2.1-.4.181-.6.28a2.6,2.6,0,0,1-1.246.267C7.453,7.408,5.6,7.417,3.743,7.418a3.748,3.748,0,0,0-3.73,3.316,3.259,3.259,0,0,0-.012.4q0,3.5,0,7a2.193,2.193,0,0,0,2.167,2.221,1.951,1.951,0,0,0,.779-.144c.125-.052.172-.016.166.115-.005.087,0,.172,0,.259v9.193c0,.312,0,.314-.32.314-.645,0-1.29,0-1.935,0a1.865,1.865,0,0,0-.337.024A.62.62,0,0,0,0,30.811a.614.614,0,0,0,.612.565c.08,0,.16,0,.24,0H17.986" transform="translate(0 0.883)" fill="#2ba175"/>
    <path id="Path_5414" data-name="Path 5414" d="M3.817,3.572a2.268,2.268,0,0,1,.3-1.158,2.1,2.1,0,0,1,3.267-.585,2.461,2.461,0,0,1,.152,3.417,1.993,1.993,0,0,1-1.866.678A2.264,2.264,0,0,1,3.817,3.572m-1.289.065A3.579,3.579,0,0,0,5.435,7.188a3.4,3.4,0,0,0,3.43-1.58A3.708,3.708,0,0,0,7.812.548a3.372,3.372,0,0,0-4.79,1.2,3.75,3.75,0,0,0-.494,1.886" transform="translate(0.904 0)" fill="#2ba175"/>
    <path id="Path_5415" data-name="Path 5415" d="M24.468,3.691a2.237,2.237,0,0,1-.223.971,2.1,2.1,0,0,1-3.515.568,2.462,2.462,0,0,1,.126-3.362,2.062,2.062,0,0,1,2.911.027,2.37,2.37,0,0,1,.7,1.8m1.287-.069A3.627,3.627,0,0,0,23.583.255a3.375,3.375,0,0,0-4.141,1.329,3.73,3.73,0,0,0,.629,4.793A3.365,3.365,0,0,0,25.2,5.59a3.729,3.729,0,0,0,.559-1.967" transform="translate(6.741 0)" fill="#2ba175"/>
    <path id="Path_5416" data-name="Path 5416" d="M15.588,20.213h0c0,.519,0,1.037,0,1.555,0,.177-.072.254-.251.25-.305-.005-.611,0-.916,0s-.345-.023-.345-.337v-2.87c0-.569-.244-.812-.815-.813q-1.456,0-2.911,0c-.261,0-.291-.031-.292-.284,0-.293,0-.585,0-.877,0-.333.018-.35.348-.35q1.446,0,2.892,0a.728.728,0,0,0,.661-.293.839.839,0,0,0,.117-.5V12.783c0-.288.026-.314.3-.314h.778c.432,0,.432,0,.432.424q0,1.415,0,2.831a.706.706,0,0,0,.326.664.853.853,0,0,0,.462.1h2.95c.242,0,.278.039.28.278q0,.468,0,.937c0,.269-.026.3-.3.3-.99,0-1.98,0-2.971,0a.674.674,0,0,0-.745.74c0,.492,0,.984,0,1.476M11.357,15.2c-.379,0-.758,0-1.136,0a1.413,1.413,0,0,0-1.427,1.309,8.389,8.389,0,0,0,0,1.454,1.418,1.418,0,0,0,1.454,1.325c.771,0,1.542.005,2.314,0,.172,0,.231.048.229.225-.008.758.008,1.515-.007,2.273a1.45,1.45,0,0,0,1.506,1.5c.384-.026.771,0,1.157-.005a1.414,1.414,0,0,0,1.43-1.409q.012-1.167,0-2.333c0-.208.065-.258.262-.255.73.011,1.462,0,2.194,0a1.436,1.436,0,0,0,1.555-1.457,9.124,9.124,0,0,0-.014-1.335,1.417,1.417,0,0,0-1.4-1.3c-.783-.005-1.568-.007-2.353,0-.2,0-.246-.064-.244-.251.01-.737.005-1.476,0-2.213a1.427,1.427,0,0,0-1.4-1.545,7.8,7.8,0,0,0-1.413.012,1.416,1.416,0,0,0-1.271,1.405q-.012,1.175,0,2.353c0,.181-.049.244-.236.239-.4-.014-.8,0-1.2,0" transform="translate(3.134 3.994)" fill="#2ba175"/>
  </g>
</svg>
