<svg xmlns="http://www.w3.org/2000/svg" xmlns:xlink="http://www.w3.org/1999/xlink" width="35.573" height="35.441" viewBox="0 0 35.573 35.441">
  <defs>
    <clipPath id="clip-path">
      <rect id="Rectangle_65885" data-name="Rectangle 65885" width="35.573" height="35.441" fill="#2ba175"/>
    </clipPath>
  </defs>
  <g id="Group_149532" data-name="Group 149532" transform="translate(0 0)">
    <g id="Group_149531" data-name="Group 149531" transform="translate(0 0)" clip-path="url(#clip-path)">
      <path id="Path_5429" data-name="Path 5429" d="M13.122,20.039a3.237,3.237,0,1,0,6.474-.01,3.237,3.237,0,0,0-6.474.01M0,23.568q1.551-5.357,3.1-10.713a2.7,2.7,0,0,1,2.647-2.011c3.6,0,7.2-.009,10.805,0A2.6,2.6,0,0,1,19.02,12.38c.9,1.819,1.777,3.65,2.664,5.475l1.728,3.559a2.654,2.654,0,0,1-.464,3.123q-2.393,2.557-4.794,5.1c-.3.324-.6.658-.92.966a2.682,2.682,0,0,1-4.533-1.6,2.593,2.593,0,0,1,.728-2.179q.852-.923,1.726-1.826a.277.277,0,0,0,.016-.45,1.415,1.415,0,0,0-.68-.4,3.164,3.164,0,0,1-2.085-1.635,2.813,2.813,0,0,1-.212-.632,1.173,1.173,0,1,0-2.29.493,4.972,4.972,0,0,0,2.248,3.256,1.075,1.075,0,0,0,.093.06c.157.086.118.15-.012.227a1.837,1.837,0,0,1-2.241-.252,4.395,4.395,0,0,1-.876-1.25,1.833,1.833,0,0,0-1.336-1.036,1.971,1.971,0,0,0-1.444.38c-.128.082-.055.158.012.233L7.52,25.313c.915,1.021,1.837,2.035,2.741,3.064a2.683,2.683,0,0,1-1.226,4.317l-.232.08H7.649a3.282,3.282,0,0,1-1.6-1.034Q3.521,28.879.96,26.044A3.487,3.487,0,0,1,0,24.28Z" transform="translate(0 2.668)" fill="#2ba175"/>
      <path id="Path_5430" data-name="Path 5430" d="M21.4,15.6c.289,0,.578,0,.867,0A1.585,1.585,0,0,0,23.9,13.97c0-.556.006-1.112,0-1.667,0-.2.06-.274.267-.269.563.011,1.127.007,1.69,0a1.583,1.583,0,0,0,1.608-1.608c0-.578,0-1.156,0-1.735a1.569,1.569,0,0,0-1.666-1.672c-.562,0-1.125-.016-1.689-.014-.172,0-.211-.067-.208-.224q.009-.879,0-1.756A1.542,1.542,0,0,0,22.571,3.48a10.031,10.031,0,0,0-2.263-.011A1.528,1.528,0,0,0,18.885,5.1c0,.533,0,1.067,0,1.6,0,.3-.012.315-.31.317-.578,0-1.156-.007-1.733,0a1.523,1.523,0,0,0-1.5,1.322,10.394,10.394,0,0,0-.015,2.218,1.549,1.549,0,0,0,1.667,1.469c.535,0,1.068.011,1.6,0,.227-.006.3.07.293.29-.01.593-.015,1.186,0,1.779A1.551,1.551,0,0,0,20.419,15.6c.326.006.653,0,.978,0M32.671,7.915c-.079.369-.143.741-.237,1.107a12.515,12.515,0,0,1-2.213,4.349,26.353,26.353,0,0,1-3.448,3.7c-1.654,1.5-3.439,2.836-5.22,4.178-.122.092-.216.108-.328,0a1.31,1.31,0,0,0-.141-.107,3.314,3.314,0,0,1-1.523-1.914c-.5-1.089-1.048-2.157-1.575-3.236-.26-.532-.5-1.074-.781-1.6a3.87,3.87,0,0,0-3.185-2.122c-.672-.069-1.347-.017-2.021-.032-.07,0-.172.032-.2-.049-.036-.1.079-.127.138-.171a6.3,6.3,0,0,0,2.74-4.471,6.314,6.314,0,0,0-2.243-5.817c-.16-.14-.155-.206,0-.331A6.239,6.239,0,0,1,15.779.03,1.128,1.128,0,0,0,15.907,0h.935c.05.011.1.025.151.031a5.548,5.548,0,0,1,2.379.788c.44.273.87.562,1.3.847a1.213,1.213,0,0,0,1.469-.024c.086-.059.174-.111.262-.167A9.912,9.912,0,0,1,24.256.393,7.739,7.739,0,0,1,25.912,0h1.023a1.128,1.128,0,0,0,.128.03,6.106,6.106,0,0,1,5.043,3.747,8.348,8.348,0,0,1,.564,2.092Z" transform="translate(2.902 0)" fill="#2ba175"/>
      <path id="Path_5431" data-name="Path 5431" d="M15.21,6.419A5.231,5.231,0,1,1,10,1.169a5.235,5.235,0,0,1,5.211,5.25" transform="translate(1.168 0.288)" fill="#2ba175"/>
    </g>
  </g>
</svg>
