<svg xmlns="http://www.w3.org/2000/svg" xmlns:xlink="http://www.w3.org/1999/xlink" width="34.762" height="36.518" viewBox="0 0 34.762 36.518">
  <defs>
    <clipPath id="clip-path">
      <rect id="Rectangle_65882" data-name="Rectangle 65882" width="34.762" height="36.518" fill="#2ba175"/>
    </clipPath>
  </defs>
  <g id="Group_149526" data-name="Group 149526" transform="translate(0 0)">
    <g id="Group_149525" data-name="Group 149525" transform="translate(0 0.001)" clip-path="url(#clip-path)">
      <path id="Path_5419" data-name="Path 5419" d="M9.581,10.395c.464-.258.88-.452,1.257-.706a6.254,6.254,0,0,1,3.72-.936q9.023.08,18.046,0a2.044,2.044,0,0,1,2.155,2.13q-.006,4.71,0,9.421c0,.378-.125.513-.512.507-1.228-.019-2.457-.009-3.685-.005a3.408,3.408,0,0,0-1.384.283.627.627,0,0,0-.453.591.649.649,0,0,0,.474.621,3.244,3.244,0,0,0,1.267.232q1.864-.006,3.728,0c.512,0,.56.045.56.542q0,5.758,0,11.515a1.722,1.722,0,0,1-1.8,1.921c-.181.014-.364.009-.544.009H2.347c-.181,0-.364.005-.543-.009A1.719,1.719,0,0,1,0,34.588Q0,22.78,0,10.973A2.14,2.14,0,0,1,1.384,9.054C3.287,8.365,5.2,7.7,7.1,7.021q6.984-2.475,13.968-4.947,2.821-1,5.646-1.984c.683-.239,1.021,0,1.026.725.008,1.424-.005,2.847.008,4.271,0,.35-.135.479-.472.461a7.539,7.539,0,0,0-.878,0c-.376.024-.532-.125-.523-.508.016-.711.005-1.424,0-2.135,0-.544,0-.549-.494-.373Q16.817,5.608,8.251,8.687C6.268,9.4,4.287,10.117,2.3,10.81a.566.566,0,0,0-.44.638q.013,11.3,0,22.609c0,.408.126.518.524.518q14.989-.013,29.98,0c.432,0,.539-.131.537-.548-.016-3.057-.009-6.114-.009-9.171,0-.556,0-.557-.557-.558q-1.59,0-3.182,0a1.937,1.937,0,0,1-2.265-1.962,4.746,4.746,0,0,1,.092-1.789,1.817,1.817,0,0,1,1.873-1.473c1.16,0,2.318,0,3.476,0,.56,0,.561,0,.562-.544,0-2.5-.009-5,.009-7.5,0-.417-.1-.551-.537-.548-3.265.018-6.532.01-9.8.01q-6.2,0-12.393,0a.986.986,0,0,1-.59-.1" transform="translate(0 -0.001)" fill="#2ba175"/>
      <path id="Path_5420" data-name="Path 5420" d="M12.2,19.39c.071.04.08.117.1.182q.595,1.5,1.187,3c.112.282.221.565.347.84a.491.491,0,0,0,.462.322.5.5,0,0,0,.489-.318c.033-.072.066-.144.1-.219.268-.639.543-1.276.8-1.921A.387.387,0,0,1,16.114,21c1.181.009,2.361,0,3.541,0,.884,0,.884,0,1.314-.778.125-.226.11-.256-.143-.256H15.564a.636.636,0,0,0-.656.452c-.145.388-.313.767-.474,1.149-.02.049-.035.119-.1.124-.082.008-.093-.076-.116-.13q-.15-.352-.291-.707-.625-1.58-1.248-3.159a.579.579,0,0,0-.369-.408.505.505,0,0,0-.662.35c-.293.834-.584,1.67-.856,2.511a.369.369,0,0,1-.433.3c-.333-.019-.669-.005-1-.005q-1.053,0-2.1,0c-.068,0-.159-.033-.2.047s.04.131.081.187c.155.212.32.418.469.634a.376.376,0,0,0,.345.165c1.013-.005,2.025,0,3.038,0a.525.525,0,0,0,.586-.421c.171-.489.339-.979.512-1.468.025-.069.024-.16.115-.2M6.413,21.546c-.351,0-.7,0-1.052,0a.587.587,0,1,1,0-1.168c.431-.008.861,0,1.292,0,.129,0,.2-.01.121-.173a5.341,5.341,0,0,1,.419-5.413,4.247,4.247,0,0,1,1.995-1.725,4.125,4.125,0,0,1,3.323.069,3.812,3.812,0,0,1,1.218.791c.152.149.246.123.394-.009a4.339,4.339,0,0,1,3.7-1.1,4,4,0,0,1,2.6,1.646,5.609,5.609,0,0,1,1.184,3.587,5.413,5.413,0,0,1-.306,1.614c-.062.183-.037.245.163.239.326-.01.653-.005.98,0a.618.618,0,0,1,.685.608.593.593,0,0,1-.672.561q-.872.006-1.746,0a.37.37,0,0,0-.326.153,35.682,35.682,0,0,1-3.9,4.033c-.658.6-1.338,1.182-2.012,1.766-.427.369-.635.38-1.064.023a57.2,57.2,0,0,1-4.545-4.2,12.619,12.619,0,0,1-1-1.123.406.406,0,0,0-.368-.174c-.359.009-.717,0-1.076,0" transform="translate(1.242 3.354)" fill="#2ba175"/>
    </g>
  </g>
</svg>
