<svg id="Group_148651" data-name="Group 148651" xmlns="http://www.w3.org/2000/svg" xmlns:xlink="http://www.w3.org/1999/xlink" width="27.514" height="23.35" viewBox="0 0 27.514 23.35">
  <defs>
    <clipPath id="clip-path">
      <rect id="Rectangle_65597" data-name="Rectangle 65597" width="27.514" height="23.35" fill="#fff"/>
    </clipPath>
  </defs>
  <g id="Group_148650" data-name="Group 148650" transform="translate(0 0)" clip-path="url(#clip-path)">
    <path id="Path_177" data-name="Path 177" d="M14.126,4.481c.918,0,1.835-.012,2.753.005.465.008.511-.161.346-.553A3.219,3.219,0,0,0,13.432,2.2a2.762,2.762,0,0,0-2.375,1.723c-.147.422-.127.58.373.564.9-.029,1.8-.008,2.7-.009M13.774,23.35q-5.256,0-10.512,0A6.706,6.706,0,0,1,2.23,23.3,2.289,2.289,0,0,1,0,20.7Q0,14.021,0,7.344A2.568,2.568,0,0,1,2.829,4.49c1.743-.023,3.486-.011,5.228,0,.319,0,.514-.048.617-.42A5.11,5.11,0,0,1,13.6.03a6.007,6.007,0,0,1,4.294,1.094,4.8,4.8,0,0,1,1.9,3.586,1.34,1.34,0,0,1-1.248,1.509,7.71,7.71,0,0,1-.975.033q-7.093,0-14.188,0c-1.015,0-1.157.145-1.158,1.168q0,6.591,0,13.182c0,.84.112.96.962.961q10.542,0,21.082,0c.8,0,1.033-.227,1.035-1.018q.006-6.648,0-13.3c0-.763-.23-.985-1-1-.651-.009-1.3,0-1.953-.006a2.646,2.646,0,0,1-.679-.08.794.794,0,0,1-.631-.846.709.709,0,0,1,.641-.763,11.264,11.264,0,0,1,4.215.152A2.378,2.378,0,0,1,27.5,7.23c.018,1.2.005,2.407.005,3.61,0,3.267.009,6.533,0,9.8a2.421,2.421,0,0,1-2.645,2.7c-.249.01-.5.008-.747.008H13.774Z" transform="translate(0 0)" fill="#fff"/>
    <path id="Path_178" data-name="Path 178" d="M10.162,14.14c-.4,0-.8.012-1.206,0a1.114,1.114,0,0,1-1.162-1.032,1.1,1.1,0,0,1,1.094-1.167c.687-.044,1.378-.018,2.067-.021,1.2,0,1.058.077,1.067-1.094,0-.649-.011-1.3.008-1.948a1.028,1.028,0,0,1,1.046-1.118,1.043,1.043,0,0,1,1.146,1.03c.054.741.027,1.488.03,2.233,0,.9,0,.893.931.9.727,0,1.456-.015,2.181.025a1.1,1.1,0,0,1,1.054.83,1.035,1.035,0,0,1-.376,1.127,1.165,1.165,0,0,1-.807.242c-.8,0-1.608.015-2.411-.005-.418-.011-.586.136-.577.563.019.821.024,1.644-.005,2.463a1.109,1.109,0,1,1-2.213.039q-.028-1.26,0-2.521c.006-.393-.149-.556-.543-.54-.44.017-.88,0-1.321,0Z" transform="translate(0.622 0.62)" fill="#fff"/>
  </g>
</svg>
