<svg id="Group_148647" data-name="Group 148647" xmlns="http://www.w3.org/2000/svg" xmlns:xlink="http://www.w3.org/1999/xlink" width="24.166" height="36.875" viewBox="0 0 24.166 36.875">
  <defs>
    <clipPath id="clip-path">
      <rect id="Rectangle_65595" data-name="Rectangle 65595" width="24.166" height="36.875" fill="#fff"/>
    </clipPath>
  </defs>
  <g id="Group_148646" data-name="Group 148646" transform="translate(0 0)" clip-path="url(#clip-path)">
    <path id="Path_175" data-name="Path 175" d="M5.7,10.242a4.694,4.694,0,0,0,.037.491,6.032,6.032,0,0,0,.158.715,36.594,36.594,0,0,0,2.79,6.334c.176.342.31.227.475-.011.661-.957,1.318-1.917,2-2.857a.631.631,0,0,0,.011-.848,37.826,37.826,0,0,1-3.687-6.6c-.1-.261-.219-.231-.4-.088A3.326,3.326,0,0,0,5.7,10.242m6.347-4.353A9.5,9.5,0,0,0,8.991,6.4c-.682.214-.7.238-.415.891a41.228,41.228,0,0,0,3.327,5.92c.157.241.254.192.384-.017.395-.639.805-1.266,1.2-1.907a31.476,31.476,0,0,0,2.2-4.183c.145-.342.085-.528-.293-.646a10.511,10.511,0,0,0-3.339-.571m.039-4.768c-.336,0-.674-.017-1.01,0A3.478,3.478,0,0,0,8.14,2.892,8.69,8.69,0,0,0,7.088,5.577c-.027.128-.133.289-.01.388s.254-.044.373-.1A10.734,10.734,0,0,1,12.34,4.778a10.842,10.842,0,0,1,4.425,1.107c.106.051.221.17.334.085s.026-.229,0-.344a8.719,8.719,0,0,0-1.108-2.808,3.43,3.43,0,0,0-2.344-1.626,7.3,7.3,0,0,0-1.557-.07m7.782,34.094c.191-.022.227-.176.291-.287.847-1.457,1.673-2.926,2.537-4.371a.753.753,0,0,0-.081-1.008c-2.387-2.975-4.742-5.976-6.965-9.077-.255-.356-.348-.171-.5.073-.738,1.236-1.474,2.474-2.234,3.7a.535.535,0,0,0,.022.7c.228.307.429.634.633.958,1.94,3.089,4.024,6.082,6.1,9.077.06.086.13.165.19.239m-1.4-25.089A3.281,3.281,0,0,0,17.119,7.4c-.232-.186-.349-.174-.452.123a13.017,13.017,0,0,1-.844,1.834,86.245,86.245,0,0,1-6.5,10.066c-2.5,3.471-5.11,6.85-7.795,10.176a.678.678,0,0,0-.079.9q1.295,2.2,2.546,4.419c.2.356.319.35.547.014,1.538-2.269,3.109-4.516,4.615-6.808,1.936-2.945,3.813-5.924,5.565-8.982a45.9,45.9,0,0,0,3.186-6.515,6.956,6.956,0,0,0,.568-2.5M12.11,0A5.186,5.186,0,0,1,16.443,1.6a7.729,7.729,0,0,1,1.493,2.928c.117.4.21.8.291,1.206a6.455,6.455,0,0,0,.838,2.348,4.112,4.112,0,0,1,.394,2.99,17.673,17.673,0,0,1-1.652,4.52c-.5,1.07-1.058,2.11-1.622,3.146a.594.594,0,0,0,.058.741q3.616,4.934,7.452,9.695c.6.75.605.745.139,1.56q-1.575,2.753-3.148,5.508c-.053.093-.108.186-.169.274-.32.462-.7.486-1.035.03-.591-.8-1.159-1.621-1.728-2.438-1.828-2.631-3.614-5.288-5.334-7.99-.317-.5-.34-.5-.657,0-2.136,3.365-4.385,6.653-6.678,9.913-.044.063-.089.125-.135.187-.673.913-.971.887-1.525-.092-1.048-1.854-2.112-3.7-3.174-5.545-.346-.6-.352-.667.091-1.221C2.9,26.142,5.421,22.9,7.856,19.59a.777.777,0,0,0,.077-.978,41.76,41.76,0,0,1-2.8-5.94,7.534,7.534,0,0,1-.489-2.79,4,4,0,0,1,.714-2.243,2.519,2.519,0,0,0,.407-1.006A14.885,14.885,0,0,1,6.877,2.9,4.894,4.894,0,0,1,11.466,0C11.68,0,11.9,0,12.11,0" transform="translate(0 0)" fill="#fff"/>
  </g>
</svg>
