<svg id="Group_148645" data-name="Group 148645" xmlns="http://www.w3.org/2000/svg" xmlns:xlink="http://www.w3.org/1999/xlink" width="31.582" height="31.847" viewBox="0 0 31.582 31.847">
  <defs>
    <clipPath id="clip-path">
      <rect id="Rectangle_65594" data-name="Rectangle 65594" width="31.582" height="31.847" fill="#fff"/>
    </clipPath>
  </defs>
  <g id="Group_148644" data-name="Group 148644" transform="translate(0 0)" clip-path="url(#clip-path)">
    <path id="Path_168" data-name="Path 168" d="M23.865,14.494v-.166c0-.677,0-.667-.645-.595a3.242,3.242,0,0,1-1.2-.056c-.155-.041-.326-.083-.46.066a2.418,2.418,0,0,0,.067,1.591,2.11,2.11,0,0,0,1.79.15c.547-.138.439-.595.444-.99M10.141,14.45V14.23c0-.684,0-.688-.648-.544a3.25,3.25,0,0,1-1.352.009c-.143-.029-.288-.078-.4.074a2.991,2.991,0,0,0,.1,1.543,2.126,2.126,0,0,0,1.834.174c.56-.144.46-.621.465-1.036m9.294-6.441A5.536,5.536,0,0,0,20.7,11.274a2.563,2.563,0,0,0,3.443.6,4.753,4.753,0,0,0,1.925-3.682c.027-.27-.063-.405-.376-.368A4,4,0,0,1,22.2,6.464c-.237-.248-.4-.3-.687-.1a3.106,3.106,0,0,1-1.319.511c-.767.134-.768.129-.759,1.13m-7.309.043c.02-1.035.02-1.035-.79-1.176a2.5,2.5,0,0,1-1.07-.4c-.454-.338-.728-.2-1.092.165A3.821,3.821,0,0,1,5.892,7.822c-.352-.042-.421.112-.393.4a5.155,5.155,0,0,0,1.323,3.142,2.6,2.6,0,0,0,4.1-.162,5.642,5.642,0,0,0,1.2-3.153m6.611,12.1a3.953,3.953,0,0,0-.266-1.472,2.985,2.985,0,0,0-2.615-2.033,2.823,2.823,0,0,0-2.61,1.7,4.82,4.82,0,0,0,.511,4.919,2.409,2.409,0,0,0,4.074-.011,4.952,4.952,0,0,0,.907-3.1m1.125-7.619c-.107-.136-.161-.208-.218-.278A7.238,7.238,0,0,1,18.09,6.3c.1-.662.351-.943.9-.886a2.986,2.986,0,0,0,2.546-.881.691.691,0,0,1,1.1.126c.172.214.312.456.491.664a2.549,2.549,0,0,0,3.194.785c.689-.278,1.16,0,1.211.755a7.07,7.07,0,0,1-1.656,5.392c-.276.315-.136.362.167.431a12.918,12.918,0,0,1,2.163.6c.4.17.478.024.53-.362a16.764,16.764,0,0,0-.059-3.862,11.458,11.458,0,0,0-1.558-5.19,5.1,5.1,0,0,0-8.433-.35,9.037,9.037,0,0,0-1.5,3.176,16.8,16.8,0,0,0-.595,6.179c.026.237-.026.6.407.441.911-.333,1.859-.527,2.873-.79M11.731,12.5a1.375,1.375,0,0,0,1.766-.239,4.666,4.666,0,0,0,1.481-2.766,8.541,8.541,0,0,0-1-5.227,5.045,5.045,0,0,0-3.655-2.651,8.059,8.059,0,0,0-3.106.026A4.878,4.878,0,0,0,3.468,4.631,9.553,9.553,0,0,0,2.8,9.18,4.469,4.469,0,0,0,4.59,12.473a1.053,1.053,0,0,0,.966.211c.285-.063.4-.124.151-.407A7.09,7.09,0,0,1,4.02,7.056C4.06,6.088,4.5,5.8,5.373,6.17a2.382,2.382,0,0,0,2.164-.1A4.237,4.237,0,0,0,8.894,4.734c.359-.492.76-.56,1.2-.144a2.882,2.882,0,0,0,2.4.828c.594-.062.879.2.972.8a7.706,7.706,0,0,1-.571,4.534A7.726,7.726,0,0,1,11.731,12.5m4.326-7.154a21.151,21.151,0,0,1,.992-1.992,6.3,6.3,0,0,1,5.9-3.333,6.382,6.382,0,0,1,5.926,4.115,17.787,17.787,0,0,1,1.191,9.746.76.76,0,0,0,.208.736A4.575,4.575,0,0,1,31.572,18.3c-.123,2.282-.218,4.565-.321,6.848-.042.938-.066,1.878-.117,2.817-.04.755-.327,1.145-.79,1.127-.478-.019-.7-.371-.664-1.18.134-3.277.269-6.556.433-9.83a3.3,3.3,0,0,0-2.345-3.4c-.635-.228-1.3-.361-1.955-.542-.332-.093-.49.026-.486.372,0,.166-.006.332,0,.5a1.764,1.764,0,0,1-1.166,1.769,3.748,3.748,0,0,1-3.09-.042,1.629,1.629,0,0,1-1.046-1.66c.009-.239,0-.48,0-.719,0-.206-.058-.321-.29-.265a10.6,10.6,0,0,0-2.812.894c-.09.051-.219.134-.227.212-.015.185.175.139.284.175a4.4,4.4,0,0,1,3,3.314,6.358,6.358,0,0,1-.622,4.862c-.195.35-.177.493.24.59a9.445,9.445,0,0,1,2.392.783A4.656,4.656,0,0,1,24.7,29.363c-.01.517.006,1.032,0,1.549-.012.584-.288.92-.73.918s-.71-.342-.73-.928c-.015-.48,0-.959,0-1.439A3.36,3.36,0,0,0,20.564,25.9c-.772-.223-1.559-.4-2.336-.6a.967.967,0,0,0-.734.113,3.483,3.483,0,0,1-3.416,0,1.021,1.021,0,0,0-.786-.1c-.724.193-1.456.357-2.179.552a3.406,3.406,0,0,0-2.774,3.649c0,.478.012.959-.009,1.438-.024.548-.3.873-.723.878-.452.006-.737-.316-.73-.909A9.836,9.836,0,0,1,7.1,27.683a5.328,5.328,0,0,1,4.059-3.354c.283-.074.564-.162.85-.213.354-.062.419-.2.228-.517a6.4,6.4,0,0,1-.822-2.558c-.249-2.005.5-4.524,2.709-5.5.2-.09.43-.212.435-.454.006-.283-.291-.307-.477-.381a16.4,16.4,0,0,0-2.215-.625c-.247-.057-.336.041-.327.284.009.221-.007.442,0,.663a1.668,1.668,0,0,1-1.063,1.708,3.756,3.756,0,0,1-3.091.026,1.882,1.882,0,0,1-1.149-2.007c.02-.711-.022-.729-.719-.564a7.952,7.952,0,0,0-2.526.881A3.135,3.135,0,0,0,1.47,18.267,9.542,9.542,0,0,1,1.516,19.7a.672.672,0,0,1-.677.672.619.619,0,0,1-.713-.553,8.862,8.862,0,0,1,.1-3.506,4.851,4.851,0,0,1,2.624-2.828c.3-.146.416-.244.131-.534A6.062,6.062,0,0,1,1.308,8.307,10.356,10.356,0,0,1,2.519,3.313,6.4,6.4,0,0,1,7.45.109,8.528,8.528,0,0,1,11.775.5a6.887,6.887,0,0,1,3.963,4.052c.1.234.191.47.32.788" transform="translate(0 0)" fill="#fff"/>
    <path id="Path_169" data-name="Path 169" d="M23.038,20.237c0,1.438,0,2.876,0,4.312,0,.594-.31.983-.74.977s-.724-.4-.724-1q-.007-4.313,0-8.625a.958.958,0,0,1,.28-.8.643.643,0,0,1,.71-.139.776.776,0,0,1,.477.8q0,2.24,0,4.478Z" transform="translate(5.165 3.57)" fill="#fff"/>
    <path id="Path_170" data-name="Path 170" d="M4.01,19.946q0,1.878,0,3.757a2.893,2.893,0,0,1-.031.549.679.679,0,0,1-.68.6.659.659,0,0,1-.677-.537,2.452,2.452,0,0,1-.073-.653q-.007-3.783,0-7.568c0-.037,0-.073,0-.11.015-.693.293-1.085.764-1.077.454.006.7.368.7,1.057,0,1.326,0,2.651,0,3.977" transform="translate(0.609 3.571)" fill="#fff"/>
    <path id="Path_171" data-name="Path 171" d="M1.779,22.841a.682.682,0,0,1-.563.89c-.39.081-.724-.216-.8-.714a18.808,18.808,0,0,1-.1-2.809.621.621,0,0,1,.571-.638.643.643,0,0,1,.765.475,3.241,3.241,0,0,1,.124.869c.017.642,0,1.284,0,1.927" transform="translate(0.074 4.684)" fill="#fff"/>
    <path id="Path_172" data-name="Path 172" d="M17.473,25.1c0,.64-.252.978-.714.972s-.749-.4-.752-.973c0-.633.281-1.019.755-1.021.49,0,.715.321.711,1.023" transform="translate(3.833 5.767)" fill="#fff"/>
    <path id="Path_173" data-name="Path 173" d="M9.569,25.061c-.007.357-.032.715-.388.911a.636.636,0,0,1-.881-.159,1.4,1.4,0,0,1,.022-1.5.672.672,0,0,1,.895-.124c.255.147.352.408.352.874" transform="translate(1.938 5.765)" fill="#fff"/>
    <path id="Path_174" data-name="Path 174" d="M1.6,18.131a.687.687,0,0,1-.693.71A.658.658,0,0,1,.2,18.164a.7.7,0,0,1,.711-.736c.442.014.637.293.693.7" transform="translate(0.046 4.174)" fill="#fff"/>
  </g>
</svg>
