<svg xmlns="http://www.w3.org/2000/svg" xmlns:xlink="http://www.w3.org/1999/xlink" width="24.166" height="32.177" viewBox="0 0 24.166 32.177">
  <defs>
    <clipPath id="clip-path">
      <rect id="Rectangle_65596" data-name="Rectangle 65596" width="24.166" height="32.177" fill="#fff"/>
    </clipPath>
  </defs>
  <g id="Group_148649" data-name="Group 148649" transform="translate(0 0)">
    <g id="Group_148648" data-name="Group 148648" transform="translate(0 0)" clip-path="url(#clip-path)">
      <path id="Path_176" data-name="Path 176" d="M7.57,14.726c0-.43,0-.773,0-1.115,0-.262.028-.491.366-.491.172,0,.71.475.686.607a.267.267,0,0,1-.116.149,7.632,7.632,0,0,0-.935.85m5.1.091a5.034,5.034,0,0,0-.987-.941c-.1-.061-.178-.142-.077-.255a1.7,1.7,0,0,1,.54-.463.358.358,0,0,1,.521.333c.011.409,0,.818,0,1.326M6.906,16.094c-.214-.1-.441-.155-.447-.391-.017-.638-.011-1.275,0-1.913a.275.275,0,0,1,.3-.266c.224-.007.147.184.148.3.008.743,0,1.487,0,2.274M13.453,19.6a.66.66,0,1,1,1.319-.043.7.7,0,0,1-.654.72.72.72,0,0,1-.664-.678M8.419,12.413c.152-.058.248.069.359.121a2.936,2.936,0,0,0,2.693-.026c.094-.047.21-.2.3-.067.082.118-.064.212-.153.288a5.732,5.732,0,0,0-1.362,1.551c-.1.173-.175.223-.3.013A7.232,7.232,0,0,0,8.6,12.734c-.089-.085-.237-.144-.184-.321M1.154,23.54H1.17c0-.254,0-.507,0-.76a.419.419,0,0,1,.3-.424,1.137,1.137,0,0,1,1.494.686,1.31,1.31,0,0,1-.677,1.71c-.7.236-1.117-.05-1.134-.773,0-.146,0-.293,0-.44M.927,20.3c0-.147,0-.294,0-.441a.83.83,0,0,1,1.349-.713,1.455,1.455,0,0,1-.01,2.279A.824.824,0,0,1,.927,20.7c0-.134,0-.268,0-.4M1.009,13.1h.008c0-.294-.009-.588,0-.881a.444.444,0,0,1,.3-.429,1.119,1.119,0,0,1,1.464.621,1.749,1.749,0,0,1-.005,1.329,1.056,1.056,0,0,1-1.219.685c-.353-.052-.562-.223-.554-.6.005-.24,0-.48,0-.72M.682,16.725H.687c0-.24-.008-.481,0-.721.023-.6.207-.778.807-.8a1.217,1.217,0,0,1,1.293,1.161c.142.766-.222,1.6-.821,1.729-.785.167-1.368.083-1.288-.885.013-.159,0-.321,0-.481m14.1-8.416a7.605,7.605,0,0,1,.131,2.322,2.636,2.636,0,0,1-.768,1.8A.926.926,0,0,1,13,12.683c-.607-.275-.735-.64-.3-1.153A5.8,5.8,0,0,0,13.874,9.5a.544.544,0,0,1,.189-.345,1.954,1.954,0,0,0,.715-.846M5.411,8.044A1.5,1.5,0,0,0,6.06,9.106a.558.558,0,0,1,.2.289,7.056,7.056,0,0,0,1.33,2.264.654.654,0,0,1-.052.861,1.04,1.04,0,0,1-1.59-.189,1.885,1.885,0,0,1-.5-.808,8.613,8.613,0,0,1-.04-3.481m4.676,17.492c-.226.012-.332-.086-.329-.307q0-.521,0-1.042c-.035-3.2.08-6.418-.851-9.54-.032-.11-.039-.217.081-.279a.217.217,0,0,1,.307.1c.164.291.316.588.467.885.077.149.158.289.35.281.171-.007.241-.14.312-.274.148-.284.3-.566.46-.844.068-.118.168-.228.325-.147s.11.223.066.352a9.29,9.29,0,0,0-.36,1.312,39.479,39.479,0,0,0-.467,6.585c-.012.841-.011,1.683-.007,2.525,0,.256-.067.422-.353.389M14.617,6.916a1.019,1.019,0,0,1-.469-.873c-.011-.31-.035-.686-.481-.711a2.255,2.255,0,0,1-1.88-1.19c-.078-.127-.176-.246-.351-.218s-.261.169-.3.334a2.1,2.1,0,0,1-1.846,1.6A4.749,4.749,0,0,1,6.653,5.6c-.353-.134-.583-.05-.59.276a2.438,2.438,0,0,1-.554,1.3,7.666,7.666,0,0,1,1.036-3,4.021,4.021,0,0,1,5.692-1.429,5.869,5.869,0,0,1,2.379,4.167M8.086,26.209c1.536,0,3.072.006,4.608,0,.307,0,.394.084.341.4a12.316,12.316,0,0,0-.17,1.511c-.016.342-.124.462-.475.455-1.042-.02-2.084-.007-3.125-.007-1.669,0-3.339,0-5.008,0A1.066,1.066,0,0,1,3.1,27.41c0-.254.02-.51-.005-.761-.037-.366.126-.45.464-.446,1.509.015,3.018.006,4.528.006m2.047-14.033a2.589,2.589,0,0,1-1.547-.513A5.254,5.254,0,0,1,6.845,9.079a.8.8,0,0,0-.3-.5A.926.926,0,0,1,6.4,7.066a.617.617,0,0,0,.233-.483c-.012-.24.108-.248.3-.2a6.52,6.52,0,0,0,1.1.192A3.458,3.458,0,0,0,11.454,5.2c.127-.195.223-.13.341-.008a2.531,2.531,0,0,0,1.357.726.451.451,0,0,1,.4.507.814.814,0,0,0,.309.693c.363.311.386,1.157.023,1.326-.391.182-.477.5-.61.83a6.6,6.6,0,0,1-.5,1.088,3.226,3.226,0,0,1-2.636,1.816M11.1,23.141q-.005-2.928.271-5.843a10.455,10.455,0,0,1,.394-2.043c.07-.235.164-.305.329-.073s.341.479.5.722c.106.157.2.346.428.288.248-.061.256-.279.256-.484,0-.629,0-1.256,0-1.885,0-.114-.023-.273.154-.269a.312.312,0,0,1,.339.226,1.783,1.783,0,0,1,.016.359c0,1.2-.006,2.407.006,3.61a.669.669,0,0,1-.366.708,1.319,1.319,0,0,0,.806,2.443,1.329,1.329,0,0,0,1.147-.979,1.306,1.306,0,0,0-.585-1.458.59.59,0,0,1-.345-.53c.012-1.19.01-2.379,0-3.569,0-.333.126-.392.418-.279.787.3,1.539.681,2.294,1.055a.472.472,0,0,1,.254.5c0,.9-.008,1.791,0,2.687a.65.65,0,0,1-.294.569,9.656,9.656,0,0,0-2.11,2.341,13.566,13.566,0,0,0-1.681,3.883c-.09.317-.231.443-.556.426-.386-.02-.776,0-1.163,0-.507,0-.526-.02-.528-.513,0-.629,0-1.257,0-1.885M7.157,16.307a1.036,1.036,0,0,0,.429-.349,7.86,7.86,0,0,1,.43-.675c.064-.093.134-.226.28-.183.117.035.12.165.149.266a12.676,12.676,0,0,1,.386,2.086c.288,2.527.269,5.067.317,7.6.007.364-.1.493-.475.49-1.7-.015-3.4,0-5.093-.009-.164,0-.378.067-.456-.149a.546.546,0,0,1,.11-.524,2.065,2.065,0,0,0-.2-2.859c-.129-.133-.142-.21-.036-.367a2.078,2.078,0,0,0-.229-2.95c-.1-.109-.135-.18-.022-.3A2.377,2.377,0,0,0,3.1,15.377c-.094-.179-.021-.264.129-.349a16.777,16.777,0,0,1,2.145-.993c.279-.109.36-.009.353.264-.011.427-.007.856,0,1.283a.487.487,0,0,1-.255.463,3.807,3.807,0,0,0-1.858,3.506c-.01,1.013-.017,1.011.889,1.411.189.084.394.139.491-.069a.842.842,0,0,0-.02-.8c-.12-.192-.329-.139-.492-.006-.2.159-.266.067-.253-.134a4.117,4.117,0,0,1,.645-2.517c1.021-1.245,1.471-1.242,2.5,0A4.049,4.049,0,0,1,8.006,20c.013.293-.156.154-.279.066a.323.323,0,0,0-.409-.025c-.257.191-.082.475-.129.713-.027.134.1.24.244.274a.233.233,0,0,0,.118,0c.276-.094.556-.183.824-.295a.408.408,0,0,0,.25-.383c.053-1.527-.088-2.985-1.47-4.046m9.528-2.125c-.784-.388-1.484-.673-2.189-.947-.2-.078-.076-.181.018-.261A3.213,3.213,0,0,0,15.533,10.9a12.013,12.013,0,0,0-.182-3.588,7.552,7.552,0,0,0-1.6-4.082,4.881,4.881,0,0,0-3.3-1.779A5,5,0,0,0,5.692,4.377a13.584,13.584,0,0,0-1.076,6.182A3.584,3.584,0,0,0,5.2,12.453c.167.258.638.428.51.706-.1.211-.556.251-.851.378-.484.208-.965.426-1.456.643-.057-.182.033-.3.068-.419a2.251,2.251,0,0,0-.206-1.819,1.284,1.284,0,0,1-.17-.685q.007-4.652,0-9.3c0-.915.349-1.274,1.251-1.275q5.957,0,11.912,0c.887,0,1.238.356,1.239,1.242q0,3.348,0,6.7c0,.114.038.239-.059.361a1.293,1.293,0,0,1-.128-.078c-.451-.361-.56-.345-.885.118a3.836,3.836,0,0,0-.648,1.539,4.489,4.489,0,0,0,.407,2.458c.137.354.3.7.5,1.166M10.293.018C8.421.018,6.548.071,4.679,0,2.883-.064,2.4.974,2.421,2.246c.043,2.794.007,5.588.02,8.382,0,.375-.065.548-.486.461a1.622,1.622,0,0,0-.792.066.963.963,0,0,0-.746.8,5.112,5.112,0,0,0,.114,2.572c.046.127.071.219-.059.309a1.007,1.007,0,0,0-.385.724A7.086,7.086,0,0,0,.1,17.838.793.793,0,0,0,.3,18.35c.277.215.19.4.118.695A3.391,3.391,0,0,0,.646,21.9a.287.287,0,0,1,.025.3,4.466,4.466,0,0,0-.163,2.059,1.2,1.2,0,0,0,1.466,1.2c.4-.032.471.092.467.446a10.8,10.8,0,0,0,.043,1.881,1.654,1.654,0,0,0,1.409,1.392,4.138,4.138,0,0,0,.638.045c1.9,0,3.8.012,5.695-.006a.672.672,0,0,1,.727.468c.29.689.618,1.363.93,2.043a1.821,1.821,0,0,0,.123.251.324.324,0,0,0,.445.15.3.3,0,0,0,.131-.417q-.282-.664-.582-1.32c-.127-.28-.257-.559-.405-.828s-.052-.359.226-.342a2.032,2.032,0,0,0,.361,0c.392-.042.656.039.622.522-.014.194.079.385.323.376.269-.011.3-.219.309-.432a19.473,19.473,0,0,1,.5-4.211A12.186,12.186,0,0,1,16.418,20.5a7.68,7.68,0,0,1,1.346-1.254.7.7,0,0,0,.334-.632c-.011-1.1-.007-2.192,0-3.288a.938.938,0,0,0-.224-.623,7.257,7.257,0,0,1-1.417-3.022A2.741,2.741,0,0,1,16.7,9.8c.193-.382.256-.391.561-.073a20.975,20.975,0,0,1,3.3,4.713,9.716,9.716,0,0,1,1.2,3.458,15.574,15.574,0,0,1-.352,4.9,18.1,18.1,0,0,1-.837,2.842.688.688,0,0,0,.029.61c.89,1.722,1.771,3.448,2.658,5.171.11.214.228.424.358.626a.265.265,0,0,0,.353.1.291.291,0,0,0,.182-.359,1.122,1.122,0,0,0-.105-.259c-.865-1.689-1.724-3.381-2.607-5.061a1.2,1.2,0,0,1-.09-1.085A17.757,17.757,0,0,0,22.5,19.027a9.168,9.168,0,0,0-.993-4.171,24.658,24.658,0,0,0-3.164-4.906.879.879,0,0,1-.175-.635q0-3.69,0-7.38a1.705,1.705,0,0,0-1.9-1.916q-2.988,0-5.975,0" transform="translate(0 0)" fill="#fff"/>
    </g>
  </g>
</svg>
