<svg id="Group_148601" data-name="Group 148601" xmlns="http://www.w3.org/2000/svg" xmlns:xlink="http://www.w3.org/1999/xlink" width="29.149" height="29.104" viewBox="0 0 29.149 29.104">
  <defs>
    <clipPath id="clip-path">
      <rect id="Rectangle_65565" data-name="Rectangle 65565" width="29.149" height="29.104" transform="translate(0 0)" fill="#fff"/>
    </clipPath>
  </defs>
  <g id="Group_148600" data-name="Group 148600" clip-path="url(#clip-path)">
    <path id="Path_160" data-name="Path 160" d="M8.672,4.3h1.861v4.26c0,.583-2.043,1.839-2.451,2.153-.954.717-1.771,1.345-2.725,2.062L0,16.861H4.041v10.4h8.082V20.673c0-1.659.862-2.87,2.451-2.87l2.5,2.87v6.592h8.036v-10.4h4.041l-9.308-7.04C18.116,8.52,18.615,8.61,18.615,4.3h1.862L19.8,3.767c-.318-.224-.454-.359-.727-.538L14.574,0c-.681.448-4.994,3.5-5.9,4.3m3.133,1.973a2.768,2.768,0,0,1,4.359-2.332c.726.493-.455-.4.181.135a7.742,7.742,0,0,1,1.044,2.511v2.6H11.805Zm.59,7.668a2.246,2.246,0,0,1,2.043-2.287,2.134,2.134,0,0,1,.273,4.26,2.4,2.4,0,0,1-1.544-.582,1.462,1.462,0,0,1-.454-.583c-.091-.135-.273-.718-.318-.808M6.22,20.225H9.943v3.049H6.22Zm13.031,0h3.723v3.049H19.251ZM6.22,23.9H9.943v1.211H6.22Zm13.031,0h3.723v1.211H19.251Z" fill="#fff"/>
    <rect id="Rectangle_65564" data-name="Rectangle 65564" width="23.565" height="1.211" transform="translate(2.815 27.893)" fill="#fff"/>
    <path id="Path_161" data-name="Path 161" d="M12.4,7.354v.628h4.359V7.354c-1.181-.09-.318-.852-.727-1.884-.09-.313-.544-.538-1.135-1.479h-.635c0,1.21-.727.448-1.136,1.479-.363,1.032.455,1.794-.726,1.884" fill="#fff"/>
    <path id="Path_162" data-name="Path 162" d="M14.257,13.5h-.908v.583h1.543V11.973h-.635Z" fill="#fff"/>
    <path id="Path_163" data-name="Path 163" d="M14.574,8.879c.5,0,.545-.269.636-.583H13.984c.09.314.136.583.59.583" fill="#fff"/>
  </g>
</svg>
