<svg id="Group_148599" data-name="Group 148599" xmlns="http://www.w3.org/2000/svg" xmlns:xlink="http://www.w3.org/1999/xlink" width="31.582" height="32.285" viewBox="0 0 31.582 32.285">
  <defs>
    <clipPath id="clip-path">
      <rect id="Rectangle_65563" data-name="Rectangle 65563" width="31.582" height="32.285" fill="#fff"/>
    </clipPath>
  </defs>
  <g id="Group_148598" data-name="Group 148598" transform="translate(0 0)" clip-path="url(#clip-path)">
    <path id="Path_157" data-name="Path 157" d="M13.142,14.681a.391.391,0,0,0,.278-.133c.377-.377.757-.752,1.129-1.133a.341.341,0,0,0,0-.552q-.99-1-1.991-1.992a.34.34,0,0,0-.552.006q-.564.551-1.117,1.113a.352.352,0,0,0,0,.585c.656.661,1.317,1.317,1.977,1.975a.369.369,0,0,0,.275.132m1.614-7.314a6.7,6.7,0,0,1-.28,2,.418.418,0,0,0,.134.489c.555.54,1.095,1.1,1.65,1.636.15.146.166.238.007.4q-2.2,2.186-4.386,4.386c-.15.153-.241.132-.38-.01-.535-.548-1.087-1.081-1.62-1.633a.48.48,0,0,0-.534-.148,7.191,7.191,0,0,1-6.189-1.066A7.144,7.144,0,0,1,.06,8.268,7.274,7.274,0,0,1,.667,4.31c.1-.228.115-.234.3-.053Q2.778,6.063,4.588,7.872c.574.573,1.152,1.142,1.723,1.72.1.105.16.088.252,0Q8.051,8.094,9.547,6.606c.136-.135.123-.226,0-.352Q8.214,4.939,6.89,3.615T4.244.967c-.177-.178-.171-.192.065-.3a7.387,7.387,0,0,1,10.447,6.7" transform="translate(0 0)" fill="#fff"/>
    <path id="Path_158" data-name="Path 158" d="M26.141,6.835A.419.419,0,0,1,26,7.02q-3.333,3.335-6.668,6.668Q13.808,19.215,8.281,24.743c-.324.323-.237.325-.578-.007-.156-.153-.316-.3-.46-.465s-.23-.112-.314.032c-.133.228-.257.46-.381.691-.647,1.2-1.287,2.4-1.944,3.59a.352.352,0,0,0,.077.5c.415.4.406.407.92.129Q7.487,28.2,9.375,27.186c.509-.273.51-.272.1-.681-.133-.133-.259-.274-.4-.4s-.093-.2.017-.308c.726-.72,1.447-1.445,2.17-2.168l15.6-15.6c.307-.308.237-.272.514-.008.342.327.664.676,1.009,1,.151.14.106.219-.017.341Q26.178,11.547,24,13.734q-6.78,6.78-13.558,13.559a5.089,5.089,0,0,1-1.226.747C7.1,29.206,4.977,30.357,2.857,31.512a2.782,2.782,0,0,1-.411.181c-.129.045-.195-.019-.154-.15a1.815,1.815,0,0,1,.142-.331q1.993-3.7,3.99-7.405a1.07,1.07,0,0,1,.189-.25L18.257,11.915q3.126-3.126,6.251-6.253c.254-.254.254-.253.5,0l1,1.005a.389.389,0,0,1,.126.172" transform="translate(0.241 0.578)" fill="#fff"/>
    <path id="Path_159" data-name="Path 159" d="M25.965,24.22a1.719,1.719,0,0,0-1.745,1.74,1.742,1.742,0,0,0,1.734,1.763,1.78,1.78,0,0,0,1.769-1.741,1.743,1.743,0,0,0-1.758-1.762m3.86,2.38a3.365,3.365,0,0,1-5.468,2.471,18.039,18.039,0,0,1-1.568-1.524q-3.02-3.01-6.033-6.026c-.15-.149-.165-.234-.007-.392q2.2-2.184,4.387-4.386c.15-.151.234-.137.377.006q3.663,3.673,7.332,7.34a3.4,3.4,0,0,1,.98,2.511" transform="translate(1.757 1.757)" fill="#fff"/>
  </g>
</svg>
