<svg xmlns="http://www.w3.org/2000/svg" xmlns:xlink="http://www.w3.org/1999/xlink" width="35.164" height="25.985" viewBox="0 0 35.164 25.985">
  <defs>
    <clipPath id="clip-path">
      <rect id="Rectangle_65566" data-name="Rectangle 65566" width="35.164" height="25.985" transform="translate(0 0)" fill="#fff"/>
    </clipPath>
  </defs>
  <g id="Group_148603" data-name="Group 148603" transform="translate(0 0)">
    <g id="Group_148602" data-name="Group 148602" clip-path="url(#clip-path)">
      <path id="Path_164" data-name="Path 164" d="M18.4,5.145a1.607,1.607,0,0,0-1.173.324.773.773,0,0,0,.058,1.258,1.951,1.951,0,0,0,2.06-.005.776.776,0,0,0,.074-1.231A1.329,1.329,0,0,0,18.4,5.145M2.111,12.839c0,1.9.006,3.792-.006,5.688a.7.7,0,0,0,.388.711,1.373,1.373,0,0,1,.431,2.095.721.721,0,0,0-.137.653c.244,1.1.469,2.2.692,3.3.107.526-.024.685-.555.689-.785.006-1.57.008-2.355,0-.505-.005-.641-.167-.536-.668q.348-1.651.729-3.3a.743.743,0,0,0-.121-.661A1.359,1.359,0,0,1,1,19.277a.8.8,0,0,0,.382-.77q-.012-5.91,0-11.82c0-.841.018-.846.82-1.127q5.47-1.915,10.937-3.843C14.686,1.173,16.243.645,17.791.095a1.459,1.459,0,0,1,1.033,0q3.56,1.262,7.125,2.5c2.837.991,5.677,1.974,8.513,2.969.279.1.69.112.7.5.013.419-.414.4-.689.5Q29.2,8.433,23.919,10.288c-1.76.618-3.526,1.219-5.285,1.84a1.1,1.1,0,0,1-.774-.051q-5.724-2-11.448-4Q4.5,7.408,2.6,6.744c-.478-.166-.483-.163-.483.363q0,2.866,0,5.732" fill="#fff"/>
      <path id="Path_165" data-name="Path 165" d="M25.431,17.68c.39-.055.8-.107,1.2-.171.145-.023.316-.064.271-.267-.035-.161-.189-.165-.325-.149-.408.047-.816.1-1.224.152-.153.022-.376.01-.363.23.016.25.251.186.437.2m4.356-4.037h0c0-.842,0-1.685,0-2.527,0-.171,0-.4-.247-.393-.208.007-.207.215-.215.378,0,.1,0,.207,0,.311,0,1.462-.009,2.925.007,4.388a.642.642,0,0,1-.427.691c-.288.113-.581.216-.873.319-.155.056-.344.1-.274.32.058.181.219.154.374.117a4.226,4.226,0,0,0,1.261-.528.806.806,0,0,0,.411-.771c-.021-.768-.006-1.537-.006-2.305m1.84-1.008c0,1.23-.02,2.46.008,3.689a1.865,1.865,0,0,1-.863,1.653,8.527,8.527,0,0,1-2.683,1.146,29.171,29.171,0,0,1-6.051.906,41.911,41.911,0,0,1-4.66.143,37.224,37.224,0,0,1-9.1-1.126,8.385,8.385,0,0,1-2.358-1.015,1.938,1.938,0,0,1-.944-1.744c.024-2.474.008-4.948.009-7.422,0-.656.011-.667.652-.45q5.955,2.013,11.908,4.038a2.219,2.219,0,0,0,1.512,0q5.886-2.01,11.782-3.994c.113-.038.227-.07.337-.113.325-.126.458-.031.454.329-.011,1.319,0,2.637,0,3.956" fill="#fff"/>
    </g>
  </g>
</svg>
