<svg xmlns="http://www.w3.org/2000/svg" xmlns:xlink="http://www.w3.org/1999/xlink" width="35.027" height="34.616" viewBox="0 0 35.027 34.616">
  <defs>
    <clipPath id="clip-path">
      <rect id="Rectangle_65562" data-name="Rectangle 65562" width="35.027" height="34.616" fill="#fff"/>
    </clipPath>
  </defs>
  <g id="Group_148597" data-name="Group 148597" transform="translate(0 0)">
    <g id="Group_148596" data-name="Group 148596" transform="translate(0 0)" clip-path="url(#clip-path)">
      <path id="Path_152" data-name="Path 152" d="M3.67,21.379v1.138H2.317l-1.1,1.039v2.523H.565l-.552.543c0,2.227-.45,1.831,3.958,1.831,1.252,0,8.214-.049,8.865.049,1.4.248.8,1.534,1.4,1.979l.752.4H20.1a1.224,1.224,0,0,0,1.052-1.138c.1-.742.3-1.088,1-1.237.752-.148,12.172.05,12.271-.049l.6-.494V26.622l-.5-.543h-.7c0-.94.2-2.87-.351-3.216a3.259,3.259,0,0,0-2.054-.346V21.379c0-1.831-1.953-2.721-3.506-3.167L22.9,16.531c-.25.148-4.558,4.552-5.36,5.293a24.837,24.837,0,0,1-2.354-2.276c-.651-.792-2.254-2.227-3.005-3.018a12.217,12.217,0,0,1-2.354.939c-1.552.445-3.757.891-4.959,1.782a2.659,2.659,0,0,0-1.2,2.127M2.468,23.7h11.37a3.967,3.967,0,0,1,2.4.742l1.352,1.93a3.636,3.636,0,0,1,1.252-1.93l2.4-.742h11.37v2.375H22.052a3.631,3.631,0,0,0-2.6,1.435l-.5.939H16.092a3.364,3.364,0,0,0-1.1-1.583l-2-.791H2.468Z" transform="translate(0 3.738)" fill="#fff"/>
      <path id="Path_153" data-name="Path 153" d="M13.72,1.224c-2.455,0-4.057.94-4.809,3.166-.752,2.326-.4,3.216-.651,4.255-.05.346-.25.346-.451.593l-.45,1.583a4.647,4.647,0,0,0,.45,2.474,8.364,8.364,0,0,1-.851,3.018,6.55,6.55,0,0,1-2,1.88v.148a8.584,8.584,0,0,0,3.907.742,10.939,10.939,0,0,0,3.056-.544c.351-.049.5.248.7.4l3.507,1.335a6.439,6.439,0,0,0,2.855-.593c.3-.2.6-.346.9-.544,1.153-.692.451-.791,1.6-.445a9.585,9.585,0,0,0,5.66-.049l.75-.445a4.907,4.907,0,0,1-1.6-1.337,3.784,3.784,0,0,1-.4-.543L25.04,13.3c0-.05.25-.544.3-.743a4.154,4.154,0,0,0-.451-3.463c-.351-.4-.25-1.386-.351-2.077a10.575,10.575,0,0,0-1.051-3.661,2.5,2.5,0,0,0-.4-.693,6.055,6.055,0,0,0-1.9-1.682L17.376.037a5.57,5.57,0,0,0-2.655.346,1.88,1.88,0,0,0-1,.841M8.961,11.217c0-1.782.752-1.039,2.1-2.028a2.859,2.859,0,0,0,.7-.644c1.252-1.533,1.052-1.533,1.7-3.66a2.529,2.529,0,0,1,.551.494c2.805,2.82,7.012,1.089,8.815,3.81.151.246.2.494.4.643.4.248.651.148.651,1.583,0,1.584-.952.792-1.5,2.178A9.98,9.98,0,0,1,19.179,17.7l-2.754,1.04c-1.9,0-3.858-1.731-4.658-2.869-1.554-2.029-1.052-2.672-2.354-3.316-.451-.2-.451-.84-.451-1.335" transform="translate(1.12 0)" fill="#fff"/>
      <path id="Path_154" data-name="Path 154" d="M10.836,8.914v.248l1.1,1.039h.3l1.052-1.039v-.3L12.239,7.776c-.8,0-1.4.346-1.4,1.138" transform="translate(2.451 1.758)" fill="#fff"/>
      <path id="Path_155" data-name="Path 155" d="M15.779,8.914v.248L16.831,10.2h.3l1.052-1.039v-.3L17.131,7.776c-.752,0-1.352.346-1.352,1.138" transform="translate(3.569 1.758)" fill="#fff"/>
      <path id="Path_156" data-name="Path 156" d="M12.593,12.563c.2.89,2,1.435,2.254,1.335L16.8,12.563c-.25-.2-.049-.148-.4-.1a6.064,6.064,0,0,1-2.856.1c-.4-.049-.7-.248-.952,0" transform="translate(2.848 2.809)" fill="#fff"/>
    </g>
  </g>
</svg>
