<svg xmlns="http://www.w3.org/2000/svg" xmlns:xlink="http://www.w3.org/1999/xlink" width="60.554" height="44.157" viewBox="0 0 60.554 44.157">
  <defs>
    <clipPath id="clip-path">
      <rect id="Rectangle_5" data-name="Rectangle 5" width="59.326" height="23.274" fill="none"/>
    </clipPath>
    <clipPath id="clip-path-3">
      <rect id="Rectangle_7" data-name="Rectangle 7" width="60.554" height="44.157" fill="none"/>
    </clipPath>
  </defs>
  <g id="Group_41" data-name="Group 41" transform="translate(0 0)">
    <rect id="Rectangle_4" data-name="Rectangle 4" width="59.828" height="23.274" transform="translate(0.118 13.719)" fill="#73b42f"/>
    <g id="Group_36" data-name="Group 36" transform="translate(0.621 13.719)">
      <g id="Group_35" data-name="Group 35" clip-path="url(#clip-path)">
        <path id="Path_4" data-name="Path 4" d="M10.662,42.811a10.08,10.08,0,0,1-3.187,4.322,26.421,26.421,0,0,1-6.388,3.816L.733,50.1a23.587,23.587,0,0,0,4.476-3.281,7.1,7.1,0,0,0,2.013-3.093A26.651,26.651,0,0,1,2.74,39.895,14.69,14.69,0,0,1,.1,35.9a21.452,21.452,0,0,1,3.688-2.561,26.069,26.069,0,0,1,4.446-1.921l.845.7a22.421,22.421,0,0,0-3.5,1.673,14.619,14.619,0,0,0-2.7,2.044A25.546,25.546,0,0,0,6.393,39.7a26.34,26.34,0,0,0,4.269,3.111" transform="translate(-0.662 -27.262)" fill="#09151b"/>
      </g>
    </g>
    <path id="Path_5" data-name="Path 5" d="M45.3,52.962l-1.974.99-6.5-7.374-5.573,6-4.57-7.529L19.97,53.883,17.176,52.69,27.14,42.4l4.539,6.846L36.821,44.7Z" transform="translate(-7.404 -18.276)" fill="#09151b"/>
    <g id="Group_38" data-name="Group 38" transform="translate(0.621 13.719)">
      <g id="Group_37" data-name="Group 37" clip-path="url(#clip-path)">
        <path id="Path_6" data-name="Path 6" d="M69.6,51.327l-.179-.148a20.292,20.292,0,0,1-2-4.322,13.552,13.552,0,0,1-.693-4.094,10.214,10.214,0,0,1,.562-3.317,10.9,10.9,0,0,1,1.6-3.04,22.659,22.659,0,0,1,1.026,3.656,19.74,19.74,0,0,1,.333,3.657v1.231a30.575,30.575,0,0,1-.163,3.149,31.584,31.584,0,0,1-.492,3.229M68.366,34.346a1.663,1.663,0,0,1,.543-.565,1.3,1.3,0,0,1,.689-.192,2.127,2.127,0,0,1,1.141.236.828.828,0,0,1,.359.749,1.033,1.033,0,0,1-.391.919,2.449,2.449,0,0,1-1.342.272,3.394,3.394,0,0,1-1.714-.393,1.125,1.125,0,0,1-.688-.956,1.084,1.084,0,0,1,.438-.844,3.887,3.887,0,0,1,1.338-.653l.2.306a3.551,3.551,0,0,0-.794.394.691.691,0,0,0-.281.394l-.078.333a1.055,1.055,0,0,0,.3.824,1.323,1.323,0,0,0,.9.269A1.815,1.815,0,0,0,69.8,35.3a.452.452,0,0,0,.269-.42.437.437,0,0,0-.014-.094.368.368,0,0,1-.013-.073.388.388,0,0,0,0-.064c0-.02-.013-.047-.022-.073a1.063,1.063,0,0,0-.291-.146,1.136,1.136,0,0,0-.284-.06.616.616,0,0,0-.3.075.687.687,0,0,0-.228.192Z" transform="translate(-29.387 -27.911)" fill="#09151b"/>
        <path id="Path_7" data-name="Path 7" d="M86.457,49.093c-.074.574-.13,1.148-.179,1.722s-.072,1.131-.081,1.672q-.5-.033-3.224-.563c-.846-.166-1.515-.292-2.008-.392q-.367-4.511-1.006-11.2t-1.666-16.7l3.964-.5-.37,26.451Z" transform="translate(-34.371 -23.689)" fill="#09151b"/>
        <path id="Path_8" data-name="Path 8" d="M99.083,43.456a32.456,32.456,0,0,1-2.938,1.62q-1.656.816-3.956,1.772a8.5,8.5,0,0,1-2.052-3.2,11.662,11.662,0,0,1-.759-4.191,10.418,10.418,0,0,1,.759-3.93,13.614,13.614,0,0,1,2.329-3.716l4.828,1.727c-.129.006-.266.012-.411.015s-.358,0-.634,0c-.4,0-.856-.007-1.354-.022s-1.071-.037-1.711-.067a18.4,18.4,0,0,0-.747,2.1,5.734,5.734,0,0,0-.224,1.491v.089c.469-.031.871-.052,1.2-.067s.626-.022.887-.022c.1,0,.225,0,.358.01s.332.015.589.024c-.428.131-.893.3-1.391.492s-1.016.418-1.552.662v.278a9.057,9.057,0,0,0,.461,3.166,9.416,9.416,0,0,0,1.486,2.486c.785-.15,1.58-.285,2.382-.4s1.62-.224,2.445-.312" transform="translate(-39.15 -27.43)" fill="#09151b"/>
      </g>
    </g>
    <g id="Group_40" data-name="Group 40" transform="translate(0 0)">
      <g id="Group_39" data-name="Group 39" clip-path="url(#clip-path-3)">
        <path id="Path_9" data-name="Path 9" d="M36.191.069a12.885,12.885,0,0,1,13.97,11.782,13.115,13.115,0,0,1-11.367,14.48,12.885,12.885,0,0,1-13.97-11.783A13.113,13.113,0,0,1,36.191.069" transform="translate(-10.672 0)" fill="#ffe900"/>
        <path id="Path_10" data-name="Path 10" d="M41.437,30.731a9.943,9.943,0,0,1-6.611-2.688l.465-.513A8.663,8.663,0,0,0,43.967,29.6c2.761-1,4.622-3.539,5.107-6.972l.686.1c-.522,3.7-2.548,6.438-5.557,7.526a8.122,8.122,0,0,1-2.766.477" transform="translate(-15.013 -9.756)" fill="#191717"/>
        <path id="Path_11" data-name="Path 11" d="M33.875,28.516a.992.992,0,1,1-.967.983.977.977,0,0,1,.967-.983" transform="translate(-14.186 -12.293)" fill="#191717"/>
        <path id="Path_12" data-name="Path 12" d="M33.838,28.526a.957.957,0,0,0-.009,1.912h.01a.957.957,0,0,0,.007-1.912Zm0,1.983h-.011a1.028,1.028,0,0,1,.01-2.055h.01a1.028,1.028,0,0,1-.009,2.055" transform="translate(-14.159 -12.266)" fill="#191717"/>
        <path id="Path_13" data-name="Path 13" d="M59.545,20.131a.992.992,0,1,1-.965.982.977.977,0,0,1,.965-.982" transform="translate(-25.253 -8.678)" fill="#191717"/>
        <path id="Path_14" data-name="Path 14" d="M59.51,20.141a.956.956,0,0,0-.009,1.911h.009a.956.956,0,0,0,.009-1.911Zm0,1.983H59.5a1.028,1.028,0,0,1,.01-2.054h.01a1.028,1.028,0,0,1-.01,2.054" transform="translate(-25.226 -8.651)" fill="#191717"/>
        <path id="Path_15" data-name="Path 15" d="M0,74.281V70.118H2.754v.7H.812v.985H2.49v.7H.812v1.769Zm5.927-2.056a2.734,2.734,0,0,1,.183-1.068,1.993,1.993,0,0,1,.373-.571A1.594,1.594,0,0,1,7,70.211a2.137,2.137,0,0,1,.866-.164,1.85,1.85,0,0,1,1.421.571,2.625,2.625,0,0,1,0,3.165,1.843,1.843,0,0,1-1.414.569,1.856,1.856,0,0,1-1.425-.567,2.2,2.2,0,0,1-.529-1.561m.835-.028a1.608,1.608,0,0,0,.315,1.072,1.014,1.014,0,0,0,.8.365,1,1,0,0,0,.8-.362,1.631,1.631,0,0,0,.311-1.086,1.614,1.614,0,0,0-.3-1.068,1.1,1.1,0,0,0-1.614.006A1.617,1.617,0,0,0,6.762,72.2m6.358-2.079h.811v2.255a4.779,4.779,0,0,0,.03.7.67.67,0,0,0,.247.41.839.839,0,0,0,.536.155.8.8,0,0,0,.522-.146.576.576,0,0,0,.209-.358,4.685,4.685,0,0,0,.036-.708v-2.3h.811V72.3a5.767,5.767,0,0,1-.066,1.06,1.184,1.184,0,0,1-.242.522,1.238,1.238,0,0,1-.472.34,2.007,2.007,0,0,1-.773.126,2.146,2.146,0,0,1-.873-.138,1.27,1.27,0,0,1-.47-.357,1.155,1.155,0,0,1-.227-.463,5.233,5.233,0,0,1-.079-1.056Zm6.734,4.163V70.118h.789l1.645,2.78v-2.78h.754v4.163h-.815l-1.62-2.715v2.715Zm6.711-4.163h1.483a2.815,2.815,0,0,1,.765.079,1.331,1.331,0,0,1,.605.384,1.84,1.84,0,0,1,.384.674,3.222,3.222,0,0,1,.131.985,2.821,2.821,0,0,1-.124.886,1.814,1.814,0,0,1-.431.734,1.39,1.39,0,0,1-.569.333,2.352,2.352,0,0,1-.718.088H26.565Zm.811.7v2.756h.6a2.144,2.144,0,0,0,.492-.039.747.747,0,0,0,.327-.172.912.912,0,0,0,.213-.4,2.839,2.839,0,0,0,.082-.762,2.606,2.606,0,0,0-.082-.742.962.962,0,0,0-.231-.4.752.752,0,0,0-.375-.2,3.475,3.475,0,0,0-.665-.039Zm9.535,3.458h-.882l-.352-.946H34.072l-.332.946h-.86l1.565-4.163H35.3Zm-1.492-1.646-.555-1.545-.542,1.545ZM40.5,74.281V70.822H39.306v-.7H42.5v.7H41.309v3.458Zm5.168-4.163h.811v4.163h-.811Zm4.088,2.108a2.722,2.722,0,0,1,.184-1.068,1.962,1.962,0,0,1,.374-.571,1.58,1.58,0,0,1,.518-.375,2.141,2.141,0,0,1,.867-.164,1.846,1.846,0,0,1,1.42.571,2.622,2.622,0,0,1,0,3.165,2.057,2.057,0,0,1-2.839,0,2.2,2.2,0,0,1-.529-1.561m.836-.028a1.6,1.6,0,0,0,.315,1.072,1.012,1.012,0,0,0,.8.365,1,1,0,0,0,.795-.362,2.049,2.049,0,0,0,.009-2.154,1.1,1.1,0,0,0-1.614.006,1.617,1.617,0,0,0-.306,1.075m6.37,2.084V70.118h.79l1.645,2.78v-2.78h.754v4.163h-.815l-1.62-2.715v2.715Z" transform="translate(0 -30.196)" fill="#040505"/>
      </g>
    </g>
  </g>
</svg>
