<svg xmlns="http://www.w3.org/2000/svg" width="66.087" height="66.087" viewBox="0 0 66.087 66.087">
  <g id="Group_149266" data-name="Group 149266" transform="translate(-3584 -3558)">
    <path id="Path_373" data-name="Path 373" d="M66.088,175.479a33.044,33.044,0,1,1-33.044-33.044,33.044,33.044,0,0,1,33.044,33.044" transform="translate(3584 3415.565)" fill="#236a59"/>
    <g id="Group_149265" data-name="Group 149265" transform="translate(-28 -147.059)">
      <path id="Path_374" data-name="Path 374" d="M6.641,166.215a1.165,1.165,0,0,0,.66.1q11.714,0,23.428,0c.109,0,.218,0,.327,0,.089-.005.2.026.248-.078s-.061-.163-.12-.229-.151-.156-.229-.233l-8.58-8.579c-.458-.457-.459-.458-.9-.013q-3.053,3.053-6.1,6.11c-.258.26-.416.273-.674,0-.709-.742-1.459-1.445-2.167-2.189-.284-.3-.463-.292-.75,0-1.162,1.192-2.345,2.363-3.525,3.536-.517.513-1.046,1.014-1.616,1.566m12.437,1.251H4.795c-.109,0-.219.008-.326,0-.132-.014-.313.065-.377-.093s.1-.243.2-.338q2.654-2.66,5.311-5.315c.748-.748,1.5-1.49,2.24-2.247.229-.235.385-.282.64-.013.716.757,1.473,1.476,2.189,2.232.267.282.432.277.706,0,2.024-2.046,4.065-4.076,6.1-6.111.443-.443.445-.444.874-.015q5.71,5.709,11.416,11.421c.114.114.343.216.257.4s-.31.082-.473.082q-7.234.006-14.469,0" transform="translate(3627.01 3585.611)" fill="#fff"/>
      <path id="Path_375" data-name="Path 375" d="M20.438,134.209c-.559,0-1.12.005-1.679,0-.281,0-.436.083-.431.4.013.731.01,1.461,0,2.192,0,.273.1.4.379.4,1.136,0,2.27,0,3.405,0,.3,0,.438-.129.225-.39a1.553,1.553,0,0,1-.017-2.2c.238-.289.064-.4-.251-.4-.544.005-1.089,0-1.633,0m-3.264,3.183q0-1.844,0-3.689c0-.621.023-.643.619-.644q3.058,0,6.116,0c.551,0,.574.049.29.545-.316.554-.62,1.116-.951,1.661a.754.754,0,0,0,0,.867c.347.572.669,1.159,1,1.743.227.4.192.465-.282.466-1.7,0-3.393.015-5.09-.007-.438-.006-.567.139-.55.563.03.73.023,1.463,0,2.194a1.012,1.012,0,0,0,.348.818c.672.648,1.311,1.331,1.991,1.969.325.305.182.488-.064.712-.229.21-.4.488-.745.111-.547-.6-1.155-1.134-1.7-1.728-.282-.3-.452-.291-.741,0q-4.078,4.11-8.183,8.194c-.451.451-.923.884-1.347,1.36-.318.356-.506.174-.75-.07s-.4-.413-.069-.747c3.235-3.212,6.45-6.445,9.685-9.659a1.337,1.337,0,0,0,.438-1.065c-.025-1.2-.008-2.4-.008-3.6" transform="translate(3626.331 3591)" fill="#fff"/>
      <path id="Path_376" data-name="Path 376" d="M24.323,144.981c-.6,0-1.123-.018-1.643.005-.442.02-.466-.243-.463-.569s-.008-.6.441-.594c1.074.011,2.148.008,3.221,0,.31,0,.46.125.46.442,0,1.074-.008,2.148,0,3.221,0,.475-.309.451-.634.457s-.535-.074-.518-.468c.023-.51.005-1.021.005-1.575a1.045,1.045,0,0,0-.5.381q-5.1,5.1-10.2,10.2c-.456.456-.457.456-.9.011-.682-.682-1.377-1.353-2.04-2.054-.291-.308-.475-.31-.781,0q-4.788,4.821-9.6,9.614c-.527.528-.513.513-1.011.015-.274-.274-.154-.434.061-.647q2.451-2.436,4.888-4.883c1.892-1.893,3.791-3.78,5.671-5.686.3-.306.483-.311.778,0,.706.746,1.451,1.454,2.171,2.187.192.2.335.274.57.037q4.912-4.927,9.835-9.843a2.974,2.974,0,0,0,.19-.255" transform="translate(3628 3588.385)" fill="#fff"/>
      <path id="Path_377" data-name="Path 377" d="M30.66,153.236c.1.082.2.152.288.238q3.815,3.811,7.633,7.618c.334.331.183.5-.065.748s-.413.413-.748.073c-2.53-2.554-5.079-5.09-7.619-7.634-.113-.114-.318-.232-.183-.423a1.613,1.613,0,0,1,.694-.621" transform="translate(3620.731 3586.099)" fill="#fff"/>
    </g>
  </g>
</svg>
