<svg xmlns="http://www.w3.org/2000/svg" width="66.088" height="66.088" viewBox="0 0 66.088 66.088">
  <g id="Group_149264" data-name="Group 149264" transform="translate(-3477 -3558)">
    <path id="Path_371" data-name="Path 371" d="M66.088,175.479a33.044,33.044,0,1,1-33.044-33.044,33.044,33.044,0,0,1,33.044,33.044" transform="translate(3477 3415.565)" fill="#236a59"/>
    <path id="Path_372" data-name="Path 372" d="M30.635,31.929v-.008c-.143,0-.286,0-.429,0-.123,0-.272-.033-.339.11s.039.273.126.384a.828.828,0,0,0,1.1.22c.19-.121.405-.281.353-.519-.057-.264-.336-.167-.53-.187a2.725,2.725,0,0,0-.286,0m.01-1.5c.657,0,1.314-.009,1.97,0,.309.006.427-.115.424-.425q-.017-1.585,0-3.171c0-.32-.137-.417-.435-.416q-1.947.012-3.892,0c-.31,0-.427.12-.424.428.01,1.041.015,2.082,0,3.123-.007.367.143.472.485.462.625-.017,1.25-.005,1.874-.005m.805-8.523c0,.786.012,1.572-.006,2.358-.009.37.122.517.5.51.93-.017,1.861,0,2.791-.01a1.363,1.363,0,0,0,1.408-1.389c.022-.576.01-1.154.009-1.731a12.1,12.1,0,0,1,1.94-6.695,8.6,8.6,0,0,0,.532-8.368c-1.6-3.879-6.549-5.568-9.713-4.831a8.845,8.845,0,0,0-5.9,13.016,20.663,20.663,0,0,1,1.26,2.592,14.749,14.749,0,0,1,.837,5.861A1.457,1.457,0,0,0,26.7,24.851c.882.012,1.764-.011,2.646.01.391.009.539-.118.535-.523-.018-1.555-.013-3.111,0-4.667a.847.847,0,0,0-.321-.706c-.815-.7-1.619-1.412-2.425-2.123-.467-.412-.542-.785-.241-1.163s.756-.4,1.219-.011q1.122.945,2.22,1.919a.406.406,0,0,0,.651,0c.754-.695,1.524-1.374,2.3-2.047a.755.755,0,0,1,1.115.027.712.712,0,0,1-.066,1.068,5.954,5.954,0,0,1-.459.424c-.7.614-1.391,1.234-2.1,1.836a.874.874,0,0,0-.329.751c.017.754,0,1.508.006,2.261m-4.642,7.038c0-.674-.01-1.348,0-2.021.008-.331-.1-.474-.45-.528a3.008,3.008,0,0,1-2.75-3.2,15.3,15.3,0,0,0-.362-4.2,13.771,13.771,0,0,0-1.391-3.262,10.051,10.051,0,0,1,.794-11.815A10.641,10.641,0,0,1,29.5.088c4.126-.656,10.712,2.372,11.4,8.874a10.11,10.11,0,0,1-1.377,6.559,11.84,11.84,0,0,0-1.821,7,3.878,3.878,0,0,1-.445,2.371,2.843,2.843,0,0,1-2.132,1.408c-.465.053-.54.251-.535.646.016,1.235-.006,2.47.01,3.7.01.821-.237,1.342-1.148,1.256-.366-.034-.394.242-.455.5a2.339,2.339,0,0,1-1.864,1.856A2.292,2.292,0,0,1,28.4,32.541c-.083-.4-.223-.556-.648-.566-.679-.015-.91-.275-.931-.963s0-1.379,0-2.069Z" transform="translate(3479.688 3574)" fill="#fff"/>
  </g>
</svg>
